<svg xmlns="http://www.w3.org/2000/svg" width="36" height="36" viewBox="0 0 36 36">
  <g id="Group_59696" data-name="Group 59696" transform="translate(-826 -1794)">
    <circle id="Ellipse_524" data-name="Ellipse 524" cx="18" cy="18" r="18" transform="translate(826 1794)" fill="#fff"/>
    <g id="Group_59694" data-name="Group 59694" transform="translate(833.259 1805.01)">
      <g id="Group_59693" data-name="Group 59693" transform="translate(0 0)">
        <path id="Path_129991" data-name="Path 129991" d="M-3.009,37.757a1.179,1.179,0,0,1,.2-.015H13.654l-.254-.118a2.36,2.36,0,0,1-.667-.472L9.47,33.888A1.221,1.221,0,0,1,9.3,32.325a1.18,1.18,0,0,1,1.77-.153l5.9,5.9a1.18,1.18,0,0,1,0,1.669h0l-5.9,5.9a1.18,1.18,0,0,1-1.77-.118,1.221,1.221,0,0,1,.171-1.564l3.257-3.269a2.36,2.36,0,0,1,.59-.431l.354-.159H-2.74a1.221,1.221,0,0,1-1.245-.991A1.18,1.18,0,0,1-3.009,37.757Z" transform="translate(4 -31.842)" fill="#fb4e6f"/>
      </g>
    </g>
  </g>
</svg>
