<svg xmlns="http://www.w3.org/2000/svg" xmlns:xlink="http://www.w3.org/1999/xlink" width="436.206" height="467.141" viewBox="0 0 436.206 467.141">
  <defs>
    <clipPath id="clip-path">
      <path id="Path_130663" data-name="Path 130663" d="M1775.021,644.682a140.272,140.272,0,0,1-2.874,19.869,74,74,0,0,1-11.587,26.635,61.942,61.942,0,0,1-9.633,10.586,9.738,9.738,0,0,1-1.638,1.135c-4.769,2.676-12.393,2.6-17.03-.17-2.492-1.491-6.275-5.67-8.118-7.914-7.13-8.547-11.579-18.834-14.116-29.618l-.03-.125a121.581,121.581,0,0,1-2.6-16.732c-.113-1.254-.291-2.595-.3-3.852h1.037c9.745,0,65.5.168,66.889.188" transform="translate(-1707.096 -644.494)" fill="none"/>
    </clipPath>
    <linearGradient id="linear-gradient" x1="-12.635" y1="-9.711" x2="-12.628" y2="-9.711" gradientUnits="objectBoundingBox">
      <stop offset="0" stop-color="#fdd248"/>
      <stop offset="1" stop-color="#fabd23"/>
    </linearGradient>
    <clipPath id="clip-path-2">
      <path id="Path_130668" data-name="Path 130668" d="M1727.451,439.7c-1.011,1.806-1.9,3.657-2.926,5.486,1.953-.857,3.383-1.487,4.807-1.956,8.633,17.221,8.524,32.837,2.564,46.735-4.679,2.006-5.916,2.285-11.763,2.922q4.245,1.784,8.488,3.575c-7.449,12.68-20.708,19.2-16.664,39.367.156.782.308,1.573.446,2.369q-5.194,3.363-10.4,6.711c5.426-.359,7.516-.392,10.979.27-.3,9.386-6.056,19.271-31.292,28.376-2.461-.2-8.538-3.16-9.81-4.91,1.116-8.746-1.513-24.058-3.759-36.087-1.829-9.791-1.216-16.655.96-21.93,3.14,1.555,6.378,2.677,9.6,4.089-2.6-4.634-3.866-6.884-4.881-11.417,7.918-8.7,21.105-13.162,30.191-27.614.548-.871,1.109-1.788,1.676-2.75,1.774.763,3.575,1.432,5.368,2.218a36.411,36.411,0,0,1-3.081-6.31c5.914-11.2,11.358-27.042,7.563-45.962a107.48,107.48,0,0,1,11.931,16.82" transform="translate(-1667.045 -422.877)" fill="none"/>
    </clipPath>
    <linearGradient id="linear-gradient-2" x1="-10.342" y1="-5.261" x2="-10.336" y2="-5.261" gradientUnits="objectBoundingBox">
      <stop offset="0" stop-color="#31adcc"/>
      <stop offset="1" stop-color="#198aa6"/>
    </linearGradient>
    <clipPath id="clip-path-3">
      <rect id="Rectangle_26065" data-name="Rectangle 26065" width="45.942" height="85.238" fill="none"/>
    </clipPath>
    <clipPath id="clip-path-4">
      <path id="Path_130669" data-name="Path 130669" d="M1749.077,555.764c-1.752,4.505-2.4,9.817-1.014,16.736.156.783.308,1.573.445,2.37q-5.193,3.362-10.394,6.711c5.425-.359,7.515-.392,10.98.27-.3,9.387-6.057,19.271-31.293,28.376-2.461-.2-8.539-3.16-9.811-4.91,1.116-8.745-1.512-24.057-3.759-36.087-1.829-9.791-1.215-16.655.961-21.93,3.139,1.555,6.378,2.677,9.6,4.089-2.6-4.635-3.866-6.884-4.881-11.417,5-5.486,12.089-9.289,18.927-14.978,3.531,11.74,13.74,18.993,20.24,30.771" transform="translate(-1703.152 -524.993)" fill="none" clip-rule="evenodd"/>
    </clipPath>
    <linearGradient id="linear-gradient-3" x1="-11.362" y1="-13.202" x2="-11.355" y2="-13.202" xlink:href="#linear-gradient-2"/>
    <clipPath id="clip-path-5">
      <rect id="Rectangle_26067" data-name="Rectangle 26067" width="56.08" height="134.205" fill="none"/>
    </clipPath>
    <clipPath id="clip-path-6">
      <path id="Path_130670" data-name="Path 130670" d="M1716.6,496.026a40.357,40.357,0,0,0,13.278-10.078c-4.118,2.619-7.547,5.315-11.43,6.717a42.077,42.077,0,0,0,1.907-4.449c5.083-14.066,1.881-26.532-2.085-40,2.63,10.7,4.905,20.879,2.8,31.467-1-3.3-3.047-5.794-5.734-9.738,2.066,4.8,4.322,8.983,4.646,14q-.56,1.793-1.309,3.607c-2.556,6.16-6.405,11.05-10.6,15.531.431-4.3-.839-7.919-2.688-12.894.77,4.654,1.572,10.314.51,15.165-5.824,5.94-11.983,11.4-16.086,18.545-2.133-9.159-1.608-7.5-3.684-16.554-.7,9.911-.386,13.69,1.656,20.652a35.212,35.212,0,0,0-2.518,9.92c-.989,9.228-.926,14.97-1.5,19.948-5.177-10.471-2.8-5.55-9.737-20.426.646,8.674.37,9.631,8.539,26.514-1.312,4.456-3.784,9.239-8.757,16.5a25.242,25.242,0,0,0,4.774,1.963c9.079-13.551,9.1-18.813,9.257-28.987,3.944-6.907,8.964-14.721,14.339-19.959-4.907,1.864-8.778,4.647-14.142,12.882.115-2.429.3-5.134.631-8.207.871-8.212,4.764-14.448,9.632-20.251a75.463,75.463,0,0,1,15.7-4.953c-5.439-.565-8.771-.184-12.043.813,5.052-5.5,10.554-10.948,14.65-17.736" transform="translate(-1673.801 -448.219)" fill="none" clip-rule="evenodd"/>
    </clipPath>
    <linearGradient id="linear-gradient-4" x1="-11.952" y1="-5.937" x2="-11.944" y2="-5.937" xlink:href="#linear-gradient-2"/>
    <clipPath id="clip-path-7">
      <path id="Path_130671" data-name="Path 130671" d="M1757.162,339.259c-.39,2.862-.6,5.723-1,8.625,2.1-2.113,3.635-3.663,5.245-5,20.024,17.964,27.866,38.311,27.228,59.416-5.055,5-6.519,6-13.792,9.813q6.429.147,12.857.305c-3.2,20.284-17.093,35.532-1.526,59.673.6.937,1.206,1.887,1.79,2.852q-5.03,7.025-10.075,14.035c6.866-3.24,9.565-4.352,14.405-5.263,4.406,12.35,1.984,28.137-26.153,52.871-3.3,1-12.71.26-15.258-1.363-3.022-11.935-14.266-30.487-23.337-44.97-7.383-11.787-10.1-21.021-9.965-28.987,4.874.416,9.656.216,14.566.4-5.745-4.694-8.544-6.969-12.18-12.339,5.842-15.347,20.7-27.893,25.111-51.319.266-1.411.527-2.89.772-4.431,2.694.085,5.376.033,8.109.137a50.692,50.692,0,0,1-7.229-6.623c1.955-17.583.931-40.945-13.674-63.591a150.034,150.034,0,0,1,24.1,15.756" transform="translate(-1717.581 -323.503)" fill="none"/>
    </clipPath>
    <linearGradient id="linear-gradient-5" x1="-4.576" y1="-8.055" x2="-4.573" y2="-8.055" xlink:href="#linear-gradient-2"/>
    <clipPath id="clip-path-8">
      <rect id="Rectangle_26071" data-name="Rectangle 26071" width="46.256" height="194.822" fill="none"/>
    </clipPath>
    <clipPath id="clip-path-9">
      <path id="Path_130672" data-name="Path 130672" d="M1770.815,415.684c4.387-4.208,9.711-12.745,12.1-19.885-4.011,5.509-7.089,10.764-11.417,14.573a59.081,59.081,0,0,0,.2-6.755c-.587-20.876-11.121-35.439-23.161-50.907,8.889,12.56,17.049,24.622,19.724,39.46-2.992-3.778-6.922-5.97-12.431-9.722,5.141,5.186,10.21,9.463,13.2,15.819q.189,2.617.143,5.357c-.172,9.311-2.674,17.633-5.829,25.6-1.639-5.809-5.139-9.861-10.086-15.38,3.38,5.654,7.315,12.6,8.416,19.445-4.53,10.7-9.741,20.938-11.42,32.322-7.454-10.811-5.923-8.919-13.251-19.626,4.154,13.237,6.5,17.987,12.712,25.989a49.18,49.18,0,0,0,1.8,14.179c3.434,12.5,6.451,19.925,8.246,26.688-12.082-10.958-6.472-5.782-23.1-21.563,5.274,10.941,5.4,12.325,24.652,30.086.573,6.462-.193,13.94-2.942,25.923a35.274,35.274,0,0,0,7.208.109c4.868-22.251,2.206-29.1-2.793-42.4,1.594-10.992,4.121-23.712,8.427-33.266-5.423,4.93-9.03,10.526-11.789,23.969-1.093-3.215-2.23-6.826-3.377-10.987-3.066-11.116-1.2-21.209,2.162-31.238,10.3-9.911,12.879-10.859,17.87-14.465-7.356,2.047-11.49,4.246-15.232,7.214,3.751-9.732,8.116-19.621,9.968-30.537" transform="translate(-1736.662 -352.709)" fill="none" clip-rule="evenodd"/>
    </clipPath>
    <linearGradient id="linear-gradient-6" x1="-5.215" y1="-13.76" x2="-5.212" y2="-13.76" xlink:href="#linear-gradient-2"/>
    <clipPath id="clip-path-10">
      <path id="Path_130675" data-name="Path 130675" d="M1416.155,641.87l-99.683,57.555-77.3-155.156,176.647-9.592Z" transform="translate(-1239.171 -534.678)" fill="none"/>
    </clipPath>
    <linearGradient id="linear-gradient-7" x1="-3.783" y1="-3.859" x2="-3.78" y2="-3.859" xlink:href="#linear-gradient-2"/>
    <clipPath id="clip-path-11">
      <path id="Path_130676" data-name="Path 130676" d="M1493.784,592.2l.309,107.215-99.031-57.555-.342-107.215Z" transform="translate(-1394.721 -534.641)" fill="none"/>
    </clipPath>
    <linearGradient id="linear-gradient-8" x1="-4.439" y1="-4.267" x2="-4.436" y2="-4.267" xlink:href="#linear-gradient-2"/>
    <clipPath id="clip-path-12">
      <path id="Path_130677" data-name="Path 130677" d="M1438.415,502.41l-99.656,57.529L1239.7,502.384l99.682-57.555Z" transform="translate(-1239.696 -444.829)" fill="none"/>
    </clipPath>
    <linearGradient id="linear-gradient-9" x1="-3.685" y1="-3.632" x2="-3.682" y2="-3.632" xlink:href="#linear-gradient-2"/>
    <clipPath id="clip-path-13">
      <rect id="Rectangle_26077" data-name="Rectangle 26077" width="161.39" height="189.33" fill="none"/>
    </clipPath>
    <clipPath id="clip-path-14">
      <path id="Path_130678" data-name="Path 130678" d="M1382.087,659.876c1.894-6.7.449-12.15,3.136-15.15,7.5-8.377,6.242-16.3,5.529-19.644-2.245-10.535-12.692-8.537-14.844-13.627-9.594-22.684-2.584-38.839-16.008-57.083,38.351-6.8,61.605-8.666,82.576-34.308,2.286-2.8,4.039-8.08,5.581-16.6,6.075-3.451,10.432-7.246,10.705-10.237L1441.795,483.1c-3.568-7.449-6.094-.049-12.277-4.724l-24.076,15.374-78.9,49.893,5.615,10.676-34.728,35.623-.06,31.366c12.085-14.662,38.04-36.149,36.309-62.665l34.056,63.321-1.161,30.168a32.892,32.892,0,0,1-4.052,7.257l14.037,8.316c2.832-2.648,4.866-5.474,5.53-7.823" transform="translate(-1297.368 -478.372)" fill="none" clip-rule="evenodd"/>
    </clipPath>
    <linearGradient id="linear-gradient-10" x1="-3.172" y1="-3.196" x2="-3.17" y2="-3.196" xlink:href="#linear-gradient-2"/>
    <clipPath id="clip-path-15">
      <path id="Path_130684" data-name="Path 130684" d="M1456.855,463.62l19.29,11.023c-1.726,15.529-72.82,39.746-91.013,47.166,19.559,17.451,22.016,55.667,37.933,87.886-1.973,5.04-8.156,8.366-14.921,8.06-18.877-30.123-36.67-56.59-51.847-86.583-2.146-4.24-4.643-8.627-5.343-12.835-.7-4.244,1.183-9.921,6.278-14.55,14.359-13.049,47.089-27.615,65.262-33.833,9.179-3.141,19.734-4.082,28.2-7.422Z" transform="translate(-1350.812 -462.532)" fill="none"/>
    </clipPath>
    <linearGradient id="linear-gradient-11" x1="-4.547" y1="-5.048" x2="-4.544" y2="-5.048" gradientUnits="objectBoundingBox">
      <stop offset="0" stop-color="#105b91"/>
      <stop offset="1" stop-color="#0d4d7a"/>
    </linearGradient>
    <clipPath id="clip-path-16">
      <rect id="Rectangle_26080" data-name="Rectangle 26080" width="122.446" height="146.727" fill="none"/>
    </clipPath>
    <clipPath id="clip-path-17">
      <path id="Path_130691" data-name="Path 130691" d="M1501.95,498.266c-19.341,42.683-67.927,42.2-113.922,58.665-7.3,34.118-34.409,54.09-53.519,87.021-4.276.431-12.262-.631-15.519-4.206a816.943,816.943,0,0,1,37.646-88.513c7-14.3,9.01-17.463,26.076-26.814,30.925-16.946,59.718-34,90.454-52.772,5.942,4.748,25.555,17.453,28.785,26.619" transform="translate(-1318.99 -471.647)" fill="none"/>
    </clipPath>
    <linearGradient id="linear-gradient-12" x1="-4.015" y1="-3.648" x2="-4.012" y2="-3.648" xlink:href="#linear-gradient-11"/>
    <clipPath id="clip-path-18">
      <path id="Path_130695" data-name="Path 130695" d="M1368.838,309.849c15.345.309,25.546,4.7,31.834,13.378,9.379,12.938,11.561,46.2,9.917,61.472-1.516,14.081-6.166,27.858-15.358,44.487a19.691,19.691,0,0,1-5.964,6.041l-4.406,6.5c-12.471-12.258-29.332-23.827-46.338-33.721.385-2.248.316-5.185.663-7.373a17.945,17.945,0,0,1-.693-5.79c.7-7.333,3.59-10.145,2.785-21.718-6.018,12.772-9.4,20.493-15.244,27.623-7.935,9.679-19.825,16.815-42.047,27.927a13.629,13.629,0,0,0-4.786-8.268c19.556-18.422,23.732-19.919,35.4-45.3,6.243-13.579,9.764-26.4,17.315-40.406,8.278-15.359,19.149-24.859,36-24.858.3,0,.609,0,.916.009" transform="translate(-1279.204 -309.84)" fill="none"/>
    </clipPath>
    <linearGradient id="linear-gradient-13" x1="-4.24" y1="-4.943" x2="-4.237" y2="-4.943" gradientUnits="objectBoundingBox">
      <stop offset="0" stop-color="#8fba61"/>
      <stop offset="1" stop-color="#799c54"/>
    </linearGradient>
    <clipPath id="clip-path-19">
      <rect id="Rectangle_26086" data-name="Rectangle 26086" width="74.133" height="41.084" fill="none"/>
    </clipPath>
    <clipPath id="clip-path-20">
      <path id="Path_130696" data-name="Path 130696" d="M1343.192,309.849c-17.374-.349-28.49,9.214-36.917,24.849a160.9,160.9,0,0,0-7.5,16.225c7.442-9.276,14.1-3.673,22.242-6.085,8.42-2.5,12.147-8.8,14.592-9.9,9.617-4.338,18.464.945,25.727-.351,9.789-1.746,14.375-9.215,9.777-15.749-6.339-5.774-15.423-8.736-27.918-8.987" transform="translate(-1298.772 -309.84)" fill="none" clip-rule="evenodd"/>
    </clipPath>
    <linearGradient id="linear-gradient-14" x1="-9.434" y1="-14.073" x2="-9.426" y2="-14.073" xlink:href="#linear-gradient-13"/>
    <clipPath id="clip-path-21">
      <rect id="Rectangle_26088" data-name="Rectangle 26088" width="47.121" height="89.846" fill="none"/>
    </clipPath>
    <clipPath id="clip-path-22">
      <path id="Path_130697" data-name="Path 130697" d="M1279.206,445.345c5.716,3.473,10.259,7.482,15.1,11.545,15.24-9.542,29.677-34.486,31.524-51.647.86-8,.672-20.918-1.047-33.274-4.7-1.235-12.482-2.465-12.705-4.929Z" transform="translate(-1279.206 -367.04)" fill="none" clip-rule="evenodd"/>
    </clipPath>
    <linearGradient id="linear-gradient-15" x1="-7.797" y1="-11.354" x2="-7.791" y2="-11.354" xlink:href="#linear-gradient-13"/>
    <clipPath id="clip-path-23">
      <path id="Path_130698" data-name="Path 130698" d="M1464.065,225.136c22.012,9.561,10.817,39.764-15.663,48.587-32.034,7.508-36.706,7.177-65.227-6.746-16.309-7.962-25.168-5.393-34.1-2.824-5.383,1.55-10.791,3.1-17.872,2.339-28.23-3.026-28.379-30.972-11.1-47.376,15.977-15.172,38.52-14.873,60.176-7.727,27.855,9.193,28.772-6.979,56.808-7.081h.154c13.155,0,29.079,6.059,26.823,20.829" transform="translate(-1308.328 -204.307)" fill="none"/>
    </clipPath>
    <linearGradient id="linear-gradient-16" x1="-4.303" y1="-10.658" x2="-4.299" y2="-10.658" gradientUnits="objectBoundingBox">
      <stop offset="0" stop-color="#722e40"/>
      <stop offset="1" stop-color="#48202d"/>
    </linearGradient>
    <clipPath id="clip-path-24">
      <path id="Path_130701" data-name="Path 130701" d="M1368.251,366.452c1.176,31.192-5.78,54.558-20.228,67.852-18.862,17.357-37.564,22.18-60.951,29.55.39-3.56-1.343-9.307-5.222-10.443,18.361-8.456,29.553-18.549,40.4-33.97,11.475-16.314,13.737-28.152,17.253-50.407,1.528-9.676,7.937-13.4,14.318-13.4,7.115,0,14.2,4.635,14.429,10.818" transform="translate(-1281.851 -355.634)" fill="none"/>
    </clipPath>
    <linearGradient id="linear-gradient-17" x1="-5.791" y1="-6.688" x2="-5.787" y2="-6.688" xlink:href="#linear-gradient-13"/>
  </defs>
  <g id="Group_60683" data-name="Group 60683" transform="translate(0)">
    <path id="Path_130662" data-name="Path 130662" d="M1744.19,705.594c16.262,0,29.445,7.636,29.445,17.056s-13.183,17.055-29.445,17.055-29.445-7.636-29.445-17.055,13.183-17.056,29.445-17.056" transform="translate(-1695.369 -321.689)" fill="#eaf4ff" fill-rule="evenodd" opacity="0.3"/>
    <g id="Group_60198" data-name="Group 60198" transform="translate(15.243 344.75)" clip-path="url(#clip-path)">
      <rect id="Rectangle_26061" data-name="Rectangle 26061" width="85.87" height="82.094" transform="translate(58.384 84.691) rotate(-157.989)" fill="url(#linear-gradient)"/>
    </g>
    <path id="Path_130664" data-name="Path 130664" d="M1741.849,614.761c17.991,0,32.577,8.229,32.577,18.378s-14.585,18.378-32.577,18.378-32.576-8.228-32.576-18.378,14.586-18.378,32.576-18.378" transform="translate(-1692.653 -289.066)" fill="#ecb01a" fill-rule="evenodd"/>
    <path id="Path_130665" data-name="Path 130665" d="M1742.385,622.6c17.462,0,31.619,7.986,31.619,17.838,0,4.808-11.448,13.263-31.712,14.2s-30.871-9.949-31.525-14.2c0-9.852,14.156-17.838,31.618-17.838" transform="translate(-1693.19 -291.881)" fill="#071a3b" fill-rule="evenodd"/>
    <path id="Path_130666" data-name="Path 130666" d="M1741.058,613.463c18.771,0,33.988,8.814,33.988,19.687s-15.217,19.687-33.988,19.687-33.987-8.814-33.987-19.687,15.217-19.687,33.987-19.687m0,1.372c-17.462,0-31.618,7.987-31.618,17.838s14.156,17.838,31.618,17.838,31.619-7.987,31.619-17.838-14.156-17.838-31.619-17.838" transform="translate(-1691.863 -288.599)" fill="#fcd148" fill-rule="evenodd"/>
    <path id="Path_130667" data-name="Path 130667" d="M1774.623,650.3c-3.2,8.944-16.885,15.666-33.276,15.666-15.976,0-29.378-6.386-33.015-14.991l-.026-.064.614-.058,1.87-.331.065.01c3.674,7.555,15.933,13.108,30.492,13.108,14.887,0,27.368-5.805,30.727-13.621l1.779.082Zm-66.417.364.572-.266-.6.2Z" transform="translate(-1692.152 -301.729)" fill="#fcd148" fill-rule="evenodd"/>
    <g id="Group_60202" data-name="Group 60202" transform="translate(39.754 202.728)" clip-path="url(#clip-path-2)">
      <rect id="Rectangle_26063" data-name="Rectangle 26063" width="101.668" height="162.352" transform="matrix(-0.978, -0.21, 0.21, -0.978, 67.77, 165.367)" fill="url(#linear-gradient-2)"/>
    </g>
    <g id="Group_60208" data-name="Group 60208" transform="translate(39.755 268.166)" opacity="0.5" style="mix-blend-mode: multiply;isolation: isolate">
      <g id="Group_60207" data-name="Group 60207" transform="translate(0 0)">
        <g id="Group_60206" data-name="Group 60206" clip-path="url(#clip-path-3)">
          <g id="Group_60205" data-name="Group 60205" transform="translate(-0.001 0.002)">
            <g id="Group_60204" data-name="Group 60204" clip-path="url(#clip-path-4)">
              <rect id="Rectangle_26064" data-name="Rectangle 26064" width="93.981" height="65.877" transform="translate(1.968 96.166) rotate(-103.961)" fill="url(#linear-gradient-3)"/>
            </g>
          </g>
        </g>
      </g>
    </g>
    <g id="Group_60213" data-name="Group 60213" transform="translate(48.425 218.969)" opacity="0.5" style="mix-blend-mode: multiply;isolation: isolate">
      <g id="Group_60212" data-name="Group 60212" transform="translate(0 0)">
        <g id="Group_60211" data-name="Group 60211" clip-path="url(#clip-path-5)">
          <g id="Group_60210" data-name="Group 60210" transform="translate(0.002 -0.001)">
            <g id="Group_60209" data-name="Group 60209" clip-path="url(#clip-path-6)">
              <rect id="Rectangle_26066" data-name="Rectangle 26066" width="88.397" height="144.06" transform="translate(52.443 148.012) rotate(-165.25)" fill="url(#linear-gradient-4)"/>
            </g>
          </g>
        </g>
      </g>
    </g>
    <g id="Group_60216" data-name="Group 60216" transform="translate(0 139.045)" clip-path="url(#clip-path-7)">
      <rect id="Rectangle_26069" data-name="Rectangle 26069" width="224.137" height="113.07" transform="translate(1.978 226.825) rotate(-99.377)" fill="url(#linear-gradient-5)"/>
    </g>
    <g id="Group_60222" data-name="Group 60222" transform="translate(17.966 157.762)" opacity="0.5" style="mix-blend-mode: multiply;isolation: isolate">
      <g id="Group_60221" data-name="Group 60221" transform="translate(0 0)">
        <g id="Group_60220" data-name="Group 60220" clip-path="url(#clip-path-8)">
          <g id="Group_60219" data-name="Group 60219" transform="translate(0.002 -0.001)">
            <g id="Group_60218" data-name="Group 60218" clip-path="url(#clip-path-9)">
              <rect id="Rectangle_26070" data-name="Rectangle 26070" width="198.784" height="67.194" transform="translate(0.548 199.912) rotate(-96.249)" fill="url(#linear-gradient-6)"/>
            </g>
          </g>
        </g>
      </g>
    </g>
    <path id="Path_130673" data-name="Path 130673" d="M1188.664,658.115l133.979,77.842,134.783-77.806-133.944-77.878Z" transform="translate(-1042.025 -276.679)" fill="#eaf4ff" fill-rule="evenodd" opacity="0.3"/>
    <path id="Path_130674" data-name="Path 130674" d="M1526.765,769l61.358-34.945c6.689-3.056,16.263-5.489,23.078-1.942,6.209,3.232,16.438,9.845,20.962,12.425,3.435,1.96,15.361,9.1,7.933,13.144-21.85,11.881-43.474,25.244-65.662,37.314-4.2,2.283-10.335,3.107-16.779,2.572a44.435,44.435,0,0,1-18.173-5.413q-5.531-3.216-10.88-6.333c-4.813-2.8-7.365-6.116-7.618-9.18-.247-2.993,1.676-5.767,5.782-7.641" transform="translate(-1440.039 -330.582)" fill="#eaf4ff" fill-rule="evenodd" opacity="0.3"/>
    <g id="Group_60225" data-name="Group 60225" transform="translate(206.05 274.375)" clip-path="url(#clip-path-10)">
      <rect id="Rectangle_26073" data-name="Rectangle 26073" width="206.07" height="196.497" transform="matrix(-0.98, -0.198, 0.198, -0.98, 170.061, 199.059)" fill="url(#linear-gradient-7)"/>
    </g>
    <g id="Group_60227" data-name="Group 60227" transform="translate(183.978 274.351)" clip-path="url(#clip-path-11)">
      <rect id="Rectangle_26074" data-name="Rectangle 26074" width="191.032" height="179.714" transform="matrix(-0.615, -0.788, 0.788, -0.615, 37.618, 212.968)" fill="url(#linear-gradient-8)"/>
    </g>
    <g id="Group_60229" data-name="Group 60229" transform="translate(183.978 216.796)" clip-path="url(#clip-path-12)">
      <rect id="Rectangle_26075" data-name="Rectangle 26075" width="213.582" height="227.26" transform="translate(76.526 211.81) rotate(-128.357)" fill="url(#linear-gradient-9)"/>
    </g>
    <g id="Group_60235" data-name="Group 60235" transform="translate(184.347 238.29)" opacity="0.5" style="mix-blend-mode: multiply;isolation: isolate">
      <g id="Group_60234" data-name="Group 60234" transform="translate(0 0)">
        <g id="Group_60233" data-name="Group 60233" clip-path="url(#clip-path-13)">
          <g id="Group_60232" data-name="Group 60232" transform="translate(-0.003 0.001)">
            <g id="Group_60231" data-name="Group 60231" clip-path="url(#clip-path-14)">
              <rect id="Rectangle_26076" data-name="Rectangle 26076" width="248.372" height="238.592" transform="matrix(-0.529, -0.848, 0.848, -0.529, 45.229, 261.812)" fill="url(#linear-gradient-10)"/>
            </g>
          </g>
        </g>
      </g>
    </g>
    <path id="Path_130679" data-name="Path 130679" d="M1429.425,708.39c-.248,3.693-.857,7.787-1.03,10.212-.369,5.164-.288,9.472-2.662,15.014-1.351,3.153-3.049,5.444-6.473,9.6.463,3.828,8.542,2.912,12.387-.463,1.959.143,3.556-1.485,5.535-5.334,8.312-6.663,7.533-10.329,9.435-19.546.471-2.279,2.066-4.628,4.169-7.158,4.917-5.918,2.265-7.711-3.162-14.253-1.584-1.91-3.608-6.341-5.054-8.954-4.117-7.439-13.557,6.378-13.533,6.474a28.127,28.127,0,0,1,1.063,5.224,22.287,22.287,0,0,1-.359,3.4c-.2,1.85-.185,3.832-.317,5.782" transform="translate(-1185.753 -314.405)" fill="#e7a376" fill-rule="evenodd"/>
    <path id="Path_130680" data-name="Path 130680" d="M1427.672,712.19c5.718,2.825,21.11-8.415,18.2-11.923a5.555,5.555,0,0,1-1.137-1.937,9.347,9.347,0,0,1-1.3-2.437c-3.164,4.735-11.021,8.668-15.3,6.62a27.671,27.671,0,0,1-.148,3.894Z" transform="translate(-1183.999 -318.205)" fill="#daeafa" fill-rule="evenodd"/>
    <path id="Path_130681" data-name="Path 130681" d="M1449.915,711.875a5.945,5.945,0,0,1,.195,3.553c-2.19,8.613-4.086,6.162-6.091,10.862-1.949,4.57-.409,5.954-1.55,9.22-2.542,8.606-8.329,16.231-16.357,18.85-5.405,1.764-12.286,1.974-14.326-1.789-.123-4.84,13.78-18.114,14.446-19.48,2.133-4.267,9.15-30.816,16.961-28.437,2.457.749,6.189,5.049,6.723,7.222" transform="translate(-1177.868 -321.297)" fill="#daeafa" fill-rule="evenodd"/>
    <path id="Path_130682" data-name="Path 130682" d="M1426.3,713.493c-.248,3.693-.856,7.787-1.03,10.212-.369,5.165-.288,9.472-2.663,15.014-1.053,2.46-3.25,4.41-5.382,7.119-3.26,4.141-.232,6.811,4.906,6.61a23.253,23.253,0,0,0,6.786-1.338c10.964-4.158,15.171-17.832,17.016-26.773a19.517,19.517,0,0,1,4.065-7.807c4.916-5.917,1.91-12.546-5.047-15.712a3.871,3.871,0,0,1-1.585-1.3c-.749,5.6-10.016,11.848-16.928,10.929-.04,1.007-.071,2.029-.139,3.042" transform="translate(-1182.63 -319.508)" fill="#08375c" fill-rule="evenodd"/>
    <path id="Path_130683" data-name="Path 130683" d="M1449.207,726.94a7.863,7.863,0,0,1,1.641-.322,10.234,10.234,0,0,1,4.319.586l.32-.991a11.3,11.3,0,0,0-4.765-.641,9.136,9.136,0,0,0-1.4.237q-.058.57-.12,1.132m-1.782,16.492c.126-.017.254-.032.386-.044a10.254,10.254,0,0,1,4.319.586l.32-.992a11.308,11.308,0,0,0-4.766-.641l-.025,0q-.106.54-.234,1.088m.587-3.3q.165-.021.336-.038a10.237,10.237,0,0,1,4.319.587l.321-.993a11.312,11.312,0,0,0-4.766-.641l-.089.009q-.053.537-.121,1.075m.308-3.37c.249-.046.508-.083.78-.108a10.254,10.254,0,0,1,4.319.586l.32-.991a11.3,11.3,0,0,0-4.766-.641c-.2.018-.4.042-.585.072q-.034.545-.068,1.082m.222-3.514a8.062,8.062,0,0,1,1.121-.18,10.244,10.244,0,0,1,4.319.586l.321-.992a11.306,11.306,0,0,0-4.766-.641c-.314.029-.616.072-.9.128-.03.32-.056.622-.076.9Zm.316-3.216a7.905,7.905,0,0,1,1.389-.249,10.248,10.248,0,0,1,4.321.586l.32-.992a11.309,11.309,0,0,0-4.766-.64,9.186,9.186,0,0,0-1.136.175Z" transform="translate(-1205.913 -328.849)" fill="#e5efff" fill-rule="evenodd"/>
    <g id="Group_60238" data-name="Group 60238" transform="translate(186.156 228.141)" clip-path="url(#clip-path-15)">
      <rect id="Rectangle_26079" data-name="Rectangle 26079" width="183.992" height="163.574" transform="matrix(-0.273, -0.962, 0.962, -0.273, 8.821, 188.594)" fill="url(#linear-gradient-11)"/>
    </g>
    <g id="Group_60242" data-name="Group 60242" transform="translate(189.045 236.656)" opacity="0.3" style="mix-blend-mode: multiply;isolation: isolate">
      <g id="Group_60241" data-name="Group 60241" transform="translate(0 0)">
        <g id="Group_60240" data-name="Group 60240" clip-path="url(#clip-path-16)">
          <path id="Path_130685" data-name="Path 130685" d="M1350.811,530.828c.83,1.716,1.74,3.428,2.6,5.117,15.177,29.993,32.97,56.459,51.847,86.582a18.786,18.786,0,0,0,4.295-.3c-8.306-22.518-25.684-48.88-9.689-65.337-4.392-12.384-9.551-23.115-17.617-30.312,18.192-7.42,89.287-31.636,91.013-47.166l-6.293-3.6c-40.208,9.342-73.484,20.866-105.8,42.822-4.673,3.174-7.89,5.707-10.352,12.186" transform="translate(-1350.81 -475.82)" fill="#0a3c5f" fill-rule="evenodd"/>
        </g>
      </g>
    </g>
    <path id="Path_130686" data-name="Path 130686" d="M1606.393,741c-2.387,2.828-5.3,5.767-6.877,7.618-3.355,3.944-5.841,7.462-11.037,10.522-2.956,1.74-5.681,2.582-10.9,3.906-1.893,3.359,5.159,7.405,10.256,6.962,1.495,1.275,3.746.91,7.619-1.02,10.643-.446,12.187-3.862,19.178-10.162,1.73-1.558,4.4-2.5,7.6-3.3,7.466-1.857,6.391-4.872,5.892-13.357-.146-2.478.394-7.054,1.992-9.365,4.838-6.993-14.857-4.383-14.893-4.291-1.635,4.151-1.83,4.38-5.145,8.014-1.253,1.376-2.418,2.978-3.679,4.472" transform="translate(-1464.504 -329.723)" fill="#e7a376" fill-rule="evenodd"/>
    <path id="Path_130687" data-name="Path 130687" d="M1580.586,743.752c2.935,5.663,21.994,5.72,21.726,1.17a5.558,5.558,0,0,1,.231-2.235,9.317,9.317,0,0,1,.394-2.734c-5.353,1.942-13.476-.149-15.708-4.332a40.6,40.6,0,0,1-2.964,3.659Z" transform="translate(-1438.697 -332.473)" fill="#daeafa" fill-rule="evenodd"/>
    <path id="Path_130688" data-name="Path 130688" d="M1630.837,763.929a5.947,5.947,0,0,1-1.948,2.978c-6.865,5.643-6.941,2.545-11.34,5.146-4.277,2.527-3.855,4.556-6.709,6.511-7.145,5.429-16.324,8.146-24.344,5.5-5.4-1.78-11.069-5.685-10.483-9.925,2.766-3.973,21.831-6.436,23.176-7.143,4.246-2.175,25.623-19.412,30.507-12.87,1.537,2.058,2,7.734,1.141,9.8" transform="translate(-1464.066 -338.591)" fill="#daeafa" fill-rule="evenodd"/>
    <path id="Path_130689" data-name="Path 130689" d="M1607.192,746.981c-2.387,2.828-5.3,5.766-6.876,7.618-3.356,3.943-5.842,7.461-11.038,10.521-2.306,1.359-5.231,1.63-8.552,2.55-5.08,1.407-4.221,5.351.037,8.232a23.251,23.251,0,0,0,6.262,2.941c11.3,3.142,22.785-5.384,29.565-11.5a19.531,19.531,0,0,1,7.9-3.884c7.465-1.856,8.969-8.978,5.239-15.649a3.858,3.858,0,0,1-.511-1.983c-3.919,4.067-15.086,3.615-20.112-1.219-.629.788-1.258,1.593-1.913,2.37" transform="translate(-1465.303 -335.702)" fill="#08375c" fill-rule="evenodd"/>
    <path id="Path_130690" data-name="Path 130690" d="M1622.364,752.651a7.872,7.872,0,0,1,1.514.712,10.242,10.242,0,0,1,3.133,3.03l.846-.609a11.3,11.3,0,0,0-3.461-3.339,9.091,9.091,0,0,0-1.265-.636q-.385.425-.767.841m-11.2,12.234c.113.06.224.125.337.192a10.25,10.25,0,0,1,3.135,3.03l.845-.609a11.3,11.3,0,0,0-3.461-3.339l-.022-.013q-.4.372-.835.738m2.431-2.315q.373-.394.734-.8l.076.046a11.305,11.305,0,0,1,3.461,3.339l-.845.609a10.26,10.26,0,0,0-3.134-3.031c-.1-.058-.2-.115-.292-.168m2.243-2.533q.342.163.692.375a10.247,10.247,0,0,1,3.134,3.029l.845-.609a11.322,11.322,0,0,0-3.461-3.339c-.172-.1-.344-.2-.515-.288q-.349.419-.7.832m2.26-2.7.128-.151c.182-.213.381-.442.595-.682a9.126,9.126,0,0,1,.805.433,11.294,11.294,0,0,1,3.461,3.339l-.845.609a10.269,10.269,0,0,0-3.134-3.03,8.1,8.1,0,0,0-1.01-.518m2.158-2.4.768-.827a9.232,9.232,0,0,1,1.018.532,11.289,11.289,0,0,1,3.461,3.338l-.846.609a10.242,10.242,0,0,0-3.133-3.031,8.025,8.025,0,0,0-1.267-.622" transform="translate(-1483.211 -338.288)" fill="#e5efff" fill-rule="evenodd"/>
    <g id="Group_60245" data-name="Group 60245" transform="translate(148.922 233.982)" clip-path="url(#clip-path-17)">
      <rect id="Rectangle_26082" data-name="Rectangle 26082" width="207.455" height="215.292" transform="matrix(-0.211, -0.977, 0.977, -0.211, 8.147, 210.475)" fill="url(#linear-gradient-12)"/>
    </g>
    <path id="Path_130692" data-name="Path 130692" d="M1480.155,503.928l-50.971,28.935c-.829.584-1.226.049-1.752-1.443l-70.218-40.9c-.557-1.169-.675-2.439,2.659-4.156l46.178-25.694c3.011-1.157,4.988-1.471,7.409-.195l69.309,38.056-.026,2.272c.221,1-.859,2.18-2.586,3.122" transform="translate(-1175.19 -233.357)" fill="#cce0f5" fill-rule="evenodd"/>
    <path id="Path_130693" data-name="Path 130693" d="M1480.156,499.967,1429.185,528.9c-.829.585-1.226.049-1.752-1.442l-70.218-40.9c-.558-1.168-.675-2.439,2.659-4.156l46.178-25.693c3.011-1.157,4.988-1.471,7.409-.2l68.707,39.489c1.391,1.1.238,2.736-2.01,3.962" transform="translate(-1175.192 -231.935)" fill="#daeafa" fill-rule="evenodd"/>
    <path id="Path_130694" data-name="Path 130694" d="M1487.141,510.612l-38.8,22.026c-.631.445-.934.037-1.334-1.1L1384.242,495c-.424-.89-.514-1.857,2.025-3.164l35.153-19.559c2.292-.88,3.8-1.12,5.64-.149l61.611,35.464c1.059.838.181,2.083-1.53,3.016" transform="translate(-1198.917 -237.614)" fill="#cce0f5" fill-rule="evenodd"/>
    <g id="Group_60249" data-name="Group 60249" transform="translate(225.492 130.289)" clip-path="url(#clip-path-18)">
      <rect id="Rectangle_26084" data-name="Rectangle 26084" width="186.734" height="186.855" transform="translate(56.573 197.65) rotate(-130.702)" fill="url(#linear-gradient-13)"/>
    </g>
    <g id="Group_60255" data-name="Group 60255" transform="translate(270.707 130.289)" opacity="0.5" style="mix-blend-mode: multiply;isolation: isolate">
      <g id="Group_60254" data-name="Group 60254" transform="translate(0 0)">
        <g id="Group_60253" data-name="Group 60253" clip-path="url(#clip-path-19)">
          <g id="Group_60252" data-name="Group 60252" transform="translate(-0.001 0)">
            <g id="Group_60251" data-name="Group 60251" clip-path="url(#clip-path-20)">
              <rect id="Rectangle_26085" data-name="Rectangle 26085" width="87.378" height="72.922" transform="translate(59.676 73.177) rotate(-151.728)" fill="url(#linear-gradient-14)"/>
            </g>
          </g>
        </g>
      </g>
    </g>
    <g id="Group_60260" data-name="Group 60260" transform="translate(310.253 166.945)" opacity="0.5" style="mix-blend-mode: multiply;isolation: isolate">
      <g id="Group_60259" data-name="Group 60259" transform="translate(0 0)">
        <g id="Group_60258" data-name="Group 60258" clip-path="url(#clip-path-21)">
          <g id="Group_60257" data-name="Group 60257" transform="translate(0.002 0)">
            <g id="Group_60256" data-name="Group 60256" clip-path="url(#clip-path-22)">
              <rect id="Rectangle_26087" data-name="Rectangle 26087" width="101.62" height="84.49" transform="translate(10.733 109.71) rotate(-118.388)" fill="url(#linear-gradient-15)"/>
            </g>
          </g>
        </g>
      </g>
    </g>
    <g id="Group_60263" data-name="Group 60263" transform="translate(171.275 62.659)" clip-path="url(#clip-path-23)">
      <rect id="Rectangle_26090" data-name="Rectangle 26090" width="191.507" height="99.702" transform="translate(174.855 99.769) rotate(-172.781)" fill="url(#linear-gradient-16)"/>
    </g>
    <path id="Path_130699" data-name="Path 130699" d="M1423.381,253.224c3.344,9.051,15.157,17.612,23.745,19.753.235-6.581,6.776-8.661,9.215-4.779,1.312,2.087,2.9,7.1,5.122,7.409,4.323.607,9.825-4.592,11.8-6.9-3.749,9.349-12.882,18.383-25.477,22.58-32.035,7.508-36.707,7.177-65.227-6.747-26.143-12.762-33.141,1.533-51.967-.484-9.455-1.013-15.758-4.822-19.313-10.055,19.413,2.4,33.854-13.643,57.514-13.922,17.995-.213,48.205,21.882,52.269,14.042,2.447-4.72-3.685-11.84,2.323-20.9" transform="translate(-1136.433 -159.217)" fill="#401d29" fill-rule="evenodd"/>
    <path id="Path_130700" data-name="Path 130700" d="M1435.995,502.887c-.336.1-6.214,2.2-6.7,2.437-.979.477-2.131,1.1-2.9,1.38-6.426,2.306-13.776,3.02-15.1,3.844-2.286,1.425-9.458,5.275-10.777,6.963-1.122,1.434-2.1,2.554-5.445,7.1-1.619,2.2,1.686,2.732,2.091,2.557,1.948-.845,3.229-4.336,5.7-6.313a30.646,30.646,0,0,1,5.741-3.394c-2.563,2.315-4.044,3.344-5.008,4.664a32.265,32.265,0,0,0-3.412,6.534c-.819,2.069,1.1,3.125,1.806,2.423,1.68-1.659,3.266-4.888,4.76-6.82,2.5-1.285,3.647-2.283,6.458-3.683l-4.7,4.749-3.485,6.209c-1.118,2.242.9,3.159,2.153,1.934,1.391-1.365,2.7-3.833,4.076-5.785,1.512-1.012,3.633-2.937,5.762-4.639l-2.7,4.143a29.462,29.462,0,0,0-3.275,4.582c-.54,1.168.472,2.463,2.233.9,1.349-1.2,3.283-3.291,3.892-3.911,3.182-3.592,4.975-3.725,7.306-5.432,2.7-1.979,5.9-6.385,8.744-8.106,2.127-1.287,5.048-2.117,7.388-3Z" transform="translate(-1157.186 -248.885)" fill="#f0b186" fill-rule="evenodd"/>
    <g id="Group_60267" data-name="Group 60267" transform="translate(269.155 159.636)" clip-path="url(#clip-path-24)">
      <rect id="Rectangle_26092" data-name="Rectangle 26092" width="137.364" height="139.064" transform="translate(48.881 151.711) rotate(-138.34)" fill="url(#linear-gradient-17)"/>
    </g>
    <path id="Path_130702" data-name="Path 130702" d="M1437.553,408.842c.744-.418,1.341-1.046,2.083-1.465.408-.415,1.963.458,3.928,1.637l64.35,38.708c4.465,2.664,3.872,1.858,6.2,6.5q13.55,27.045,27.045,54.132c1.187,2.66,1.784,4.067,1.433,4.383l-2.19,1.546Z" transform="translate(-1286.788 -214.544)" fill="#daeafa" fill-rule="evenodd"/>
    <path id="Path_130703" data-name="Path 130703" d="M1515.473,456.586l27.046,54.131c2.239,5.013,2.376,5.576-1.967,2.779l-65.37-39.271c-4.058-2.417-3.36-2.192-5.5-6.43l-27.657-55.051c-2.566-4.476-.417-3.359,2.9-1.367l64.35,38.708c4.464,2.664,3.872,1.858,6.2,6.5" transform="translate(-1290.291 -215.393)" fill="#cce0f5" fill-rule="evenodd"/>
    <path id="Path_130704" data-name="Path 130704" d="M1533.311,452.71c.549-.2,1.591.413,2.328,1.36s.89,1.873.34,2.069-1.591-.413-2.328-1.36-.89-1.873-.34-2.069" transform="translate(-1341.563 -230.85)" fill="#cddff2" fill-rule="evenodd"/>
    <path id="Path_130705" data-name="Path 130705" d="M1534.3,453.881c.311-.11.9.233,1.316.769s.5,1.059.192,1.169-.9-.234-1.315-.768-.5-1.059-.193-1.169" transform="translate(-1341.967 -231.277)" fill="#0b4473" fill-rule="evenodd"/>
    <path id="Path_130706" data-name="Path 130706" d="M1534.712,454.375c.21-.075.608.158.89.52s.34.715.13.79-.608-.158-.89-.52-.34-.715-.13-.79" transform="translate(-1342.139 -231.457)" fill="#1989a5" fill-rule="evenodd"/>
    <path id="Path_130707" data-name="Path 130707" d="M1535.1,454.836c.116-.042.337.087.493.287s.187.4.071.437-.336-.087-.491-.287-.188-.4-.073-.437" transform="translate(-1342.299 -231.624)" fill="#daeafa" fill-rule="evenodd"/>
    <path id="Path_130708" data-name="Path 130708" d="M1339.51,282.381c.812,6.542,3.2,14.645,6.969,20.078-3.742,3.7-10.687,6.031-14.679,5.194-.7-.148-.889-2.194-1.408-2.413-.4-2.894-1.281-7.352-1.849-10.275Z" transform="translate(-1020.719 -169.689)" fill="#e7a376" fill-rule="evenodd"/>
    <path id="Path_130709" data-name="Path 130709" d="M1339.336,260.491a20.382,20.382,0,0,0,3.162,14,5.991,5.991,0,0,1,1.041,3.2c.235,5.917,1.17,7.329,4.15,10.7,2.9,3.276,3.8,5.289,5.731,5.954,1.982.682,4.115.015,5.85-.706,3.552-1.477,8.349-6.657,10.862-10.228,1.865-2.647,1.3-3.552,1.186-6.5,2.059-4.9-1.395-6.037-2.715-5.678-3.788,1.029-2.389,5.286-4,7.174-12.449-.123-22.246-13.576-25.264-17.916" transform="translate(-1053.014 -161.827)" fill="#f0b186" fill-rule="evenodd"/>
    <path id="Path_130710" data-name="Path 130710" d="M1350.658,260.491c4.047,12.475,17.893,18.59,25.264,17.916-12.449-.123-22.246-13.576-25.264-17.916" transform="translate(-1064.335 -161.827)" fill="#e7a376" fill-rule="evenodd"/>
    <path id="Path_130711" data-name="Path 130711" d="M1384.922,283.508a22.977,22.977,0,0,1-5.8-1.929c1.61,1.311,3.781,2.867,5.8,1.929" transform="translate(-1091.577 -169.401)" fill="#401c28" fill-rule="evenodd"/>
    <path id="Path_130712" data-name="Path 130712" d="M1361.488,285.37a22.9,22.9,0,0,0,6.093.458c-1.99.59-4.595,1.186-6.093-.458" transform="translate(-1062.934 -170.762)" fill="#401c28" fill-rule="evenodd"/>
    <path id="Path_130713" data-name="Path 130713" d="M1362.8,302.5a7.479,7.479,0,0,1,2.068.057,9.261,9.261,0,0,0,4.529-.647c-2.269,1.671-4.074,2.634-6.093,2.226-.29-.058-1.452-1.478-.5-1.636" transform="translate(-1065.355 -176.704)" fill="#ec8780" fill-rule="evenodd"/>
    <path id="Path_130714" data-name="Path 130714" d="M1377.221,286.959c-.135,4.33-2.8,5.735,1.346,6.771-5.063-.083-1.96-2.595-1.346-6.771" transform="translate(-1083.038 -171.333)" fill="#e7a376" fill-rule="evenodd"/>
    <path id="Path_130715" data-name="Path 130715" d="M1352.257,326.628c-4.954,12.9-1.222,18.55,2.915,26.792,5.2,10.363,3.142,23.571,1.179,35.646a42.15,42.15,0,0,1-10.514,10.834,51.629,51.629,0,0,0-4.072-14.036c2.93-6.237,5.3-15.71,4.232-22.853-1.542-10.353-7.9-20.34,3.088-37.582-.252-1.275-.593-1.7-.643-2.29-.242-2.817,2.318-2.022,3.721-1.717,1.635.354,5.86,1.733,2.469,4.181a10.729,10.729,0,0,1-2.375,1.027" transform="translate(-1041.172 -183.588)" fill="#1989a5" fill-rule="evenodd"/>
    <path id="Path_130716" data-name="Path 130716" d="M1355.222,326.628a29.639,29.639,0,0,0-2.351,11.854c-.4.148-.8.311-1.2.492-1.373.619-3.153,2.88-5.941,5.186.088-5.316,1.615-11.359,6.315-18.731-.253-1.275-.594-1.7-.643-2.29-.242-2.817,2.317-2.022,3.721-1.717,1.635.354,5.861,1.733,2.468,4.181a10.71,10.71,0,0,1-2.374,1.027" transform="translate(-1044.136 -183.588)" fill="#106e84" fill-rule="evenodd"/>
    <path id="Path_130717" data-name="Path 130717" d="M1339.756,309.487c-.024,2.907-8.43,8.227-13.488,7.673,1.173,1.039,3.4,3.7,3.832,5.61,4.4-.8,12.909-5.68,12.693-9.635-.061-1.112-.638-3.469-3.037-3.648" transform="translate(-1015.58 -179.424)" fill="#daeafa" fill-rule="evenodd"/>
    <path id="Path_130718" data-name="Path 130718" d="M1355.485,312.522a22.069,22.069,0,0,0,1.87,5.844c-3.065.02-3.885.566-5.739,2.068a12.176,12.176,0,0,1,3.869-7.912" transform="translate(-1046.38 -180.514)" fill="#daeafa" fill-rule="evenodd"/>
    <path id="Path_130719" data-name="Path 130719" d="M1668.257,296.873c-.093,10.534-7.893,15.294-17.385,10.572s-17.141-17.166-17.049-27.7,7.907-15.287,17.386-10.572,17.14,17.164,17.048,27.7m-14.621-4.315a2.687,2.687,0,0,0,1.133-2.394,7.3,7.3,0,0,0-2.63-5.284l.083-9.458a2.091,2.091,0,0,0-1.054-1.715.684.684,0,0,0-1.063.661l-.083,9.459c-1.546-.269-2.682.763-2.7,2.633a7.227,7.227,0,0,0,3.678,5.978,4.04,4.04,0,0,0,1.236.4l6.735,14.007a1.4,1.4,0,0,0,.638.671.991.991,0,0,0,.5.113c.409-.017.47-.627.207-1.164Zm-2.4-26.784c-11.176-5.558-20.362.031-20.471,12.45s8.9,27.076,20.075,32.634,20.375-.038,20.485-12.458-8.915-27.068-20.089-32.626" transform="translate(-1539.245 -162.952)" fill="#ffba00" fill-rule="evenodd"/>
    <path id="Path_130720" data-name="Path 130720" d="M1697.55,149.522l2.85,3.663-30.457,43.056-8.532-8.116-19.334,27.637,2.879,1.585c4.722-6.864,9.624-13.884,15.384-21.8l8.608,8.189,33.7-47.64,2.7,3.48,8.867-23.374Z" transform="translate(-1589.384 -117.189)" fill="#ffba00" fill-rule="evenodd"/>
    <path id="Path_130723" data-name="Path 130723" d="M1207.5,366.344a.842.842,0,0,1-1.374.784l-3.339-1.926.071,3.17-1.471-3.98-23.227-13.41-2.627,4.089.1-5.552-6.542-3.774a3.133,3.133,0,0,1-1.366-2.373l.051-17.717c0-.835.648-1.175,1.374-.754l37.033,21.38a3.022,3.022,0,0,1,1.37,2.34Zm-1.31-23-37.033-21.381c-2.15-1.244-3.908-.245-3.912,2.229l-.05,17.722a8.571,8.571,0,0,0,3.887,6.736l3.958,2.285-.282,14.7,6.931-10.864,20.158,11.638,5.78,15.6-.236-12.4.73.417c2.149,1.244,3.907.245,3.916-2.23l.049-17.722a8.585,8.585,0,0,0-3.894-6.736" transform="translate(-779.649 -183.713)" fill="#ffba00" fill-rule="evenodd"/>
    <path id="Path_130724" data-name="Path 130724" d="M1179.943,428.17c4.224,2.442,7.709.456,7.722-4.431.013-4.856-3.448-10.88-7.672-13.32-4.254-2.454-7.735-.438-7.748,4.418-.017,4.884,3.444,10.88,7.7,13.333m5.91,6.512a10.17,10.17,0,0,1,4.646,7.977l-.035,11.1-21.183-12.229.035-11.1c.009-2.939,2.142-4.064,4.67-2.6l.51.3,5.416,10.746,5.35-4.528Zm-5.928.2-2.629-5.143,5.168,2.984Z" transform="translate(-762.677 -215.299)" fill="#ffba00" fill-rule="evenodd"/>
    <path id="Path_130725" data-name="Path 130725" d="M1222.7,422.961l-.43-.249-4.161,3.452-4.046-8.19-.43-.249c-1.939-1.117-3.557-.228-3.567,2.031l-.025,8.38,16.095,9.291.025-8.38a7.816,7.816,0,0,0-3.461-6.087m-4.57-4.992a12.87,12.87,0,0,1-5.821-10.083c.013-3.71,2.631-5.236,5.864-3.368a12.863,12.863,0,0,1,5.818,10.113c-.008,3.68-2.627,5.2-5.86,3.338m-.011,5.165-1.932-3.934,3.9,2.256Z" transform="translate(-824.461 -213.269)" fill="#ffba00" fill-rule="evenodd"/>
    <path id="Path_130726" data-name="Path 130726" d="M1544.639,369.322l-16.844-8.764c-.541-.29-.975-.04-.982.538l-.032,2.951a1.937,1.937,0,0,0,.958,1.577l16.843,8.765c.531.285.965.046.97-.544l.033-2.95a1.956,1.956,0,0,0-.947-1.572m-.27,8.491a1.953,1.953,0,0,1,.947,1.572l-.01.886c-.006.578-.441.828-.972.543l-12.014-6.5a1.957,1.957,0,0,1-.959-1.578l.01-.886c.007-.576.441-.827.983-.536Z" transform="translate(-1346.865 -197.723)" fill="#ffba00" fill-rule="evenodd"/>
    <path id="Path_130727" data-name="Path 130727" d="M1472.358,357.744q28.713,14.847,57.437,29.674l1.082.558,0-46.279-58.918-30.5,0,1.986v44.349Zm56.31,26.692-26.143-13.525V351.4l26.133,13.526Zm0-21.951-26.143-13.526,0-19.5,26.135,13.534Zm-28.357,7.271-26.143-13.525V336.72l26.135,13.534Zm0-21.943-26.142-13.525,0-19.5,26.134,13.527Z" transform="translate(-1297.021 -180.04)" fill="#ffba00" fill-rule="evenodd"/>
    <path id="Path_130728" data-name="Path 130728" d="M1543.46,335.23c.414.205.67.82.469,1.121l-6.848,10.318a.351.351,0,0,1-.477.074,1,1,0,0,1-.43-.457l-6.282-12.7c-.263-.524,0-.956.443-.736l2.457,1.22a1.037,1.037,0,0,1,.437.465l2.6,5.257a1.014,1.014,0,0,0,.433.459.347.347,0,0,0,.475-.074l3.992-5.994a.352.352,0,0,1,.475-.071Z" transform="translate(-1347.204 -187.793)" fill="#ffba00" fill-rule="evenodd"/>
    <path id="Path_130729" data-name="Path 130729" d="M1498.245,394.959l-2.895-1.435a2.135,2.135,0,0,1-1.021-1.339l-.864-3.511a2.072,2.072,0,0,0-1.018-1.337c-.431-.215-.867-.154-1.032.318l-.918,2.622c-.146.426-.564.554-1.031.32l-2.9-1.444c-1.049-.526-1.5.744-.654,1.849l2.33,3.056a1.763,1.763,0,0,1,.378,1.532l-.925,2.617a1.974,1.974,0,0,0,1.014,2.085.845.845,0,0,0,.633.078l2.355-.734a.858.858,0,0,1,.636.085,1.863,1.863,0,0,1,.633.545l2.325,3.064a1.854,1.854,0,0,0,.63.55c.674.335,1.281-.1,1.041-1.063l-.875-3.513c-.138-.564.025-1.027.406-1.142l2.362-.722c.851-.261.431-1.96-.615-2.48" transform="translate(-1274.125 -207.342)" fill="#ffba00" fill-rule="evenodd"/>
    <path id="Path_130730" data-name="Path 130730" d="M1502.868,132.987a14.571,14.571,0,0,1,2.612,1.8,21.765,21.765,0,0,1,6.818,11.774c1.688,8.451-3.305,12.835-9.466,9.59a14.49,14.49,0,0,1-2.592-1.782,21.828,21.828,0,0,1-6.852-11.756c-1.714-8.491,3.307-12.878,9.479-9.624m13.784,14.855-.434-.216a3.021,3.021,0,0,1-1.436-1.865q-.207-.766-.471-1.532c-.278-.793-.158-1.514.31-1.8l.315-.192c.6-.375.61-1.459.02-2.426l-2.339-3.8a2.8,2.8,0,0,0-1.088-1.048,1.128,1.128,0,0,0-1.1-.039l-.315.191a1.111,1.111,0,0,1-1.084-.04,2.521,2.521,0,0,1-.676-.508q-.563-.582-1.158-1.114a3.015,3.015,0,0,1-1.017-2.12l0-.484a3,3,0,0,0-1.526-2.489l-3.337-1.66a.991.991,0,0,0-1.557.957l0,.484c-.006.725-.428,1.159-1.054,1.09a9.617,9.617,0,0,0-1.157-.037,1.441,1.441,0,0,1-.679-.166,2.768,2.768,0,0,1-1.077-1.035l-.309-.5a2.811,2.811,0,0,0-1.089-1.048,1.131,1.131,0,0,0-1.1-.038l-2.386,1.452c-.6.376-.61,1.459-.021,2.427l.309.5a2.187,2.187,0,0,1,.276,2.09,8.664,8.664,0,0,0-.494,1.052.961.961,0,0,1-1.456.425l-.434-.216a.991.991,0,0,0-1.556.957l-.033,3.709a3,3,0,0,0,1.526,2.479l.436.217a3.032,3.032,0,0,1,1.436,1.864q.206.768.47,1.532c.277.8.157,1.524-.311,1.808l-.315.192c-.6.366-.61,1.459-.021,2.417l2.34,3.8a2.807,2.807,0,0,0,1.087,1.048,1.126,1.126,0,0,0,1.1.037l.314-.18a1.115,1.115,0,0,1,1.086.04,2.549,2.549,0,0,1,.675.509c.377.377.753.744,1.148,1.1a3.059,3.059,0,0,1,1.026,2.136l0,.483a3,3,0,0,0,1.526,2.481l3.337,1.659a.99.99,0,0,0,1.557-.946l0-.484c.006-.725.429-1.16,1.054-1.1.39.035.779.049,1.158.048a1.455,1.455,0,0,1,.679.165,2.777,2.777,0,0,1,1.077,1.034l.308.492a2.8,2.8,0,0,0,1.087,1.048,1.127,1.127,0,0,0,1.1.039l2.386-1.451c.6-.367.612-1.459.021-2.417l-.309-.5a2.207,2.207,0,0,1-.274-2.1,9.2,9.2,0,0,0,.492-1.054.963.963,0,0,1,1.457-.426l.434.217a.99.99,0,0,0,1.557-.947l.031-3.709a3,3,0,0,0-1.525-2.491" transform="translate(-1294.288 -113.623)" fill="#ffba00" fill-rule="evenodd"/>
    <path id="Path_130731" data-name="Path 130731" d="M1257.007,137.075l-60.486-30.191a3.252,3.252,0,0,0-1.4-.354,2.563,2.563,0,0,0-1.363.364,2.526,2.526,0,0,0-.954,1.045l-.006.005a3.2,3.2,0,0,0-.313,1.37l-.744,46.988a5.42,5.42,0,0,0,2.8,4.6l60.487,30.2a3.257,3.257,0,0,0,1.381.351,2.484,2.484,0,0,0,2.309-1.407,3.174,3.174,0,0,0,.326-1.407l.743-46.99a5.386,5.386,0,0,0-2.778-4.569m-61.653-27.847,60.486,30.191a2.8,2.8,0,0,1,1.333,2.183l-.743,46.99a.771.771,0,0,1-.036.238.827.827,0,0,1-.2-.074l-60.487-30.2a2.468,2.468,0,0,1-.944-.948,2.524,2.524,0,0,1-.408-1.269l.743-46.988a.739.739,0,0,1,.029-.21.845.845,0,0,1,.229.083" transform="translate(-846.357 -106.531)" fill="#ffba00" fill-rule="evenodd"/>
    <path id="Path_130732" data-name="Path 130732" d="M1262.884,172.605l-30.132-15.257c-1.076-.538-1.954.015-1.973,1.257a3.765,3.765,0,0,0,1.9,3.15l30.128,15.257a1.279,1.279,0,0,0,1.994-1.248,3.811,3.811,0,0,0-1.922-3.159m.45-28.566L1233.2,128.783a1.259,1.259,0,0,0-1.969,1.214l-.051,3.081a3.777,3.777,0,0,0,1.9,3.15l30.133,15.257a1.27,1.27,0,0,0,1.99-1.206l.047-3.082a3.805,3.805,0,0,0-1.921-3.158m-.255,16.068a3.78,3.78,0,0,1,1.924,3.139c-.022,1.263-.918,1.784-1.992,1.247l-30.132-15.257a3.736,3.736,0,0,1-1.9-3.127c.021-1.262.9-1.794,1.973-1.259Z" transform="translate(-876.844 -114.449)" fill="#ffba00" fill-rule="evenodd"/>
    <path id="Path_130733" data-name="Path 130733" d="M1215.61,156.564c.395.2.639.781.447,1.069l-6.524,9.829a.335.335,0,0,1-.455.071.965.965,0,0,1-.41-.436l-5.984-12.1c-.251-.5,0-.911.422-.7l2.34,1.162a.985.985,0,0,1,.417.442l2.475,5.008a.964.964,0,0,0,.412.436.33.33,0,0,0,.452-.07l3.8-5.709a.334.334,0,0,1,.452-.068Z" transform="translate(-809.644 -123.665)" fill="#ffba00" fill-rule="evenodd"/>
    <path id="Path_130734" data-name="Path 130734" d="M1217.053,179.165c.394.2.638.781.447,1.069l-6.524,9.829a.337.337,0,0,1-.456.071.961.961,0,0,1-.409-.436l-5.985-12.1c-.25-.5,0-.911.422-.7l2.34,1.162a.992.992,0,0,1,.416.442l2.475,5.008a.968.968,0,0,0,.413.436.329.329,0,0,0,.452-.07l3.8-5.709a.335.335,0,0,1,.453-.067Z" transform="translate(-812.01 -131.782)" fill="#ffba00" fill-rule="evenodd"/>
    <path id="Path_130735" data-name="Path 130735" d="M1612.582,540.528c-8.789-4.372-15.939,1.525-13.5,12.937a29.033,29.033,0,0,0,9.757,15.8,20.686,20.686,0,0,0,3.689,2.395c8.774,4.363,15.885-1.531,13.481-12.89a28.945,28.945,0,0,0-9.709-15.826,20.9,20.9,0,0,0-3.72-2.416" transform="translate(-1473.787 -261.885)" fill="#ffba00" fill-rule="evenodd"/>
    <path id="Path_130736" data-name="Path 130736" d="M1625.006,556.519c.516.256.835,1.022.585,1.4l-8.531,12.853a.438.438,0,0,1-.595.092,1.254,1.254,0,0,1-.535-.57l-7.827-15.825c-.326-.653,0-1.191.552-.916l3.06,1.519a1.291,1.291,0,0,1,.544.579l3.236,6.548a1.263,1.263,0,0,0,.54.571.431.431,0,0,0,.591-.092l4.973-7.466a.439.439,0,0,1,.592-.088Z" transform="translate(-1478.988 -267.055)" fill="#fffcf1" fill-rule="evenodd"/>
    <path id="Path_130737" data-name="Path 130737" d="M1169.18,569.027a12.351,12.351,0,0,1,2.208,1.519,18.4,18.4,0,0,1,5.762,9.951c1.427,7.142-2.793,10.847-8,8.1a12.23,12.23,0,0,1-2.19-1.506,18.444,18.444,0,0,1-5.791-9.934c-1.448-7.175,2.8-10.883,8.011-8.134m11.649,12.554-.367-.183a2.552,2.552,0,0,1-1.214-1.577q-.175-.647-.4-1.294c-.235-.67-.133-1.28.262-1.521l.266-.162c.508-.317.516-1.232.017-2.051l-1.976-3.213a2.369,2.369,0,0,0-.92-.886.952.952,0,0,0-.927-.033l-.266.162a.942.942,0,0,1-.917-.035,2.132,2.132,0,0,1-.571-.429q-.477-.491-.978-.941a2.548,2.548,0,0,1-.86-1.792l0-.409a2.533,2.533,0,0,0-1.289-2.1l-2.82-1.4a.837.837,0,0,0-1.315.809l0,.409c-.005.612-.361.979-.891.921a8.185,8.185,0,0,0-.977-.032,1.211,1.211,0,0,1-.574-.14,2.337,2.337,0,0,1-.91-.875l-.261-.424a2.363,2.363,0,0,0-.92-.886.957.957,0,0,0-.927-.033l-2.016,1.227c-.508.318-.515,1.233-.018,2.051l.261.424a1.849,1.849,0,0,1,.234,1.766,7.389,7.389,0,0,0-.418.89.811.811,0,0,1-1.23.36l-.367-.182a.838.838,0,0,0-1.316.809l-.027,3.134a2.534,2.534,0,0,0,1.29,2.095l.368.184a2.557,2.557,0,0,1,1.214,1.575q.175.65.4,1.3c.235.679.133,1.289-.262,1.528l-.267.163c-.508.309-.516,1.233-.018,2.042l1.978,3.214a2.376,2.376,0,0,0,.919.886.951.951,0,0,0,.927.031l.266-.152a.942.942,0,0,1,.918.033,2.145,2.145,0,0,1,.571.431c.319.319.636.629.97.929a2.582,2.582,0,0,1,.866,1.8l0,.408a2.535,2.535,0,0,0,1.291,2.1l2.819,1.4a.837.837,0,0,0,1.316-.8l0-.408c.005-.613.362-.98.891-.931.329.029.657.042.978.04a1.229,1.229,0,0,1,.573.14,2.347,2.347,0,0,1,.91.874l.261.416a2.379,2.379,0,0,0,.919.885.951.951,0,0,0,.927.033l2.016-1.226c.508-.309.517-1.232.017-2.042l-.261-.425a1.863,1.863,0,0,1-.232-1.774,7.872,7.872,0,0,0,.417-.89.813.813,0,0,1,1.23-.36l.368.183a.836.836,0,0,0,1.315-.8l.027-3.134a2.533,2.533,0,0,0-1.289-2.1" transform="translate(-745.912 -270.604)" fill="#ffba00" fill-rule="evenodd"/>
  </g>
</svg>
