<svg xmlns="http://www.w3.org/2000/svg" xmlns:xlink="http://www.w3.org/1999/xlink" width="900" height="900" viewBox="0 0 900 900">
  <defs>
    <linearGradient id="linear-gradient" x1="0.055" y1="0.432" x2="0.631" y2="0.422" gradientUnits="objectBoundingBox">
      <stop offset="0" stop-color="#e5e8f1" stop-opacity="0.525"/>
      <stop offset="1" stop-color="#d9deeb"/>
    </linearGradient>
  </defs>
  <path id="Subtraction_1" data-name="Subtraction 1" d="M450,900a457.221,457.221,0,0,1-46.01-2.323,451.162,451.162,0,0,1-44.681-6.819c-14.5-2.967-29.007-6.7-43.125-11.089-13.96-4.342-27.871-9.433-41.344-15.132A451.315,451.315,0,0,1,35.363,625.16c-5.7-13.474-10.79-27.384-15.132-41.344C15.84,569.7,12.109,555.188,9.142,540.691A451.129,451.129,0,0,1,2.323,496.01a456.738,456.738,0,0,1,0-92.02,451.151,451.151,0,0,1,6.819-44.681c2.967-14.5,6.7-29.007,11.089-43.125,4.342-13.96,9.433-27.871,15.132-41.344A451.315,451.315,0,0,1,274.84,35.363c13.474-5.7,27.384-10.79,41.344-15.132,14.119-4.391,28.628-8.122,43.125-11.089A451.151,451.151,0,0,1,403.99,2.323a456.738,456.738,0,0,1,92.02,0,451.129,451.129,0,0,1,44.681,6.819c14.5,2.967,29.007,6.7,43.126,11.089,13.96,4.342,27.87,9.433,41.344,15.132A451.314,451.314,0,0,1,864.637,274.84c5.7,13.474,10.79,27.384,15.132,41.344,4.391,14.119,8.122,28.628,11.089,43.125a451.162,451.162,0,0,1,6.819,44.681,456.744,456.744,0,0,1,0,92.02,451.137,451.137,0,0,1-6.819,44.681c-2.967,14.5-6.7,29.007-11.089,43.126-4.342,13.96-9.433,27.87-15.132,41.344A451.314,451.314,0,0,1,625.16,864.637c-13.474,5.7-27.384,10.79-41.344,15.132-14.119,4.391-28.628,8.122-43.126,11.089a451.137,451.137,0,0,1-44.681,6.819A457.221,457.221,0,0,1,450,900Zm0-805a360.728,360.728,0,0,0-36.3,1.833A354.469,354.469,0,0,0,96.833,413.7a360.331,360.331,0,0,0,0,72.594A354.469,354.469,0,0,0,413.7,803.167a360.322,360.322,0,0,0,72.594,0A354.469,354.469,0,0,0,803.167,486.3a360.322,360.322,0,0,0,0-72.594A354.469,354.469,0,0,0,486.3,96.833,360.728,360.728,0,0,0,450,95Z" fill="url(#linear-gradient)"/>
</svg>
