<svg xmlns="http://www.w3.org/2000/svg" width="70.183" height="67.927" viewBox="0 0 70.183 67.927">
  <g id="Group_65378" data-name="Group 65378" transform="translate(-13 -20.812)">
    <path id="Path_138778" data-name="Path 138778" d="M82.607,25.922a.578.578,0,0,0,.578-.578V21.39a.578.578,0,0,0-.578-.578H36.926a.578.578,0,0,0-.578.578v3.955a.578.578,0,0,0,.578.578h1.433V41.695l-.2.152-8.821-.027c2.126-1.59,3.247-4.622,3.247-7.529a6.662,6.662,0,0,0-13.324,0c0,2.383.918,5.759,3.2,7.508l-1.634-.005H20.8a7.618,7.618,0,0,0-5.382,2.3A7.969,7.969,0,0,0,13,49.657V64.924a3.08,3.08,0,0,0,2.791,3.093,3.01,3.01,0,0,0,2.118-.645V87.583a1.155,1.155,0,0,0,1.155,1.155h13.17a1.155,1.155,0,0,0,1.155-1.155V49.945l4.969-1.3V62.014H36.926a.578.578,0,0,0-.578.578v3.959a.578.578,0,0,0,.578.578H51.743l-5.6,20.883a.579.579,0,0,0,.264.648.6.6,0,0,0,.31.079H50.8a.577.577,0,0,0,.558-.428l5.676-21.182H62.5L68.173,88.31a.577.577,0,0,0,.558.428h4.08a.6.6,0,0,0,.31-.079.579.579,0,0,0,.264-.648l-5.6-20.883H82.607a.578.578,0,0,0,.578-.578V62.591a.578.578,0,0,0-.578-.578H81.174V25.922h1.433Z" transform="translate(-0.002 0)" fill="#e9edf1"/>
    <path id="Path_138779" data-name="Path 138779" d="M257.071,163.95h-1.458V147.6a.578.578,0,0,0-.578-.578h-4.309a.578.578,0,0,0-.578.578v16.35h-1.613V152.4a.578.578,0,0,0-.578-.578H243.65a.578.578,0,0,0-.578.578V163.95h-1.613v-8.478a.578.578,0,0,0-.578-.578h-4.309a.578.578,0,0,0-.578.578v8.478h-1.613v-5.864a.578.578,0,0,0-.578-.578H229.5a.578.578,0,0,0-.578.578v5.864h-1.458a1.155,1.155,0,0,0,0,2.311h29.612a1.155,1.155,0,1,0,0-2.311Z" transform="translate(-182.501 -107.984)" fill="#5f849b"/>
    <path id="Path_138780" data-name="Path 138780" d="M49.175,128.87a3.17,3.17,0,0,0-4.431-.617l-6.589,4.974-8.821-.027a5.763,5.763,0,0,1-6.88-.021l-1.634-.005H20.8a7.618,7.618,0,0,0-5.382,2.3A7.969,7.969,0,0,0,13,141.037v15.337a3.027,3.027,0,0,0,4.908,2.379v20.211a1.155,1.155,0,0,0,1.155,1.155h13.17a1.155,1.155,0,0,0,1.155-1.155V141.325l6.948-1.814,8.217-6.209a3.167,3.167,0,0,0,.621-4.431Z" transform="translate(0 -91.38)" fill="#83d9ff"/>
    <path id="Path_138781" data-name="Path 138781" d="M169.351,142.005l-8.217,6.209-6.948,1.814v2.527l6.948-1.814,8.217-6.209a3.168,3.168,0,0,0,.992-3.79,3.143,3.143,0,0,1-.992,1.262Z" transform="translate(-120.798 -102.612)" fill="#62cef4"/>
    <path id="Path_138782" data-name="Path 138782" d="M32.143,234.029a1.155,1.155,0,0,0-1.155,1.155v15.234a2.959,2.959,0,0,0,2.311-.62V235.184a1.155,1.155,0,0,0-1.155-1.155Z" transform="translate(-15.39 -182.427)" fill="#62cef4"/>
    <path id="Path_138783" data-name="Path 138783" d="M62.988,68.033a6.667,6.667,0,0,0-6.66,6.66c0,3.347,1.808,8.658,6.66,8.658,4.329,0,6.664-4.461,6.664-8.658A6.669,6.669,0,0,0,62.988,68.033Z" transform="translate(-37.071 -40.402)" fill="#fedfc5"/>
    <path id="Path_138784" data-name="Path 138784" d="M95.989,68.033a6.675,6.675,0,0,0-1.083.089,6.671,6.671,0,0,1,5.581,6.57c0,3.834-1.95,7.887-5.588,8.559a6.09,6.09,0,0,0,1.09.1c4.328,0,6.664-4.461,6.664-8.658A6.669,6.669,0,0,0,95.989,68.033Z" transform="translate(-70.072 -40.402)" fill="#fecbaa"/>
    <rect id="Rectangle_26445" data-name="Rectangle 26445" width="46.836" height="5.11" rx="2.555" transform="translate(36.346 20.812)" fill="#ffae85"/>
    <rect id="Rectangle_26446" data-name="Rectangle 26446" width="46.836" height="5.114" rx="2.557" transform="translate(36.346 62.014)" fill="#ffae85"/>
    <path id="Path_138785" data-name="Path 138785" d="M220.927,20.812H175.246a.578.578,0,0,0-.578.578v.748h44.883a.578.578,0,0,1,.578.578v3.207h.8a.578.578,0,0,0,.578-.578V21.39A.578.578,0,0,0,220.927,20.812Z" transform="translate(-138.322)" fill="#ea9e7d"/>
    <path id="Path_138786" data-name="Path 138786" d="M220.927,306.125H175.246a.578.578,0,0,0-.578.578v.748h44.883a.578.578,0,0,1,.578.578v3.211h.8a.578.578,0,0,0,.578-.578V306.7A.578.578,0,0,0,220.927,306.125Z" transform="translate(-138.322 -244.111)" fill="#ea9e7d"/>
    <g id="Group_65377" data-name="Group 65377" transform="translate(46.78 29.66)">
      <path id="Path_138787" data-name="Path 138787" d="M249.626,84.391H248.16a1.155,1.155,0,1,1,0-2.311h1.465a1.155,1.155,0,1,1,0,2.311Z" transform="translate(-246.993 -82.08)" fill="#5f849b"/>
      <path id="Path_138788" data-name="Path 138788" d="M282.423,84.391H278.63a1.155,1.155,0,1,1,0-2.311h3.793a1.155,1.155,0,1,1,0,2.311Z" transform="translate(-273.062 -82.08)" fill="#5f849b"/>
      <path id="Path_138789" data-name="Path 138789" d="M256.279,108.635h-8.205a1.155,1.155,0,0,1,0-2.311h8.205a1.155,1.155,0,0,1,0,2.311Z" transform="translate(-246.919 -102.823)" fill="#5f849b"/>
      <path id="Path_138790" data-name="Path 138790" d="M271.733,82.08H268.89a1.155,1.155,0,0,0,0,2.311h.055l-6.579,6.582-2.8-2.413a1.155,1.155,0,0,0-1.516.006l-10.741,9.417a1.155,1.155,0,1,0,1.523,1.737l9.985-8.754,2.849,2.458a1.155,1.155,0,0,0,1.572-.058l7.336-7.339v.053a1.155,1.155,0,0,0,2.311,0V83.235a1.155,1.155,0,0,0-1.155-1.155Z" transform="translate(-246.919 -82.08)" fill="#5f849b"/>
    </g>
    <path id="Path_138791" data-name="Path 138791" d="M46.988,307.24v20.211a1.155,1.155,0,0,0,1.155,1.155h13.17a1.155,1.155,0,0,0,1.155-1.155V301.165H46.988Z" transform="translate(-29.08 -239.868)" fill="#4f7693"/>
    <path id="Path_138792" data-name="Path 138792" d="M93.757,336.027a1.155,1.155,0,0,0-1.155,1.155v21.251h2.311V337.182A1.155,1.155,0,0,0,93.757,336.027Z" transform="translate(-68.107 -269.695)" fill="#38627c"/>
    <path id="Path_138793" data-name="Path 138793" d="M83.207,173.3a2.354,2.354,0,0,0,.665-.766,2.488,2.488,0,0,0-.086-2.06,5.871,5.871,0,0,1-4.566-.164c-.029.032-.058.063-.085.1a2.44,2.44,0,0,0-.13,2.125,2.357,2.357,0,0,0,.666.768l-1.458,10.25a.577.577,0,0,0,.146.472l2.656,2.893a.577.577,0,0,0,.425.187h0a.578.578,0,0,0,.426-.187l2.652-2.893a.577.577,0,0,0,.146-.472L83.206,173.3Z" transform="translate(-55.791 -127.909)" fill="#43a3f9"/>
    <path id="Path_138794" data-name="Path 138794" d="M248,341.541l-5.6,20.883a.577.577,0,0,0,.558.727h4.1a.577.577,0,0,0,.558-.428l5.676-21.182Z" transform="translate(-196.261 -274.413)" fill="#ea9e7d"/>
    <path id="Path_138795" data-name="Path 138795" d="M361.039,341.541h-5.292l5.676,21.182a.578.578,0,0,0,.558.428h4.1a.577.577,0,0,0,.558-.727Z" transform="translate(-293.251 -274.413)" fill="#ea9e7d"/>
    <path id="Path_138796" data-name="Path 138796" d="M268.122,341.541l-.241.9h3.571l-5.55,20.711h1.278a.577.577,0,0,0,.558-.428l5.676-21.182h-5.292Z" transform="translate(-216.381 -274.413)" fill="#e59173"/>
    <path id="Path_138797" data-name="Path 138797" d="M366.636,362.423l-5.6-20.883h-5.292l.241.9h3.522l5.55,20.711h1.017a.577.577,0,0,0,.558-.727Z" transform="translate(-293.252 -274.412)" fill="#e59173"/>
    <path id="Path_138798" data-name="Path 138798" d="M396.891,147.6a.578.578,0,0,0-.578-.578H392a.578.578,0,0,0-.578.578v16.35h5.464Z" transform="translate(-323.779 -107.984)" fill="#69d998"/>
    <path id="Path_138799" data-name="Path 138799" d="M347.883,180.81a.578.578,0,0,0-.578-.578H343a.578.578,0,0,0-.578.578v11.555h5.464Z" transform="translate(-281.848 -136.398)" fill="#43a3f9"/>
    <path id="Path_138800" data-name="Path 138800" d="M298.875,202.115a.578.578,0,0,0-.578-.578h-4.309a.578.578,0,0,0-.578.578v8.478h5.464Z" transform="translate(-239.917 -154.627)" fill="#ffb14c"/>
    <path id="Path_138801" data-name="Path 138801" d="M249.867,220.219a.578.578,0,0,0-.578-.578h-4.309a.578.578,0,0,0-.578.578v5.864h5.464Z" transform="translate(-197.986 -170.116)" fill="#ff84a7"/>
    <path id="Path_138802" data-name="Path 138802" d="M318.692,201.537h-1.444a.578.578,0,0,1,.578.578v8.478h1.444v-8.478A.578.578,0,0,0,318.692,201.537Z" transform="translate(-260.312 -154.627)" fill="#f7a041"/>
    <path id="Path_138803" data-name="Path 138803" d="M269.684,219.641H268.24a.578.578,0,0,1,.578.578v5.864h1.444v-5.864A.578.578,0,0,0,269.684,219.641Z" transform="translate(-218.381 -170.116)" fill="#f4739e"/>
    <path id="Path_138804" data-name="Path 138804" d="M367.7,180.232h-1.444a.578.578,0,0,1,.578.578v11.555h1.444V180.81A.578.578,0,0,0,367.7,180.232Z" transform="translate(-302.243 -136.398)" fill="#3399e5"/>
    <path id="Path_138805" data-name="Path 138805" d="M416.708,147.022h-1.444a.578.578,0,0,1,.578.578v16.35h1.444V147.6A.578.578,0,0,0,416.708,147.022Z" transform="translate(-344.174 -107.984)" fill="#57ce87"/>
  </g>
</svg>
