<svg xmlns="http://www.w3.org/2000/svg" width="65.989" height="66.046" viewBox="0 0 65.989 66.046">
  <g id="Group_65381" data-name="Group 65381" transform="translate(-0.221)">
    <path id="Path_138806" data-name="Path 138806" d="M42.577,0H6.682A6.468,6.468,0,0,0,.221,6.461v40.2a2.238,2.238,0,0,0,.632,1.524L18.08,65.414a2.183,2.183,0,0,0,1.524.632H42.577a6.468,6.468,0,0,0,6.461-6.461V6.461A6.468,6.468,0,0,0,42.577,0Z" transform="translate(0)" fill="#ffeacc"/>
    <path id="Path_138807" data-name="Path 138807" d="M207.385,0H189.438V66.046h17.947a6.468,6.468,0,0,0,6.461-6.461V6.461A6.468,6.468,0,0,0,207.385,0Z" transform="translate(-164.809)" fill="#ffd9b3"/>
    <g id="Group_65379" data-name="Group 65379" transform="translate(8.836 12.922)">
      <path id="Path_138808" data-name="Path 138808" d="M96.437,104.48H69.157a2.154,2.154,0,1,1,0-4.307h27.28a2.154,2.154,0,1,1,0,4.307Z" transform="translate(-67.003 -100.173)" fill="#f37b2a"/>
      <path id="Path_138809" data-name="Path 138809" d="M96.437,171.263H69.157a2.154,2.154,0,1,1,0-4.307h27.28a2.154,2.154,0,1,1,0,4.307Z" transform="translate(-67.003 -158.341)" fill="#f37b2a"/>
      <path id="Path_138810" data-name="Path 138810" d="M96.437,238.045H69.157a2.154,2.154,0,1,1,0-4.307h27.28a2.154,2.154,0,0,1,0,4.307Z" transform="translate(-67.003 -216.509)" fill="#f37b2a"/>
    </g>
    <path id="Path_138811" data-name="Path 138811" d="M13.365,367.3H1.3a2.208,2.208,0,0,0,.493.806L19.02,385.337a2.13,2.13,0,0,0,.806.49V373.765A6.461,6.461,0,0,0,13.365,367.3Z" transform="translate(-0.94 -319.923)" fill="#ffd9b3"/>
    <g id="Group_65380" data-name="Group 65380" transform="translate(24.629 12.922)">
      <path id="Path_138812" data-name="Path 138812" d="M203.078,233.739h-13.64v4.307h13.64a2.154,2.154,0,1,0,0-4.307Z" transform="translate(-189.438 -216.51)" fill="#e56722"/>
      <path id="Path_138813" data-name="Path 138813" d="M203.078,166.957h-13.64v4.307h13.64a2.154,2.154,0,1,0,0-4.307Z" transform="translate(-189.438 -158.342)" fill="#e56722"/>
      <path id="Path_138814" data-name="Path 138814" d="M203.078,100.174h-13.64v4.307h13.64a2.154,2.154,0,1,0,0-4.307Z" transform="translate(-189.438 -100.174)" fill="#e56722"/>
    </g>
    <path id="Path_138815" data-name="Path 138815" d="M284.576,180.946l-19.383,19.383a2.831,2.831,0,0,1-.886.55h-3.589l-5.209-5.209v-3.588a2.9,2.9,0,0,1,.55-.887l19.383-19.383a2.153,2.153,0,0,1,3.045,0l6.089,6.089A2.153,2.153,0,0,1,284.576,180.946Z" transform="translate(-222.357 -149.099)" fill="#3aace6"/>
    <path id="Path_138816" data-name="Path 138816" d="M411.512,147.151a6.648,6.648,0,0,1-.667,8.808l-3.479,3.479-9.133-9.133,3.676-3.676A6.466,6.466,0,0,1,411.512,147.151Z" transform="translate(-346.669 -126.069)" fill="#fc3"/>
    <path id="Path_138817" data-name="Path 138817" d="M222.2,333.2l-4.748,10.7a2.154,2.154,0,0,0,2.842,2.842l10.7-4.748Z" transform="translate(-189.044 -290.218)" fill="#ffeacc"/>
    <path id="Path_138818" data-name="Path 138818" d="M219.549,379.462l-2.1,4.737a2.154,2.154,0,0,0,2.842,2.842l4.737-2.1Z" transform="translate(-189.044 -330.513)" fill="#a6673a"/>
  </g>
</svg>
