<svg xmlns="http://www.w3.org/2000/svg" width="70.354" height="69.162" viewBox="0 0 70.354 69.162">
  <g id="Group_65382" data-name="Group 65382" transform="translate(-1 -1)">
    <path id="Path_138819" data-name="Path 138819" d="M53,50.347s-5.962-1.192-7.155-7.155V42H29.155v1.192C27.962,49.155,22,50.347,22,50.347V51.54H53Z" transform="translate(4.041 7.89)" fill="#b5bbc6"/>
    <path id="Path_138820" data-name="Path 138820" d="M67.106,37.192V40.77a3.577,3.577,0,0,1-3.577,3.577h-44.9L16.88,37.192,17.023,36h48.89Z" transform="translate(3.056 6.735)" fill="#ccd0da"/>
    <path id="Path_138821" data-name="Path 138821" d="M68.237,4.577V43.928H18.012L11,15.369V4.577A3.577,3.577,0,0,1,14.577,1H64.66a3.577,3.577,0,0,1,3.577,3.577Z" transform="translate(1.924 0)" fill="#383838"/>
    <path id="Path_138822" data-name="Path 138822" d="M15,14.54V6.192A1.192,1.192,0,0,1,16.192,5H61.505A1.192,1.192,0,0,1,62.7,6.192v31a1.192,1.192,0,0,1-1.192,1.192H22.155Z" transform="translate(2.694 0.77)" fill="#494949"/>
    <path id="Path_138823" data-name="Path 138823" d="M21.35,49H56.706A1.192,1.192,0,0,1,57.9,50.192a3.577,3.577,0,0,1-3.577,3.577H26.489" transform="translate(3.916 9.237)" fill="#ccd0da"/>
    <path id="Path_138824" data-name="Path 138824" d="M32,24.924v5.962l-9.54,9.54H10.54L1,30.887V24.924A11.924,11.924,0,0,1,12.924,13H24.348a1.693,1.693,0,0,1,1.538,2.385,1.516,1.516,0,0,1-.346.5L23.656,17.77h1.192A7.155,7.155,0,0,1,32,24.924Z" transform="translate(0 2.309)" fill="#80624b"/>
    <path id="Path_138825" data-name="Path 138825" d="M11,42h7.155v8.347H11Z" transform="translate(1.924 7.89)" fill="#e2ac7f"/>
    <path id="Path_138826" data-name="Path 138826" d="M6.331,30.631a11.531,11.531,0,0,0,20.341,0,4.935,4.935,0,0,0,.562-2.258,2.385,2.385,0,0,1,4.77.012v3.577a3.577,3.577,0,0,1-3.577,3.577,11.924,11.924,0,0,1-23.849,0A3.577,3.577,0,0,1,1,31.962V28.385a2.385,2.385,0,0,1,4.77-.012,4.935,4.935,0,0,0,.562,2.258Z" transform="translate(0 4.811)" fill="#eebd91"/>
    <path id="Path_138827" data-name="Path 138827" d="M20.079,48A11.924,11.924,0,0,1,32,59.924a1.192,1.192,0,0,1-1.192,1.192H2.192A1.192,1.192,0,0,1,1,59.924,11.924,11.924,0,0,1,12.924,48Z" transform="translate(0 9.045)" fill="#2783ec"/>
    <path id="Path_138828" data-name="Path 138828" d="M23.192,15a1.516,1.516,0,0,1-.346.5l-1.884,1.884h-4.77a1.192,1.192,0,1,1,0-2.385Z" transform="translate(2.694 2.694)" fill="#725542"/>
    <path id="Path_138829" data-name="Path 138829" d="M20.385,10.385H19.192a1.192,1.192,0,0,1,0-2.385h1.192a1.192,1.192,0,1,1,0,2.385Z" transform="translate(3.272 1.347)" fill="#f0f2f5"/>
    <path id="Path_138830" data-name="Path 138830" d="M42.079,10.385H24.192a1.192,1.192,0,0,1,0-2.385H42.079a1.192,1.192,0,0,1,0,2.385Z" transform="translate(4.234 1.347)" fill="#a696f0"/>
    <path id="Path_138831" data-name="Path 138831" d="M46.77,10.385H43.192a1.192,1.192,0,0,1,0-2.385H46.77a1.192,1.192,0,0,1,0,2.385Z" transform="translate(7.89 1.347)" fill="#3fdab1"/>
    <path id="Path_138832" data-name="Path 138832" d="M40.732,30.385h-9.54a1.192,1.192,0,0,1,0-2.385h9.54a1.192,1.192,0,0,1,0,2.385Z" transform="translate(5.581 5.196)" fill="#a696f0"/>
    <path id="Path_138833" data-name="Path 138833" d="M46.77,30.385H43.192a1.192,1.192,0,0,1,0-2.385H46.77a1.192,1.192,0,0,1,0,2.385Z" transform="translate(7.89 5.196)" fill="#3fdab1"/>
    <path id="Path_138834" data-name="Path 138834" d="M34.54,14.385H26.192a1.192,1.192,0,1,1,0-2.385H34.54a1.192,1.192,0,0,1,0,2.385Z" transform="translate(4.619 2.117)" fill="#fccb55"/>
    <path id="Path_138835" data-name="Path 138835" d="M33.962,18.385h-4.77a1.192,1.192,0,1,1,0-2.385h4.77a1.192,1.192,0,0,1,0,2.385Z" transform="translate(5.196 2.887)" fill="#a696f0"/>
    <path id="Path_138836" data-name="Path 138836" d="M40.77,14.385H37.192a1.192,1.192,0,0,1,0-2.385H40.77a1.192,1.192,0,1,1,0,2.385Z" transform="translate(6.735 2.117)" fill="#3fdab1"/>
    <path id="Path_138837" data-name="Path 138837" d="M35.962,26.385h-4.77a1.192,1.192,0,0,1,0-2.385h4.77a1.192,1.192,0,0,1,0,2.385Z" transform="translate(5.581 4.426)" fill="#fccb55"/>
    <path id="Path_138838" data-name="Path 138838" d="M41.924,22.385H31.192a1.192,1.192,0,0,1,0-2.385H41.924a1.192,1.192,0,1,1,0,2.385Z" transform="translate(5.581 3.656)" fill="#a696f0"/>
    <path id="Path_138839" data-name="Path 138839" d="M45.385,22.385H44.192a1.192,1.192,0,1,1,0-2.385h1.192a1.192,1.192,0,0,1,0,2.385Z" transform="translate(8.083 3.656)" fill="#3fdab1"/>
    <path id="Path_138840" data-name="Path 138840" d="M66.737,53.192a1.192,1.192,0,0,1-1.192,1.192H26.385A11.063,11.063,0,0,0,24.99,52H65.545A1.192,1.192,0,0,1,66.737,53.192Z" transform="translate(4.617 9.815)" fill="#935d38"/>
  </g>
</svg>
