<svg xmlns="http://www.w3.org/2000/svg" width="77.616" height="70.54" viewBox="0 0 77.616 70.54">
  <g id="Group_60745" data-name="Group 60745" transform="translate(13046.447 3048.079)">
    <path id="Path_131115" data-name="Path 131115" d="M242.087,379.473H221.862l2.567-12.5h15.087Z" transform="translate(-13239.619 -3358.528)" fill="#e1effa"/>
    <path id="Path_131116" data-name="Path 131116" d="M254.745,379.473l-2.57-12.5H237.087l12.5,12.5Z" transform="translate(-13252.276 -3358.528)" fill="#b6d4ed"/>
    <rect id="Rectangle_26273" data-name="Rectangle 26273" width="31.053" height="1.515" transform="translate(-13023.173 -2979.054)" fill="#e1effa"/>
    <path id="Path_131117" data-name="Path 131117" d="M53.616,61.9a1.893,1.893,0,0,0-1.884,1.887v47.668a1.892,1.892,0,0,0,1.884,1.89h73.84a1.9,1.9,0,0,0,1.892-1.89V63.791a1.9,1.9,0,0,0-1.892-1.887H53.616Z" transform="translate(-13098.179 -3104.904)" fill="#34495e"/>
    <rect id="Rectangle_26274" data-name="Rectangle 26274" width="69.771" height="43.602" transform="translate(-13042.525 -3039.081)" fill="#fff"/>
    <path id="Path_131118" data-name="Path 131118" d="M91.285,231.55H53.625a1.894,1.894,0,0,1-1.878-1.894V204.079h3.918v23.544H87.359Z" transform="translate(-13098.19 -3223.104)" fill="#2e445c"/>
    <g id="Group_60744" data-name="Group 60744" transform="translate(-13088.709 -3048.079)">
      <path id="Path_131183" data-name="Path 131183" d="M223.661,36.815H202.177a1.252,1.252,0,0,1,0-2.5h21.484a1.252,1.252,0,1,1,0,2.5Z" transform="translate(-128.951 -28.835)"/>
      <path id="Path_131184" data-name="Path 131184" d="M211.744,70.248h-9.567a1.252,1.252,0,1,1,0-2.5h9.567a1.252,1.252,0,0,1,0,2.5Z" transform="translate(-128.951 -56.932)"/>
      <path id="Path_131185" data-name="Path 131185" d="M47.484,76.957l4.4,39.531h57.43l5.327-39.531Z" transform="translate(0 -64.674)" fill="#d3d9ef"/>
      <path id="Path_131186" data-name="Path 131186" d="M132.472,52.6H75.042V2.51A2.51,2.51,0,0,1,77.552,0h52.41a2.51,2.51,0,0,1,2.51,2.51Z" transform="translate(-23.16)" fill="#ebedf2"/>
      <path id="Path_131187" data-name="Path 131187" d="M129.962,0H77.552a2.51,2.51,0,0,0-2.51,2.51V18.293h57.43V2.51A2.51,2.51,0,0,0,129.962,0Z" transform="translate(-23.16)" fill="#ffca28"/>
      <path id="Path_131188" data-name="Path 131188" d="M114.455,32.5l-4.121,7.139h8.243Z" transform="translate(-52.819 -27.309)" fill="#427096"/>
      <path id="Path_131189" data-name="Path 131189" d="M212.084,31.222H190.6a1.252,1.252,0,0,1,0-2.5h21.484a1.252,1.252,0,0,1,0,2.5Z" transform="translate(-119.222 -24.134)" fill="#fff"/>
      <g id="Group_60743" data-name="Group 60743" transform="translate(84.985 24.162)">
        <path id="Path_131190" data-name="Path 131190" d="M301.828,153.891H283.694a1.252,1.252,0,0,1,0-2.5h18.134a1.252,1.252,0,0,1,0,2.5Z" transform="translate(-282.442 -151.387)" fill="#9694af"/>
        <path id="Path_131191" data-name="Path 131191" d="M301.828,188.394H283.694a1.252,1.252,0,0,1,0-2.5h18.134a1.252,1.252,0,0,1,0,2.5Z" transform="translate(-282.442 -180.383)" fill="#9694af"/>
        <path id="Path_131192" data-name="Path 131192" d="M301.828,222.9H283.694a1.252,1.252,0,0,1,0-2.5h18.134a1.252,1.252,0,0,1,0,2.5Z" transform="translate(-282.442 -209.379)" fill="#9694af"/>
        <path id="Path_131193" data-name="Path 131193" d="M301.828,257.4H283.694a1.252,1.252,0,0,1,0-2.5h18.134a1.252,1.252,0,0,1,0,2.5Z" transform="translate(-282.442 -238.375)" fill="#9694af"/>
        <path id="Path_131194" data-name="Path 131194" d="M292.167,291.9h-8.473a1.252,1.252,0,1,1,0-2.5h8.473a1.252,1.252,0,1,1,0,2.5Z" transform="translate(-282.442 -267.371)" fill="#9694af"/>
      </g>
      <path id="Path_131195" data-name="Path 131195" d="M200.167,64.657H190.6a1.252,1.252,0,0,1,0-2.5h9.567a1.252,1.252,0,0,1,0,2.5Z" transform="translate(-119.222 -52.233)" fill="#fff"/>
      <path id="Path_131196" data-name="Path 131196" d="M132.188,175.705H111.563a1.229,1.229,0,0,1-1.229-1.229V153.852a1.229,1.229,0,0,1,1.229-1.229h20.625a1.229,1.229,0,0,1,1.229,1.229v20.625A1.229,1.229,0,0,1,132.188,175.705Z" transform="translate(-52.819 -128.264)" fill="#53b4ed"/>
      <path id="Path_131197" data-name="Path 131197" d="M133.415,244.426v-5.845a6.573,6.573,0,0,0-1.812-.48c-3.187-.357-3.615,2.152-6.712,2.4-4.577.371-5.908-4.926-10.678-4.636a7.486,7.486,0,0,0-3.881,1.468v7.09a1.229,1.229,0,0,0,1.229,1.229h20.625A1.229,1.229,0,0,0,133.415,244.426Z" transform="translate(-52.818 -198.213)" fill="#ffad6a"/>
      <circle id="Ellipse_607" data-name="Ellipse 607" cx="2.579" cy="2.579" r="2.579" transform="translate(69.78 29.661)" fill="#fbc640"/>
    </g>
  </g>
</svg>
