<svg xmlns="http://www.w3.org/2000/svg" xmlns:xlink="http://www.w3.org/1999/xlink" width="314.614" height="341.283" viewBox="0 0 314.614 341.283">
  <defs>
    <clipPath id="clip-path">
      <path id="Path_130347" data-name="Path 130347" d="M417.481,472.955c-3.137.1-5.8,4.228-5.679,10.462.139,7.349,2.246,16.524,4.412,23.836a6.58,6.58,0,0,0,5.149,4.735,4.1,4.1,0,0,0,2.456-.324,4.591,4.591,0,0,0,2.5-1.376c2.714-3.034,10.164-17.5,11.228-21.619.2-.774-.234-2.087-.046-2.572a12.175,12.175,0,0,1,.784-1.7,7.9,7.9,0,0,0-3.922-2.263,3.808,3.808,0,0,1-1.032,1.395,8.6,8.6,0,0,0-1.659,1.213c-1.313,1.493-3.646,4.585-6.038,7.941-.39-4.279-.94-8.5-1.678-12.993-.577-3.523-3.693-6.738-6.376-6.738l-.1,0" transform="translate(-411.799 -472.953)" fill="none"/>
    </clipPath>
    <linearGradient id="linear-gradient" x1="-4.669" y1="15.227" x2="-4.657" y2="15.227" gradientUnits="objectBoundingBox">
      <stop offset="0" stop-color="#bed2e8"/>
      <stop offset="1" stop-color="#cee0f3"/>
    </linearGradient>
    <clipPath id="clip-path-2">
      <rect id="Rectangle_25945" data-name="Rectangle 25945" width="19.792" height="39.098" fill="none"/>
    </clipPath>
    <clipPath id="clip-path-3">
      <path id="Path_130351" data-name="Path 130351" d="M336.228,564.534c1.859,2.951,3.106,7.989,5.6,11.317,3.533,4.7,11.263,9.546,18.539,13.993a12.155,12.155,0,0,0-3.378,1.239c-3.888,2.331-13,8.764-19.714,13.66-1.329,2.495.135,5.965,3.152,7.416,6.279-3.847,20.461-7.7,29.779-11.351,2.336-.916,6.167-2.374,8.67-3.656a5.448,5.448,0,0,0,.675-.361l.257-.146.035-.05c2.018-1.466,2.349-4.059.819-6.626a14.554,14.554,0,0,0-2.882-3.662c-7.168-7.905-17.5-18.42-24.567-25.878-2.09-2.205-1.97-1.778-4.011-3.825-1.463,2.507-2.26,9-12.978,7.931" transform="translate(-336.228 -556.603)" fill="none"/>
    </clipPath>
    <linearGradient id="linear-gradient-2" x1="-2.519" y1="10.203" x2="-2.511" y2="10.203" gradientUnits="objectBoundingBox">
      <stop offset="0" stop-color="#105b91"/>
      <stop offset="1" stop-color="#0a3c5f"/>
    </linearGradient>
    <clipPath id="clip-path-4">
      <path id="Path_130352" data-name="Path 130352" d="M328.356,552.463c-5.279,4.512-8.527,11.52-2.658,21.636,4.313,7.434,16.63,19.19,24.415,26.664a55.19,55.19,0,0,0-4,10.1c-1.129,4.432-2.565,17.937-3.47,26.147.76,2.489,4.392,3.764,7.5,2.475,2.15-8.788,9.119-28.956,11.779-37.819a9.246,9.246,0,0,0,.071-.924,6.614,6.614,0,0,0-.047-3.5c-1.866-5.859-15.031-21.859-18.666-29.879a88,88,0,0,0-9.59-16.478c-.825,1.5-3.452-.02-5.329,1.584" transform="translate(-322.568 -550.879)" fill="none"/>
    </clipPath>
    <linearGradient id="linear-gradient-3" x1="-2.112" y1="6.838" x2="-2.105" y2="6.838" xlink:href="#linear-gradient-2"/>
    <clipPath id="clip-path-5">
      <path id="Path_130370" data-name="Path 130370" d="M459.88,526.229c.5,6.9,5.971,15.3,12.234,18.762s10.935.685,10.439-6.213-5.975-15.3-12.234-18.763a10.514,10.514,0,0,0-4.988-1.491c-3.562,0-5.8,2.821-5.452,7.7m12.876,26.428c-9.383-5.194-17.589-17.777-18.331-28.114s6.258-14.5,15.642-9.312,17.59,17.785,18.332,28.116c.526,7.319-2.833,11.543-8.168,11.543a15.745,15.745,0,0,1-7.475-2.234M440.2,493.107l4.662,7.143c-2.395,2.649-3.917,6.451-4.325,11.248l-6.1-3.376a41.474,41.474,0,0,0,.052,5.385,52.95,52.95,0,0,0,.75,5.778l6.1,3.377a64.842,64.842,0,0,0,6.366,17.159l-3.978,2.368a95.875,95.875,0,0,0,7.735,11.861l3.979-2.367a68.308,68.308,0,0,0,13.314,13.024l.483,6.721a57.634,57.634,0,0,0,5.1,3.191,46.615,46.615,0,0,0,5.038,2.419l-.483-6.721c4.688,1.765,8.929,2.135,12.467,1.247l4.663,7.149a15.5,15.5,0,0,0,6.6-3.929l-4.661-7.151c2.4-2.643,3.915-6.444,4.325-11.241l6.1,3.377a41.789,41.789,0,0,0-.052-5.391,52.529,52.529,0,0,0-.751-5.773l-6.1-3.377a64.958,64.958,0,0,0-6.367-17.164l3.979-2.362a95.979,95.979,0,0,0-7.736-11.863l-3.978,2.368a68.357,68.357,0,0,0-13.315-13.024l-.483-6.728a59.279,59.279,0,0,0-5.093-3.182,47.41,47.41,0,0,0-5.043-2.427l.485,6.727c-4.688-1.763-8.929-2.135-12.469-1.246l-4.662-7.149a15.482,15.482,0,0,0-6.6,3.928" transform="translate(-434.371 -489.179)" fill="none"/>
    </clipPath>
    <linearGradient id="linear-gradient-4" x1="-1.531" y1="6.197" x2="-1.527" y2="6.197" gradientUnits="objectBoundingBox">
      <stop offset="0" stop-color="#105b91"/>
      <stop offset="0.995" stop-color="#0a3c5f"/>
      <stop offset="1" stop-color="#0a3c5f"/>
    </linearGradient>
    <clipPath id="clip-path-6">
      <path id="Path_130372" data-name="Path 130372" d="M709.459,242.96c-.6.357-1.224.686-1.859,1.006-11.906,5.512-26.909,5.284-38.283-.6a24.1,24.1,0,0,1-5-3.75,25.147,25.147,0,0,1,4.831,7.1c.733,1.58,1.365,3.2,2.016,4.814.983,2.437,1.623,5.113,2.958,7.218,2.961,4.665,7.624,7.731,14.857,7.716a17.737,17.737,0,0,0,15.3-8.638,38.938,38.938,0,0,0,1.764-3.712c.862-1.922,1.583-3.814,2.532-5.7,1.35-2.68,3.748-7.275,5.354-8.942a21.24,21.24,0,0,1-4.473,3.49" transform="translate(-664.318 -239.47)" fill="none"/>
    </clipPath>
    <linearGradient id="linear-gradient-5" x1="-11.226" y1="16.306" x2="-11.209" y2="16.306" gradientUnits="objectBoundingBox">
      <stop offset="0" stop-color="#ffd24c"/>
      <stop offset="1" stop-color="#f6a232"/>
    </linearGradient>
    <clipPath id="clip-path-7">
      <path id="Path_130373" data-name="Path 130373" d="M650.564,97.568a39.8,39.8,0,0,0-15.345,21.909c-2.56,10.079-.027,19.45,4.78,28.377,3.236,6.01,7.733,11.978,13,14.933,2.728,2.1,16.03,6.915,30.332,3.41a34.429,34.429,0,0,0,9.811-3.815,21.24,21.24,0,0,0,4.473-3.49l.923-1c9.211-10.932,15.113-24.248,11.4-38.532a38.746,38.746,0,0,0-59.378-21.787" transform="translate(-634.203 -90.732)" fill="none"/>
    </clipPath>
    <linearGradient id="linear-gradient-6" x1="-3.465" y1="10.795" x2="-3.46" y2="10.795" gradientUnits="objectBoundingBox">
      <stop offset="0" stop-color="#fdd248"/>
      <stop offset="1" stop-color="#fabd23"/>
    </linearGradient>
    <clipPath id="clip-path-8">
      <path id="Path_130374" data-name="Path 130374" d="M695.443,282.706c-4.89-.406-13.277-2.4-15.319-9.61l.064,17.9c.012,3.414.06,6.225,1.953,9.334.06.1.115.192.171.284a16.039,16.039,0,0,0,6.789,6.075,19.9,19.9,0,0,0,17.765-.364,16.012,16.012,0,0,0,3.717-2.72,14.311,14.311,0,0,0,4.081-7.212,17.388,17.388,0,0,0,.418-4.806c-.005-1.547-.066-18.59-.067-18.59-2.3,7.817-12.019,10.335-19.572,9.707" transform="translate(-680.124 -272.999)" fill="none"/>
    </clipPath>
    <linearGradient id="linear-gradient-7" x1="-8.471" y1="20.845" x2="-8.459" y2="20.845" xlink:href="#linear-gradient-2"/>
    <clipPath id="clip-path-9">
      <path id="Path_130393" data-name="Path 130393" d="M554.526,431.954c-11.115-6.152-20.834-21.056-21.714-33.3s7.412-17.18,18.528-11.028,20.834,21.064,21.713,33.3c.623,8.669-3.356,13.672-9.675,13.673a18.644,18.644,0,0,1-8.853-2.646m-38.562-70.533,5.521,8.461c-2.837,3.139-4.638,7.64-5.123,13.322l-7.226-4a49.269,49.269,0,0,0,.061,6.379,62.615,62.615,0,0,0,.889,6.844l7.228,4a76.764,76.764,0,0,0,7.54,20.324l-4.712,2.8a113.457,113.457,0,0,0,9.161,14.05l4.712-2.8a80.921,80.921,0,0,0,15.769,15.425l.573,7.961a68.748,68.748,0,0,0,6.038,3.781,55.184,55.184,0,0,0,5.966,2.864l-.572-7.961c5.552,2.09,10.575,2.529,14.767,1.477l5.523,8.468a18.36,18.36,0,0,0,7.816-4.654l-5.522-8.468c2.838-3.131,4.638-7.633,5.122-13.315l7.228,4a49.788,49.788,0,0,0-.061-6.386,62.454,62.454,0,0,0-.889-6.837l-7.228-4A76.942,76.942,0,0,0,581,402.825l4.713-2.8a113.509,113.509,0,0,0-9.163-14.05l-4.71,2.8a80.952,80.952,0,0,0-15.77-15.425l-.573-7.969a70.224,70.224,0,0,0-6.031-3.769,56.655,56.655,0,0,0-5.974-2.876l.573,7.969c-5.552-2.09-10.575-2.53-14.767-1.477l-5.521-8.469a18.342,18.342,0,0,0-7.817,4.653" transform="translate(-509.06 -356.768)" fill="none"/>
    </clipPath>
    <linearGradient id="linear-gradient-8" x1="-1.536" y1="5.89" x2="-1.533" y2="5.89" gradientUnits="objectBoundingBox">
      <stop offset="0" stop-color="#31adcc"/>
      <stop offset="1" stop-color="#198aa6"/>
    </linearGradient>
    <clipPath id="clip-path-10">
      <path id="Path_130410" data-name="Path 130410" d="M643.779,665.734c-11.634-6.438-21.8-22.036-22.726-34.851s7.758-17.98,19.391-11.542,21.806,22.045,22.725,34.852c.652,9.073-3.513,14.309-10.126,14.31a19.5,19.5,0,0,1-9.265-2.769m-40.359-73.82,5.779,8.855c-2.969,3.285-4.854,8-5.361,13.944l-7.563-4.187a51.578,51.578,0,0,0,.063,6.677,65.606,65.606,0,0,0,.931,7.164l7.564,4.186a80.333,80.333,0,0,0,7.892,21.271l-4.932,2.935a118.675,118.675,0,0,0,9.589,14.7l4.931-2.935a84.733,84.733,0,0,0,16.5,16.145l.6,8.332a71.528,71.528,0,0,0,6.32,3.957,57.454,57.454,0,0,0,6.244,3l-.6-8.332c5.811,2.188,11.068,2.647,15.455,1.546l5.78,8.863a19.218,19.218,0,0,0,8.181-4.87l-5.779-8.863c2.97-3.277,4.854-7.989,5.361-13.936l7.565,4.187a51.94,51.94,0,0,0-.065-6.684,65.27,65.27,0,0,0-.93-7.156l-7.564-4.187a80.537,80.537,0,0,0-7.893-21.279l4.933-2.927a118.706,118.706,0,0,0-9.59-14.7l-4.93,2.935A84.744,84.744,0,0,0,645.4,604.407l-.6-8.34a73.464,73.464,0,0,0-6.312-3.944,59.151,59.151,0,0,0-6.252-3.01l.6,8.34c-5.811-2.186-11.068-2.648-15.456-1.545l-5.778-8.863a19.2,19.2,0,0,0-8.182,4.869" transform="translate(-596.195 -587.045)" fill="none"/>
    </clipPath>
    <linearGradient id="linear-gradient-9" x1="-1.728" y1="4.62" x2="-1.725" y2="4.62" xlink:href="#linear-gradient-6"/>
    <clipPath id="clip-path-11">
      <path id="Path_130428" data-name="Path 130428" d="M733.248,533.357c.457,6.37,5.513,14.123,11.3,17.324s10.1.633,9.638-5.737-5.516-14.125-11.3-17.324a9.7,9.7,0,0,0-4.606-1.376c-3.289,0-5.357,2.6-5.033,7.113m11.889,24.4c-8.664-4.8-16.241-16.414-16.926-25.959s5.778-13.392,14.443-8.6,16.241,16.421,16.926,25.96c.486,6.758-2.616,10.659-7.542,10.659a14.54,14.54,0,0,1-6.9-2.063m-30.061-54.983,4.3,6.6c-2.211,2.446-3.617,5.956-3.994,10.385l-5.633-3.118a38.446,38.446,0,0,0,.048,4.973,49.046,49.046,0,0,0,.692,5.334l5.635,3.118a59.856,59.856,0,0,0,5.878,15.844l-3.673,2.186a88.342,88.342,0,0,0,7.142,10.952l3.673-2.186a63.082,63.082,0,0,0,12.293,12.025l.446,6.206a53.2,53.2,0,0,0,4.707,2.946,43.021,43.021,0,0,0,4.651,2.234l-.446-6.206c4.329,1.629,8.244,1.971,11.511,1.151l4.305,6.6a14.3,14.3,0,0,0,6.093-3.628l-4.3-6.6c2.212-2.44,3.615-5.949,3.993-10.379l5.634,3.118a38.665,38.665,0,0,0-.047-4.978,48.656,48.656,0,0,0-.693-5.331l-5.635-3.118a59.949,59.949,0,0,0-5.878-15.848l3.675-2.18a88.506,88.506,0,0,0-7.143-10.954l-3.673,2.186a63.109,63.109,0,0,0-12.293-12.024l-.446-6.212a54.631,54.631,0,0,0-4.7-2.938,43.943,43.943,0,0,0-4.657-2.241l.448,6.212c-4.329-1.628-8.244-1.972-11.513-1.151l-4.3-6.6a14.3,14.3,0,0,0-6.094,3.628" transform="translate(-709.695 -499.148)" fill="none"/>
    </clipPath>
    <linearGradient id="linear-gradient-10" x1="-2.943" y1="7.102" x2="-2.938" y2="7.102" gradientUnits="objectBoundingBox">
      <stop offset="0" stop-color="#dbebfb"/>
      <stop offset="1" stop-color="#cfe1f4"/>
    </linearGradient>
    <clipPath id="clip-path-12">
      <path id="Path_130440" data-name="Path 130440" d="M352.313,473.709c-4.242.765-7.342,3.626-10.029,8.062A195.2,195.2,0,0,0,330.1,504.744a13.507,13.507,0,0,0-1,5.753,11.567,11.567,0,0,1-.895,2.8c3.4,5.536,18.779,5.707,23.2,2.266a56.032,56.032,0,0,0,7.415-6.11c6.617-6.321,12.174-11.739,17.38-21.312,2.55-4.688,3.241-11.16-1.782-14.4-1.523-.983-4.566-1.316-7.95-1.316a94.108,94.108,0,0,0-14.152,1.284" transform="translate(-328.199 -472.425)" fill="none"/>
    </clipPath>
    <linearGradient id="linear-gradient-11" x1="-2.21" y1="10.611" x2="-2.203" y2="10.611" xlink:href="#linear-gradient"/>
    <clipPath id="clip-path-13">
      <rect id="Rectangle_25963" data-name="Rectangle 25963" width="37.524" height="43.392" fill="none"/>
    </clipPath>
    <clipPath id="clip-path-14">
      <path id="Path_130442" data-name="Path 130442" d="M395.769,492.032a3.007,3.007,0,0,0,1.646,2.793c.089,5.083-1.34,8.292-3.76,10.938-7.078,7.742-8.193,9.568-11.438,20.209a16.969,16.969,0,0,0,3.271,6.248,29,29,0,0,1,4.6-6.095c-.543-5.448,3.8-12.056,6.653-16.585a17.325,17.325,0,0,0,2.492-14.688c1.208-1.908,1.527-2.529,1.18-2.914-.406-.45-.38-.165-2-.545a6.5,6.5,0,0,0-1.41-.2c-.638,0-1.185.189-1.241.839" transform="translate(-382.218 -491.193)" fill="none"/>
    </clipPath>
    <linearGradient id="linear-gradient-12" x1="-3.663" y1="24.427" x2="-3.652" y2="24.427" xlink:href="#linear-gradient-8"/>
    <clipPath id="clip-path-15">
      <path id="Path_130447" data-name="Path 130447" d="M414.341,441.066a8.6,8.6,0,0,0-3.873,4.638c-.683,2.152-.264,4.552.546,7.265.3,1.021,1.664-1.828,2.174-2.308-.157,1.181-.019,1.787.263,2.02.2.168.389.435,1.048-.833,1.01-1.945,2.094-1.778,2.312-3.284.174-1.207.784-.732,1.213-1.018,1.394.81,2.34,2.2,4.643,2.73-.684-.944-3.222-4.479-4.281-6.1-1-1.521-2.088-3.15-3.629-3.15a2.305,2.305,0,0,0-.416.039" transform="translate(-410.125 -441.027)" fill="none"/>
    </clipPath>
    <linearGradient id="linear-gradient-13" x1="-10.492" y1="40.538" x2="-10.466" y2="40.538" gradientUnits="objectBoundingBox">
      <stop offset="0" stop-color="#38251b"/>
      <stop offset="1" stop-color="#1c120d"/>
    </linearGradient>
    <clipPath id="clip-path-16">
      <path id="Path_130449" data-name="Path 130449" d="M418.954,439.216c.976.894,1.749,2.816,2.929,4.552,1.625,2.391,3.761,4.609,5.977,5.094a4.671,4.671,0,0,0,3.274-.361c4.938-4.744-2.09-11.016-7.849-11.016a5.733,5.733,0,0,0-4.33,1.73" transform="translate(-418.954 -437.486)" fill="none"/>
    </clipPath>
    <linearGradient id="linear-gradient-14" x1="-13.163" y1="37.859" x2="-13.132" y2="37.859" gradientUnits="objectBoundingBox">
      <stop offset="0" stop-color="#4d3529"/>
      <stop offset="1" stop-color="#38251b"/>
    </linearGradient>
    <clipPath id="clip-path-17">
      <path id="Path_130457" data-name="Path 130457" d="M362.892,485.458c-1.2,7.252-.8,16.657,0,24.241a5.213,5.213,0,0,0,1.634,4.194c2.788,3.721,14.292,13.911,17.9,15.9a1.8,1.8,0,0,0,1.067.156,1.139,1.139,0,0,1,.758.1,13.07,13.07,0,0,1,1.477,1.238c1.436-1,3.065-1.467,3.986-3.208a4.231,4.231,0,0,1-1.18-1.29,8.247,8.247,0,0,0-.845-1.709,180.414,180.414,0,0,0-14.563-17.14,170.627,170.627,0,0,0,2.4-23.93c.081-3.979-2.708-6.5-5.714-6.5-2.892,0-5.986,2.335-6.917,7.951" transform="translate(-362.133 -477.507)" fill="none"/>
    </clipPath>
    <linearGradient id="linear-gradient-15" x1="-4.119" y1="11.961" x2="-4.107" y2="11.961" xlink:href="#linear-gradient"/>
    <clipPath id="clip-path-18">
      <path id="Path_130458" data-name="Path 130458" d="M884.62,300.017l-1.194,1.843a.549.549,0,0,0,.921.6l1.194-1.843a.551.551,0,0,0-.476-.85.527.527,0,0,0-.446.253m-4.252.576,1.24,1.812a.549.549,0,0,0,.906-.62l-1.239-1.811a.508.508,0,0,0-.431-.242.552.552,0,0,0-.475.862m-3.1-4.53,1.24,1.812a.549.549,0,0,0,.906-.62l-1.24-1.812a.507.507,0,0,0-.431-.242.552.552,0,0,0-.475.862m10.335-.654-1.194,1.843a.549.549,0,0,0,.922.6l1.193-1.843a.55.55,0,0,0-.475-.85.526.526,0,0,0-.446.253m-13.435-3.877,1.24,1.812a.549.549,0,0,0,.906-.62l-1.24-1.812a.506.506,0,0,0-.43-.242.552.552,0,0,0-.476.862m16.419-.73-1.194,1.843a.549.549,0,0,0,.922.6l1.194-1.843a.55.55,0,0,0-.476-.849.527.527,0,0,0-.446.252M871.071,287l1.24,1.812a.549.549,0,0,0,.905-.62l-1.24-1.812a.507.507,0,0,0-.431-.242.552.552,0,0,0-.475.862m10.566-.7-1.554,1.551a.549.549,0,0,0,.775.777l1.555-1.55a.557.557,0,0,0-.4-.944.524.524,0,0,0-.376.167m11.936-.106-1.194,1.843a.549.549,0,0,0,.922.6l1.193-1.843a.55.55,0,0,0-.475-.849.527.527,0,0,0-.446.253m-17.493-1.218,1.607,1.5a.549.549,0,0,0,.748-.8l-1.607-1.5a.5.5,0,0,0-.357-.154.555.555,0,0,0-.391.957m9.443-2.553-1.555,1.551a.549.549,0,0,0,.776.777L886.3,283.2a.556.556,0,0,0-.4-.944.525.525,0,0,0-.376.167m-17.552.047,1.24,1.812a.549.549,0,0,0,.906-.62l-1.24-1.812a.508.508,0,0,0-.431-.242.552.552,0,0,0-.475.862m28.585-.883-1.194,1.842a.549.549,0,0,0,.922.6l1.194-1.843a.55.55,0,0,0-.476-.849.528.528,0,0,0-.446.253m-24.493-.352,1.606,1.5a.549.549,0,0,0,.748-.8l-1.607-1.5a.5.5,0,0,0-.357-.154.555.555,0,0,0-.39.957m17.345-2.688-1.554,1.551a.549.549,0,0,0,.775.777l1.555-1.55a.556.556,0,0,0-.4-.944.525.525,0,0,0-.376.167m-21.89.206,2.056.771a.549.549,0,0,0,.385-1.028l-2.056-.77a.606.606,0,0,0-.21-.039.553.553,0,0,0-.176,1.067m-2.646-.813,1.24,1.812a.549.549,0,0,0,.905-.62l-1.24-1.812a.507.507,0,0,0-.431-.242.552.552,0,0,0-.475.862m34.669-.959-1.193,1.843a.549.549,0,0,0,.922.6l1.193-1.843a.55.55,0,0,0-.475-.849.527.527,0,0,0-.446.253m-6.246-2.31-1.554,1.551a.549.549,0,0,0,.776.777l1.554-1.551a.556.556,0,0,0-.4-.944.527.527,0,0,0-.376.167m9.23-2.3-1.193,1.843a.549.549,0,0,0,.922.6l1.194-1.843a.55.55,0,0,0-.476-.849.528.528,0,0,0-.446.253m-5.343-1.58-1.555,1.551a.549.549,0,0,0,.775.777l1.555-1.551a.556.556,0,0,0-.4-.944.525.525,0,0,0-.376.167m1.218-.185,1.976.956a.549.549,0,0,0,.478-.989l-1.976-.956a.549.549,0,1,0-.478.988" transform="translate(-864.769 -269.56)" fill="none"/>
    </clipPath>
    <linearGradient id="linear-gradient-16" x1="-11.473" y1="19.82" x2="-11.46" y2="19.82" xlink:href="#linear-gradient-6"/>
    <clipPath id="clip-path-19">
      <path id="Path_130459" data-name="Path 130459" d="M483.371,227.8a7.2,7.2,0,0,1-.938.71.548.548,0,0,0,.59.924,8.428,8.428,0,0,0,1.445-1.164l.313-.314-.49-.752a.519.519,0,0,0-.439-.252.552.552,0,0,0-.481.847m-4.9-.332,1.2,1.836a.548.548,0,0,0,.917-.6l-1.2-1.836a.519.519,0,0,0-.439-.252.552.552,0,0,0-.478.851m-6.985-.679.157,2.186a.548.548,0,0,0,1.093-.078l-.157-2.187a.52.52,0,0,0-.537-.5.53.53,0,0,0-.556.582m-4.319.148c.614.409,1.24.809,1.882,1.17l.012.006a.548.548,0,0,0,.547-.949c-.405-.2-.836-.5-1.23-.743-.169-.135-.425-.254-.6-.393a.548.548,0,1,0-.611.909m6.712-.189a11.307,11.307,0,0,0,2.276.274.548.548,0,0,0,.021-1.1,10.258,10.258,0,0,1-2.069-.25.683.683,0,0,0-.127-.012.549.549,0,0,0-.1,1.084m8.261-4.061a6.7,6.7,0,0,1-.85,1.174l-.284.313.571.876a.548.548,0,0,0,.917-.6l-.115-.177a7.574,7.574,0,0,0,.711-1.041.552.552,0,0,0-.5-.824.521.521,0,0,0-.455.278m-16.892-.428c.324.263.657.519.993.767l.033.456a.548.548,0,0,0,1.093-.079l-.069-.963c-.451-.327-.934-.674-1.358-1.032a.562.562,0,0,0-.347-.129.555.555,0,0,0-.344.981m18.113-3.822a13.247,13.247,0,0,1-.182,1.34.548.548,0,0,0,1.076.205c.04-.206.075-.415.1-.625a.547.547,0,0,0,.5-.974l-1.424-.788Zm-22.142-.016,0,0c.511.547,1,1.083,1.537,1.609a.548.548,0,0,0,.771-.779c-.512-.5-1-1.021-1.484-1.553l-.006-.008a.578.578,0,0,0-.411-.184.549.549,0,0,0-.408.912m25.239-.868c.032.724.068,1.407.043,2.136a.548.548,0,0,0,1.1.033c.025-.768-.013-1.483-.046-2.245a.52.52,0,0,0-.536-.5.53.53,0,0,0-.557.58m-27.375-1.59-1.433.853.56.942-.716-.138.3.388,1.853-1.1a.548.548,0,1,0-.56-.942m25.351-2.042,1.918,1.062a.548.548,0,0,0,.531-.959l-1.917-1.061a.613.613,0,0,0-.276-.07.549.549,0,0,0-.255,1.028m-30.318-1.341c.38.639.763,1.259,1.162,1.887a.548.548,0,0,0,.921-.593c-.39-.615-.762-1.222-1.136-1.846a.518.518,0,0,0-.452-.274.551.551,0,0,0-.494.827m2.174-2.1.449-.267-.245-.461Zm25.578-1.471c.114.38.267.769.386,1.154.095.3.177.6.266.9a.548.548,0,0,0,1.055-.294c-.2-.706-.419-1.4-.663-2.089l-.013-.038a.511.511,0,0,0-.494-.361.544.544,0,0,0-.538.731m-27.192-.44c.211.422.412.843.624,1.262a.552.552,0,0,0,.715.812l-.4-.679.4.679.275-.164.186-.762c-.285-.536-.538-1.074-.809-1.615a.52.52,0,0,0-.474-.316.549.549,0,0,0-.517.783m24.838-4.775.246.461.2-.728Zm.619-.367-.169.1-.186.762c.3.566.587,1.144.859,1.726a.548.548,0,0,0,.994-.463q-.339-.725-.707-1.438a.574.574,0,0,0-.505-.772.545.545,0,0,0-.286.084m-27.422-.066c.218.725.436,1.411.685,2.126a.548.548,0,0,0,1.03-.375c-.239-.687-.454-1.347-.659-2.045l-1.056.294,1.055-.294a.51.51,0,0,0-.51-.4.539.539,0,0,0-.546.691m27.41-3.117c.389.584.786,1.239,1.132,1.849a.548.548,0,0,0,.946-.553c-.255-.4-.484-.829-.74-1.231-.132-.219-.275-.447-.417-.659a.528.528,0,0,0-.446-.253.549.549,0,0,0-.475.846m-30.644-.195,1.918,1.061a.548.548,0,0,0,.531-.959l-1.917-1.062a.619.619,0,0,0-.276-.07.55.55,0,0,0-.255,1.029m27.238-3a.548.548,0,0,0,.56.941l.906-.539.091.122a.548.548,0,0,0,.879-.655l-.689-.91Zm-3.906-2.2c.515.515,1,1.032,1.488,1.568a.548.548,0,0,0,.819-.728l0,0c-.5-.552-1-1.083-1.529-1.612a.527.527,0,0,0-.376-.167.555.555,0,0,0-.4.941m-24.148-.68v-.006a20.72,20.72,0,0,0,.033,2.25.548.548,0,0,0,1.093-.076,20.124,20.124,0,0,1-.029-2.136.548.548,0,0,0-1.1-.033m3.363-.265c-.054.254-.1.517-.135.781a.548.548,0,0,0-.38,1.014l1.312.725.071-.842a12.086,12.086,0,0,1,.206-1.46.533.533,0,0,0-.548-.652.512.512,0,0,0-.526.433m16.872-3.166.06.842c.5.359.982.722,1.454,1.109a.548.548,0,0,0,.69-.851c-.354-.29-.72-.572-1.087-.844l-.024-.334a.52.52,0,0,0-.537-.5.53.53,0,0,0-.556.582m-15.208-1.279.186.285a8.8,8.8,0,0,0-.641.921.548.548,0,0,0,.939.565,7.105,7.105,0,0,1,.791-1.076l.283-.313-.64-.98a.519.519,0,0,0-.439-.252.552.552,0,0,0-.479.851m9.976-2.28a.548.548,0,0,0,1.093-.078Zm-3.463.917a10.074,10.074,0,0,1,2.06.274.548.548,0,0,0,.247-1.068,11.071,11.071,0,0,0-2.279-.3.548.548,0,0,0-.028,1.1m6.548-1.181c.627.372,1.222.74,1.828,1.145a.548.548,0,0,0,.611-.91c-.625-.417-1.24-.8-1.887-1.181a.542.542,0,0,0-.281-.083.555.555,0,0,0-.272,1.029m-11.013-1.493,1.2,1.836a.548.548,0,0,0,.919-.6l-1.2-1.836a.52.52,0,0,0-.439-.253.553.553,0,0,0-.479.851m-2.387-.911a8.294,8.294,0,0,0-1.553,1.226l-.082.7.07-.686-.313.314.42.643a.55.55,0,0,0,.979-.48,7.1,7.1,0,0,1,1.048-.779.555.555,0,0,0-.277-1.023.564.564,0,0,0-.292.087" transform="translate(-448.64 -184.424)" fill="none"/>
    </clipPath>
    <linearGradient id="linear-gradient-17" x1="-4.351" y1="20.699" x2="-4.341" y2="20.699" xlink:href="#linear-gradient-6"/>
    <clipPath id="clip-path-20">
      <path id="Path_130460" data-name="Path 130460" d="M838.05,430.191a6.841,6.841,0,0,1-2.763.976.811.811,0,0,0,.165,1.612,8.375,8.375,0,0,0,3.413-1.188.814.814,0,0,0-.414-1.5.892.892,0,0,0-.4.1m-9.815,1.221a19.654,19.654,0,0,0,2.834,1.1.81.81,0,0,0,.451-1.556,18.447,18.447,0,0,1-2.645-1.037q-.052,0-.1,0c-.828,0-1.075.9-.54,1.494m-5.922-3.373a.8.8,0,0,0,.269.331c.767.552,1.558,1.07,2.376,1.544.88.12,1.25-.655.771-1.428-.758-.443-1.485-.916-2.2-1.432a.823.823,0,0,0-.472-.153.812.812,0,0,0-.742,1.138m19.148-4.086a11.4,11.4,0,0,1-.752,2.942.811.811,0,0,0,1.374.823.873.873,0,0,0,.127-.213,12.916,12.916,0,0,0,.856-3.339.8.8,0,0,0-.822-.9.781.781,0,0,0-.785.689m-24.137-.884a28.346,28.346,0,0,0,2.334,2.462.81.81,0,1,0,1.126-1.165c-.762-.74-1.489-1.5-2.19-2.3a.8.8,0,0,0-.595-.28.816.816,0,0,0-.675,1.282m-4.281-7.805a.809.809,0,0,0-.5,1.2c.551.941,1.158,1.886,1.785,2.778a.811.811,0,0,0,1.379-.846c-.573-.93-1.208-1.8-1.771-2.758a.814.814,0,0,0-.7-.4.746.746,0,0,0-.193.025m27.769.965a24.61,24.61,0,0,1,.592,3.1.811.811,0,0,0,1.613-.122,22.214,22.214,0,0,0-.632-3.363.772.772,0,0,0-.773-.607.8.8,0,0,0-.8.993m-31.782-7.339a23.8,23.8,0,0,0,1.24,3.175.81.81,0,0,0,1.5-.614c-.415-1.013-.824-1.955-1.181-3a.764.764,0,0,0-.748-.541.8.8,0,0,0-.81.977m28.947-.072c.474.982.927,1.911,1.344,2.923a.811.811,0,0,0,1.525-.542,28.038,28.038,0,0,0-1.409-3.081.759.759,0,0,0-.7-.441.806.806,0,0,0-.764,1.141m-4.229-6.671c.645.833,1.272,1.707,1.847,2.589a.811.811,0,0,0,1.414-.782.913.913,0,0,0-.063-.112c-.6-.911-1.248-1.827-1.917-2.686a.809.809,0,0,0-.524-.306.861.861,0,0,0-.118-.008.81.81,0,0,0-.64,1.305m-26.29-1.324a22.354,22.354,0,0,0,.347,3.336.81.81,0,0,0,1.6-.28,20.234,20.234,0,0,1-.323-3.106.811.811,0,0,0-1.62.051m20.86-4.445a31.221,31.221,0,0,1,2.309,2.168.811.811,0,0,0,1.289-.956.941.941,0,0,0-.131-.176c-.752-.789-1.59-1.554-2.415-2.267a.807.807,0,0,0-.522-.2.817.817,0,0,0-.531,1.433m-18.617-3.9a.915.915,0,0,0-.121.132,10.185,10.185,0,0,0-1.537,3.151.81.81,0,0,0,1.555.455,8.5,8.5,0,0,1,1.287-2.646.809.809,0,0,0-1.184-1.092m11.594-.817a.822.822,0,0,0,.443.472,23.264,23.264,0,0,1,2.77,1.45.81.81,0,0,0,.845-1.382,30.674,30.674,0,0,0-2.974-1.556.869.869,0,0,0-.325-.064.807.807,0,0,0-.76,1.081m-7.341-2.045a.811.811,0,0,0,.35,1.581,9.077,9.077,0,0,1,3.014-.252.81.81,0,0,0,.147-1.614q-.487-.041-.972-.042a9.618,9.618,0,0,0-2.538.327" transform="translate(-807.458 -389.29)" fill="none"/>
    </clipPath>
    <linearGradient id="linear-gradient-18" x1="-8.26" y1="20.052" x2="-8.25" y2="20.052" xlink:href="#linear-gradient-6"/>
    <clipPath id="clip-path-21">
      <path id="Path_130461" data-name="Path 130461" d="M318.473,279.423a.623.623,0,0,0,.23.85l9,5.188a.622.622,0,0,0,.62-1.079l-9-5.187a.622.622,0,0,0-.849.229m-8.267-4.8a.623.623,0,0,0,.227.852l5.085,2.949a.623.623,0,1,0,.625-1.079l-5.085-2.949a.623.623,0,0,0-.852.227m-6.062-3.571a.623.623,0,0,0,.227.852l3.142,1.823a.624.624,0,0,0,.626-1.079L305,270.824a.624.624,0,0,0-.852.227m-9.693,40.86,41.483,24.06q.065-23.563.135-47.126l-4.463-2.589a.623.623,0,0,0-.625,1.079l3.84,2.228-.127,44.248-39-22.618.128-44.244,2.58,1.5a.623.623,0,0,0,.625-1.079l-4.443-2.577Z" transform="translate(-294.451 -264.788)" fill="none"/>
    </clipPath>
    <linearGradient id="linear-gradient-19" x1="-1.668" y1="18.27" x2="-1.662" y2="18.27" xlink:href="#linear-gradient-6"/>
    <clipPath id="clip-path-22">
      <path id="Path_130462" data-name="Path 130462" d="M878.553,729.709a.468.468,0,0,0,.173.639l6.764,3.9a.468.468,0,1,0,.466-.811l-6.764-3.9a.468.468,0,0,0-.639.172m-6.214-3.609a.469.469,0,0,0,.17.64l3.823,2.217a.469.469,0,0,0,.47-.812l-3.823-2.217a.468.468,0,0,0-.64.171m-4.557-2.685a.469.469,0,0,0,.17.641l2.363,1.37a.469.469,0,0,0,.47-.811l-2.363-1.37a.463.463,0,0,0-.234-.063.47.47,0,0,0-.406.233M860.5,754.132l31.185,18.087q.05-17.714.1-35.427l-3.355-1.947a.469.469,0,1,0-.47.811l2.887,1.675-.1,33.263-29.316-17,.1-33.261,1.939,1.125a.469.469,0,0,0,.469-.812l-3.34-1.937Z" transform="translate(-860.495 -718.708)" fill="none"/>
    </clipPath>
    <linearGradient id="linear-gradient-20" x1="-7.092" y1="17.94" x2="-7.083" y2="17.94" xlink:href="#linear-gradient-6"/>
    <clipPath id="clip-path-23">
      <path id="Path_130463" data-name="Path 130463" d="M516.146,777.413a6.842,6.842,0,0,1-2.763.977.811.811,0,0,0,.164,1.612,8.377,8.377,0,0,0,3.414-1.188.815.815,0,0,0-.414-1.5.9.9,0,0,0-.4.1m-9.815,1.221a19.692,19.692,0,0,0,2.834,1.1.81.81,0,0,0,.451-1.556,18.509,18.509,0,0,1-2.645-1.037c-.034,0-.068,0-.1,0-.828,0-1.075.9-.54,1.494m-5.922-3.373a.812.812,0,0,0,.269.331c.768.552,1.559,1.07,2.376,1.544.88.12,1.25-.655.771-1.428-.758-.444-1.484-.916-2.2-1.432a.823.823,0,0,0-.472-.153.812.812,0,0,0-.742,1.138m19.148-4.086a11.424,11.424,0,0,1-.752,2.942.811.811,0,0,0,1.374.823.867.867,0,0,0,.127-.213,12.918,12.918,0,0,0,.857-3.34.8.8,0,0,0-.822-.9.78.78,0,0,0-.784.689m-24.137-.884a28.315,28.315,0,0,0,2.334,2.462.81.81,0,0,0,1.126-1.165c-.762-.74-1.489-1.5-2.19-2.3a.8.8,0,0,0-.595-.279.816.816,0,0,0-.675,1.282m-4.281-7.805a.809.809,0,0,0-.5,1.2c.552.941,1.158,1.886,1.785,2.778a.811.811,0,0,0,1.379-.846c-.573-.93-1.208-1.8-1.771-2.758a.816.816,0,0,0-.7-.4.746.746,0,0,0-.193.025m27.769.965a24.585,24.585,0,0,1,.592,3.1.811.811,0,0,0,1.614-.122,22.273,22.273,0,0,0-.632-3.363.773.773,0,0,0-.774-.607.8.8,0,0,0-.8.994m-31.782-7.339a23.824,23.824,0,0,0,1.24,3.176.81.81,0,0,0,1.5-.614c-.415-1.013-.824-1.956-1.181-3a.763.763,0,0,0-.748-.541.8.8,0,0,0-.81.976m28.946-.071c.474.982.927,1.911,1.344,2.923a.811.811,0,0,0,1.526-.542,27.893,27.893,0,0,0-1.409-3.081.759.759,0,0,0-.7-.44.806.806,0,0,0-.764,1.141m-4.229-6.671c.645.832,1.272,1.707,1.847,2.589a.811.811,0,0,0,1.414-.782.875.875,0,0,0-.063-.112c-.6-.911-1.248-1.827-1.917-2.686a.8.8,0,0,0-.524-.306.862.862,0,0,0-.118-.008.81.81,0,0,0-.64,1.305m-26.29-1.324a22.272,22.272,0,0,0,.346,3.336.81.81,0,0,0,1.6-.28,20.291,20.291,0,0,1-.322-3.106.81.81,0,0,0-1.62.051m20.86-4.445a31.272,31.272,0,0,1,2.309,2.168.811.811,0,0,0,1.29-.956.945.945,0,0,0-.131-.175c-.752-.789-1.59-1.555-2.415-2.268a.807.807,0,0,0-.522-.2.817.817,0,0,0-.531,1.433M487.8,739.7a.916.916,0,0,0-.121.132,10.165,10.165,0,0,0-1.537,3.151.81.81,0,0,0,1.555.455,8.49,8.49,0,0,1,1.287-2.646A.809.809,0,0,0,487.8,739.7m11.594-.817a.821.821,0,0,0,.443.472,23.23,23.23,0,0,1,2.77,1.45.81.81,0,0,0,.845-1.382,30.587,30.587,0,0,0-2.974-1.556.868.868,0,0,0-.324-.064.807.807,0,0,0-.76,1.081m-7.341-2.045a.811.811,0,0,0,.35,1.581,9.06,9.06,0,0,1,3.013-.252.81.81,0,0,0,.147-1.614q-.487-.041-.972-.042a9.637,9.637,0,0,0-2.538.326" transform="translate(-485.555 -736.512)" fill="none"/>
    </clipPath>
    <linearGradient id="linear-gradient-21" x1="-4.929" y1="15.709" x2="-4.918" y2="15.709" xlink:href="#linear-gradient-6"/>
  </defs>
  <g id="Group_60782" data-name="Group 60782" transform="translate(22046.183 4265.268)">
    <g id="Group_59953" data-name="Group 59953" transform="translate(-21977.91 -4090.114)" clip-path="url(#clip-path)">
      <rect id="Rectangle_25944" data-name="Rectangle 25944" width="39.059" height="46.187" transform="translate(-13.42 5.211) rotate(-21.387)" fill="url(#linear-gradient)"/>
    </g>
    <g id="Group_59957" data-name="Group 59957" transform="translate(-21977.912 -4090.115)" opacity="0.25" style="mix-blend-mode: multiply;isolation: isolate">
      <g id="Group_59956" data-name="Group 59956" transform="translate(0 0)">
        <g id="Group_59955" data-name="Group 59955" clip-path="url(#clip-path-2)">
          <path id="Path_130348" data-name="Path 130348" d="M431.59,501.716a56.855,56.855,0,0,1-5.269,8.572,4.591,4.591,0,0,1-2.5,1.376,4.1,4.1,0,0,1-2.456.325,6.581,6.581,0,0,1-5.149-4.736c-2.165-7.312-4.272-16.486-4.412-23.836-.118-6.234,2.541-10.366,5.679-10.462,2.7-.082,5.892,3.17,6.476,6.737.737,4.5-1.311,11.653-4.313,17.514,1.159,11.032,4.072,9.947,11.945,4.51" transform="translate(-411.798 -472.952)" fill="#bdd1e7" fill-rule="evenodd"/>
        </g>
      </g>
    </g>
    <path id="Path_130349" data-name="Path 130349" d="M339.182,729.913l-40.49-23.06c-4.414-2.017-10.731-3.622-15.229-1.282-4.1,2.133-10.848,6.5-13.832,8.2-2.267,1.293-10.137,6.008-5.235,8.673,14.418,7.84,28.688,16.658,43.33,24.623,2.769,1.507,6.82,2.051,11.073,1.7a29.321,29.321,0,0,0,11.992-3.572q3.649-2.123,7.18-4.179c3.176-1.85,4.86-4.036,5.027-6.058.163-1.975-1.106-3.805-3.815-5.043" transform="translate(-22309 -4688.459)" fill="#e5eff9" fill-rule="evenodd" opacity="0.5"/>
    <path id="Path_130350" data-name="Path 130350" d="M322.189,663.81c-.215.186-.524.349-.872.624-.691,3.263-1,4.241-.7,4.5.249.208.2.081.423.669.3.8-1.933,4.939-2.169,6.162a4.216,4.216,0,0,0,.465,3.041,15.9,15.9,0,0,0,4.082,4.671c1.4,1.081,2.825,1.668,3.884,1.212,1.306-.562.845-1.741.414-2.912-.154-.419-1.155-1.221-1.17-1.658-.089-2.492,1.287-4.938,2.2-7.28a32.136,32.136,0,0,1,2.872-4.333c1.35-1.908,1.663-3.658-.4-4.371-.66-.228-2.476-1.634-3.233-1.427-1.449.4-4.135-.329-5.791,1.107" transform="translate(-22339.316 -4665.852)" fill="#04304f" fill-rule="evenodd"/>
    <g id="Group_59960" data-name="Group 59960" transform="translate(-22012.543 -4051.781)" clip-path="url(#clip-path-3)">
      <rect id="Rectangle_25947" data-name="Rectangle 25947" width="58.612" height="65.314" transform="translate(-13.664 3.439) rotate(-14.406)" fill="url(#linear-gradient-2)"/>
    </g>
    <g id="Group_59962" data-name="Group 59962" transform="translate(-22018.803 -4054.404)" clip-path="url(#clip-path-4)">
      <rect id="Rectangle_25948" data-name="Rectangle 25948" width="63.667" height="97.689" transform="matrix(0.968, -0.251, 0.251, 0.968, -24.58, 5.643)" fill="url(#linear-gradient-3)"/>
    </g>
    <path id="Path_130353" data-name="Path 130353" d="M369.947,740.542c-1.056,2.246,4.654,11.459,5.982,13.376,1.172,1.69,1.121,2.87-.829,3.266-1.536.312-4.392-1.414-6.15-2.562-3.3-2.155-3.97-4.855-5-5.866l-1.01-.126c-.769-.264-3.335-2.566-3.637-3.564a22.843,22.843,0,0,1,.543-2.965c1-3.093,1.559-1.928,3.242-4.02,2.6,1.228,1.1,2.194,6.859,2.462" transform="translate(-22361.271 -4706.699)" fill="#04304f" fill-rule="evenodd"/>
    <path id="Path_130354" data-name="Path 130354" d="M510.255,572.2c-6.262-3.467-11.739-11.864-12.234-18.763-.16-2.228-4.8-1.7-4-3,.5-.821,6.2-3.767,7.008-4.168,1.871-.926,4.476-.684,7.433.953,6.259,3.464,11.738,11.867,12.234,18.762.238,3.317-.719,5.681-2.472,6.857a72.353,72.353,0,0,1-6.942,3.971c-1.687.294,1.258-3.35-1.026-4.614" transform="translate(-22434.205 -4602.498)" fill="#0a3c5f" fill-rule="evenodd"/>
    <path id="Path_130355" data-name="Path 130355" d="M589.515,599.957l-4.275,1.724-4.425,3.562,2.261,2.13,3.84,1.248,4.132-1.387,4.568-3.9Z" transform="translate(-22481.273 -4631.871)" fill="#105b90" fill-rule="evenodd"/>
    <path id="Path_130356" data-name="Path 130356" d="M581.828,648.851l-4.813,2.478-3.886,2.807,4.662,7.15,3.639-1.854L586.49,656Z" transform="translate(-22477.109 -4658.359)" fill="#0a3c5f" fill-rule="evenodd"/>
    <path id="Path_130357" data-name="Path 130357" d="M529.722,659.405l1.306,7.306,8.7-5.286-.483-6.721Z" transform="translate(-22453.596 -4661.53)" fill="#0a3c5f" fill-rule="evenodd"/>
    <path id="Path_130358" data-name="Path 130358" d="M443.209,518.981l-8.7,5.286,6.1,4.79,8.7-6.7Z" transform="translate(-22402.016 -4588.002)" fill="#0d4d7a" fill-rule="evenodd"/>
    <path id="Path_130359" data-name="Path 130359" d="M505.557,578.755l8.569-7.04c-4.1,2.5-9.605.322-13.481-2.238a37.669,37.669,0,0,1-9.91-10.026c-3.37-4.876-6.081-10.786-6.576-16.592-.35-4.084.408-8.7,3.932-10.839L478,536.916c-16.082,10,11.471,51.9,27.56,41.839" transform="translate(-22422.934 -4595.067)" fill="#0a3c5f" fill-rule="evenodd"/>
    <path id="Path_130360" data-name="Path 130360" d="M579.853,669.74a15.416,15.416,0,0,1-2.918,2.3l8.7-5.286a15.3,15.3,0,0,0,1.523-1.056,15.7,15.7,0,0,0,1.395-1.241c-.007,0-7.946,4.827-8.7,5.285" transform="translate(-22479.172 -4666.813)" fill="#d3e5f6" fill-rule="evenodd"/>
    <path id="Path_130361" data-name="Path 130361" d="M470.191,477.645l-8.7,5.286L466.2,491.4l8.65-6.6Z" transform="translate(-22416.631 -4565.609)" fill="#13639b" fill-rule="evenodd"/>
    <path id="Path_130362" data-name="Path 130362" d="M457.136,482.93l8.7-5.285a16.257,16.257,0,0,0-3.683,1.63l-8.7,5.285a16.4,16.4,0,0,1,3.683-1.63" transform="translate(-22412.277 -4565.609)" fill="#105b90" fill-rule="evenodd"/>
    <path id="Path_130363" data-name="Path 130363" d="M586.152,624.322l-9.566,4.115c-.342,4.052-.76,9.442-3.458,12.412l8.7-5.286c2.7-2.98,3.994-7.17,4.325-11.241" transform="translate(-22477.109 -4645.071)" fill="#0d4d7a" fill-rule="evenodd"/>
    <path id="Path_130364" data-name="Path 130364" d="M484.131,499.236l8.7-5.285c-3.973-1.5-8.465-2.253-12.468-1.246l-8.7,5.285c3.847-.455,8,1.482,12.468,1.247" transform="translate(-22422.141 -4573.519)" fill="#13639b" fill-rule="evenodd"/>
    <path id="Path_130365" data-name="Path 130365" d="M571.367,584.95l8.7-5.286A65,65,0,0,0,573.7,562.5l-10.324,4.409c2.856,5.374,6.056,14.435,7.992,18.042" transform="translate(-22471.828 -4611.579)" fill="#0d4d7a" fill-rule="evenodd"/>
    <path id="Path_130366" data-name="Path 130366" d="M517.719,498.276l1.5,7.264,8.7-5.285-.483-6.728Z" transform="translate(-22447.094 -4574.213)" fill="#13639b" fill-rule="evenodd"/>
    <path id="Path_130367" data-name="Path 130367" d="M507.952,492.181l8.7-5.285a53.267,53.267,0,0,0-10.136-5.609l-8.7,5.286c3.133,2.041,5.8,5.032,10.136,5.609" transform="translate(-22436.311 -4567.582)" fill="#13639b" fill-rule="evenodd"/>
    <path id="Path_130368" data-name="Path 130368" d="M532.853,526.856l6.531-1.3,2.283-4.323a68.517,68.517,0,0,0-13.315-13.024l-9.83,5.625c4.981,3.619,10.531,8.191,14.331,13.023" transform="translate(-22447.527 -4582.167)" fill="#0d4d7a" fill-rule="evenodd"/>
    <path id="Path_130369" data-name="Path 130369" d="M566.459,548.609l8.7-5.286a94.724,94.724,0,0,0-7.735-11.861l-8.7,5.285c1.269,1.662,2.127,3.713,3.3,5.477,1.454,2.191,3.191,4.12,4.439,6.385" transform="translate(-22469.307 -4594.764)" fill="#13639b" fill-rule="evenodd"/>
    <g id="Group_59966" data-name="Group 59966" transform="translate(-21967.568 -4082.679)" clip-path="url(#clip-path-5)">
      <rect id="Rectangle_25950" data-name="Rectangle 25950" width="116.218" height="113.677" transform="translate(-43.582 55.148) rotate(-51.704)" fill="url(#linear-gradient-4)"/>
    </g>
    <path id="Path_130371" data-name="Path 130371" d="M602.722,607.327l-8.7,5.286c-.348,3.767.376,7.553.8,11.164l8.7-5.285a47.037,47.037,0,0,0-.8-11.164" transform="translate(-22488.381 -4635.864)" fill="#0d4d7a" fill-rule="evenodd"/>
    <g id="Group_59970" data-name="Group 59970" transform="translate(-21862.195 -4197.108)" clip-path="url(#clip-path-6)">
      <rect id="Rectangle_25952" data-name="Rectangle 25952" width="28.078" height="50.189" transform="translate(-0.587 26.993) rotate(-88.755)" fill="url(#linear-gradient-5)"/>
    </g>
    <g id="Group_59972" data-name="Group 59972" transform="translate(-21875.996 -4265.268)" clip-path="url(#clip-path-7)">
      <rect id="Rectangle_25953" data-name="Rectangle 25953" width="83.118" height="81.148" transform="translate(-3.697 0.058) rotate(-1.562)" fill="url(#linear-gradient-6)"/>
    </g>
    <g id="Group_59974" data-name="Group 59974" transform="translate(-21854.951 -4181.744)" clip-path="url(#clip-path-8)">
      <rect id="Rectangle_25954" data-name="Rectangle 25954" width="36.69" height="38.005" transform="matrix(0.999, -0.048, 0.048, 0.999, -1.745, 0.084)" fill="url(#linear-gradient-7)"/>
    </g>
    <path id="Path_130375" data-name="Path 130375" d="M686.378,277.9h0c6.36,3.57,16.527,3.466,22.71-.229a10.381,10.381,0,0,0,3.621-3.379,11.871,11.871,0,0,0,1.258-2.873l.887-1.621.015.063c.667,2.955-.921,6.057-4.788,8.368-6.716,4.015-17.76,4.126-24.669.249-4.251-2.386-5.944-5.724-5.055-8.876l.808,1.641a12.13,12.13,0,0,0,1.123,2.854,10.311,10.311,0,0,0,4.091,3.8" transform="translate(-22535.076 -4452.9)" fill="#1466a0" fill-rule="evenodd"/>
    <path id="Path_130376" data-name="Path 130376" d="M727.41,187.55l-1.6-.929L720.7,227.334l1.6.929Z" transform="translate(-22557.061 -4407.948)" fill="#f2a732" fill-rule="evenodd"/>
    <path id="Path_130377" data-name="Path 130377" d="M704.765,213.845l-1.6-.927,4.953,32.224,1.6.927Z" transform="translate(-22547.559 -4422.194)" fill="#f2a732" fill-rule="evenodd"/>
    <path id="Path_130378" data-name="Path 130378" d="M692.819,487.979l-5.063,2.042-5.241,4.219,7.228,4,4.894-1.641,5.41-4.619Z" transform="translate(-22536.371 -4571.208)" fill="#31accb" fill-rule="evenodd"/>
    <path id="Path_130379" data-name="Path 130379" d="M683.714,545.892l-5.7,2.936-4.6,3.325,5.522,8.468,4.31-2.195,5.994-4.064Z" transform="translate(-22531.439 -4602.582)" fill="#31accb" fill-rule="evenodd"/>
    <path id="Path_130380" data-name="Path 130380" d="M622,558.392l1.548,8.654,10.3-6.26-.572-7.961Z" transform="translate(-22503.586 -4606.338)" fill="#167b92" fill-rule="evenodd"/>
    <path id="Path_130381" data-name="Path 130381" d="M519.53,392.068l-10.3,6.26,7.226,4,10.3-6.26Z" transform="translate(-22442.492 -4519.248)" fill="#1d8fab" fill-rule="evenodd"/>
    <path id="Path_130382" data-name="Path 130382" d="M593.376,462.867l10.149-8.338c-4.861,2.964-11.377.381-15.968-2.651A44.611,44.611,0,0,1,575.82,440c-3.991-5.775-7.2-12.775-7.789-19.653-.413-4.837.483-10.3,4.658-12.838l-11.955,5.8c-19.048,11.842,13.587,61.467,32.643,49.556" transform="translate(-22467.271 -4527.615)" fill="#167b92" fill-rule="evenodd"/>
    <path id="Path_130383" data-name="Path 130383" d="M681.376,570.633a18.259,18.259,0,0,1-3.455,2.722l10.3-6.26a18.185,18.185,0,0,0,1.8-1.252,18.565,18.565,0,0,0,1.652-1.47c-.008,0-9.412,5.716-10.3,6.259" transform="translate(-22533.883 -4612.594)" fill="#167b92" fill-rule="evenodd"/>
    <path id="Path_130384" data-name="Path 130384" d="M551.487,343.108l-10.3,6.26,5.581,10.027,10.246-7.818Z" transform="translate(-22459.805 -4492.724)" fill="#31accb" fill-rule="evenodd"/>
    <path id="Path_130385" data-name="Path 130385" d="M536.026,349.367l10.3-6.26a19.291,19.291,0,0,0-4.363,1.931l-10.3,6.26a19.405,19.405,0,0,1,4.362-1.931" transform="translate(-22454.648 -4492.724)" fill="#167b92" fill-rule="evenodd"/>
    <path id="Path_130386" data-name="Path 130386" d="M688.837,516.838l-11.331,4.874c-.4,4.8-.9,11.184-4.1,14.7l10.3-6.261c3.2-3.529,4.731-8.492,5.123-13.314" transform="translate(-22531.439 -4586.842)" fill="#1d8fab" fill-rule="evenodd"/>
    <path id="Path_130387" data-name="Path 130387" d="M568,368.681l10.3-6.26c-4.705-1.778-10.026-2.669-14.767-1.476l-10.3,6.259c4.742-1.188,10.065-.294,14.768,1.477" transform="translate(-22466.332 -4502.092)" fill="#1d8fab" fill-rule="evenodd"/>
    <path id="Path_130388" data-name="Path 130388" d="M671.325,470.2l10.3-6.26a76.969,76.969,0,0,0-7.541-20.331l-12.229,5.221c3.384,6.365,8.044,14.419,9.466,21.37" transform="translate(-22525.18 -4547.172)" fill="#1d8fab" fill-rule="evenodd"/>
    <path id="Path_130389" data-name="Path 130389" d="M607.782,367.544l1.775,8.6,10.3-6.26-.573-7.969Z" transform="translate(-22495.885 -4502.915)" fill="#167b92" fill-rule="evenodd"/>
    <path id="Path_130390" data-name="Path 130390" d="M596.212,360.324l10.3-6.26a63.084,63.084,0,0,0-12.005-6.644l-10.3,6.26a63.162,63.162,0,0,1,12.005,6.644" transform="translate(-22483.113 -4495.06)" fill="#31accb" fill-rule="evenodd"/>
    <path id="Path_130391" data-name="Path 130391" d="M627.425,400.994l7.6-1.14,2.7-5.12a81.176,81.176,0,0,0-15.77-15.425l-10.3,6.26a81.288,81.288,0,0,1,15.77,15.425" transform="translate(-22497.982 -4512.335)" fill="#1d8fab" fill-rule="evenodd"/>
    <path id="Path_130392" data-name="Path 130392" d="M665.511,427.16l10.3-6.26a112.229,112.229,0,0,0-9.162-14.05l-10.3,6.26a113.959,113.959,0,0,1,9.162,14.05" transform="translate(-22522.195 -4527.256)" fill="#31accb" fill-rule="evenodd"/>
    <g id="Group_59978" data-name="Group 59978" transform="translate(-21933.342 -4143.356)" clip-path="url(#clip-path-9)">
      <rect id="Rectangle_25956" data-name="Rectangle 25956" width="136.119" height="129.867" transform="translate(-46.827 77.977) rotate(-59.036)" fill="url(#linear-gradient-8)"/>
    </g>
    <path id="Path_130394" data-name="Path 130394" d="M708.591,496.708l-10.3,6.26a56.1,56.1,0,0,1,.95,13.224l10.3-6.26a55.711,55.711,0,0,0-.95-13.224" transform="translate(-22544.916 -4575.936)" fill="#1d8fab" fill-rule="evenodd"/>
    <path id="Path_130395" data-name="Path 130395" d="M788.517,724.369l-5.3,2.137-5.485,4.415,7.564,4.187,5.122-1.719,5.663-4.834Z" transform="translate(-22587.953 -4699.271)" fill="#eca729" fill-rule="evenodd"/>
    <path id="Path_130396" data-name="Path 130396" d="M778.988,784.981l-5.966,3.072-4.818,3.479,5.78,8.863,4.511-2.3,6.274-4.253Z" transform="translate(-22582.791 -4732.107)" fill="#eca729" fill-rule="evenodd"/>
    <path id="Path_130397" data-name="Path 130397" d="M714.4,798.064l1.619,9.056,10.785-6.552-.6-8.332Z" transform="translate(-22553.643 -4736.039)" fill="#df9816" fill-rule="evenodd"/>
    <path id="Path_130398" data-name="Path 130398" d="M607.152,623.989l-10.785,6.552,7.563,4.186,10.785-6.552Z" transform="translate(-22489.701 -4644.891)" fill="#df9816" fill-rule="evenodd"/>
    <path id="Path_130399" data-name="Path 130399" d="M684.439,698.088l10.622-8.727c-5.087,3.1-11.907.4-16.712-2.775a46.7,46.7,0,0,1-12.284-12.427c-4.177-6.044-7.538-13.371-8.152-20.569-.433-5.062.506-10.781,4.875-13.436l-12.512,6.068c-19.935,12.394,14.22,64.332,34.165,51.865" transform="translate(-22515.635 -4653.647)" fill="#df9816" fill-rule="evenodd"/>
    <path id="Path_130400" data-name="Path 130400" d="M776.541,810.875a19.09,19.09,0,0,1-3.616,2.849l10.784-6.552a19.11,19.11,0,0,0,1.888-1.309,19.42,19.42,0,0,0,1.729-1.539c-.008,0-9.85,5.983-10.785,6.551" transform="translate(-22585.35 -4742.587)" fill="#df9816" fill-rule="evenodd"/>
    <path id="Path_130401" data-name="Path 130401" d="M640.6,572.748,629.814,579.3l5.84,10.493,10.724-8.182Z" transform="translate(-22507.82 -4617.13)" fill="#df9816" fill-rule="evenodd"/>
    <path id="Path_130402" data-name="Path 130402" d="M624.418,579.3l10.785-6.552a20.173,20.173,0,0,0-4.567,2.02l-10.784,6.552a20.288,20.288,0,0,1,4.566-2.021" transform="translate(-22502.424 -4617.131)" fill="#eca729" fill-rule="evenodd"/>
    <path id="Path_130403" data-name="Path 130403" d="M784.349,754.573l-11.86,5.1c-.423,5.022-.942,11.705-4.286,15.386l10.785-6.552c3.349-3.694,4.951-8.889,5.362-13.935" transform="translate(-22582.791 -4715.634)" fill="#df9816" fill-rule="evenodd"/>
    <path id="Path_130404" data-name="Path 130404" d="M657.881,599.512l10.784-6.552c-4.924-1.86-10.493-2.793-15.455-1.545l-10.785,6.551c4.963-1.243,10.534-.307,15.456,1.545" transform="translate(-22514.652 -4626.936)" fill="#eca729" fill-rule="evenodd"/>
    <path id="Path_130405" data-name="Path 130405" d="M766.021,705.766l10.785-6.552a80.553,80.553,0,0,0-7.893-21.278l-12.8,5.465c3.541,6.662,8.419,15.091,9.907,22.365" transform="translate(-22576.242 -4674.116)" fill="#df9816" fill-rule="evenodd"/>
    <path id="Path_130406" data-name="Path 130406" d="M699.517,598.323l1.858,9,10.784-6.551-.6-8.34Z" transform="translate(-22545.58 -4627.797)" fill="#eca729" fill-rule="evenodd"/>
    <path id="Path_130407" data-name="Path 130407" d="M687.408,590.766l10.785-6.552a65.972,65.972,0,0,0-12.565-6.954l-10.784,6.551a66.132,66.132,0,0,1,12.564,6.954" transform="translate(-22532.217 -4619.576)" fill="#df9816" fill-rule="evenodd"/>
    <path id="Path_130408" data-name="Path 130408" d="M720.076,633.33l7.954-1.193,2.83-5.358a84.941,84.941,0,0,0-16.5-16.144l-10.784,6.552a85.07,85.07,0,0,1,16.5,16.144" transform="translate(-22547.777 -4637.656)" fill="#df9816" fill-rule="evenodd"/>
    <path id="Path_130409" data-name="Path 130409" d="M759.936,660.717l10.783-6.552a117.516,117.516,0,0,0-9.588-14.7l-10.785,6.551a119.147,119.147,0,0,1,9.589,14.705" transform="translate(-22573.119 -4653.272)" fill="#eca729" fill-rule="evenodd"/>
    <g id="Group_59982" data-name="Group 59982" transform="translate(-21893.412 -4037.831)" clip-path="url(#clip-path-10)">
      <rect id="Rectangle_25958" data-name="Rectangle 25958" width="143.22" height="143.685" transform="translate(-55.504 53.582) rotate(-44.012)" fill="url(#linear-gradient-9)"/>
    </g>
    <path id="Path_130411" data-name="Path 130411" d="M805.024,733.505l-10.784,6.552a58.713,58.713,0,0,1,.994,13.84l10.784-6.552a58.323,58.323,0,0,0-.995-13.84" transform="translate(-22596.896 -4704.221)" fill="#df9816" fill-rule="evenodd"/>
    <path id="Path_130412" data-name="Path 130412" d="M779.76,575.808c-5.783-3.2-10.839-10.955-11.3-17.324-.148-2.058-4.431-1.571-3.695-2.768.466-.758,5.724-3.479,6.471-3.849,1.728-.855,4.133-.631,6.864.88,5.779,3.2,10.838,10.958,11.3,17.324.22,3.062-.664,5.245-2.282,6.33a66.849,66.849,0,0,1-6.41,3.667c-1.558.272,1.162-3.093-.947-4.26" transform="translate(-22580.885 -4605.55)" fill="#c3d8ee" fill-rule="evenodd"/>
    <path id="Path_130413" data-name="Path 130413" d="M852.944,601.432,849,603.024l-4.085,3.288,5.634,3.118,3.815-1.28,4.217-3.6Z" transform="translate(-22624.35 -4632.67)" fill="#daeafa" fill-rule="evenodd"/>
    <path id="Path_130414" data-name="Path 130414" d="M845.846,646.579l-4.444,2.289-3.589,2.591,4.3,6.6,3.36-1.711,4.673-3.168Z" transform="translate(-22620.502 -4657.128)" fill="#daeafa" fill-rule="evenodd"/>
    <path id="Path_130415" data-name="Path 130415" d="M797.735,656.324l1.206,6.746,8.033-4.88-.446-6.206Z" transform="translate(-22598.789 -4660.057)" fill="#c3d8ee" fill-rule="evenodd"/>
    <path id="Path_130416" data-name="Path 130416" d="M717.855,526.666l-8.033,4.88,5.633,3.118,8.033-4.88Z" transform="translate(-22551.164 -4592.166)" fill="#d3e5f6" fill-rule="evenodd"/>
    <path id="Path_130417" data-name="Path 130417" d="M775.422,581.856l7.912-6.5c-3.789,2.311-8.868.3-12.447-2.067a34.784,34.784,0,0,1-9.15-9.257c-3.112-4.5-5.615-9.959-6.072-15.32-.323-3.771.377-8.03,3.63-10.008l-9.32,4.52c-14.849,9.232,10.592,47.917,25.447,38.631" transform="translate(-22570.482 -4598.688)" fill="#c3d8ee" fill-rule="evenodd"/>
    <path id="Path_130418" data-name="Path 130418" d="M844.023,665.866a14.239,14.239,0,0,1-2.694,2.122l8.033-4.88a14.263,14.263,0,0,0,1.406-.976,14.54,14.54,0,0,0,1.288-1.146c-.006,0-7.337,4.457-8.033,4.88" transform="translate(-22622.406 -4664.934)" fill="#d3e5f6" fill-rule="evenodd"/>
    <path id="Path_130419" data-name="Path 130419" d="M742.768,488.5l-8.033,4.88,4.35,7.816,7.987-6.095Z" transform="translate(-22564.66 -4571.489)" fill="#daeafa" fill-rule="evenodd"/>
    <path id="Path_130420" data-name="Path 130420" d="M730.716,493.379l8.033-4.879a15.006,15.006,0,0,0-3.4,1.5l-8.033,4.88a15.127,15.127,0,0,1,3.4-1.505" transform="translate(-22560.641 -4571.489)" fill="#d3e5f6" fill-rule="evenodd"/>
    <path id="Path_130421" data-name="Path 130421" d="M849.839,623.929l-8.833,3.8c-.316,3.741-.7,8.719-3.193,11.46l8.032-4.88a17.6,17.6,0,0,0,3.994-10.379" transform="translate(-22620.502 -4644.858)" fill="#c3d8ee" fill-rule="evenodd"/>
    <path id="Path_130422" data-name="Path 130422" d="M755.639,508.434l8.033-4.88c-3.668-1.386-7.815-2.081-11.512-1.151l-8.033,4.88c3.7-.926,7.847-.229,11.512,1.151" transform="translate(-22569.748 -4578.792)" fill="#d3e5f6" fill-rule="evenodd"/>
    <path id="Path_130423" data-name="Path 130423" d="M836.188,587.576l8.033-4.88a60.012,60.012,0,0,0-5.878-15.849l-9.533,4.07c2.637,4.962,6.27,11.24,7.379,16.659" transform="translate(-22615.625 -4613.934)" fill="#c3d8ee" fill-rule="evenodd"/>
    <path id="Path_130424" data-name="Path 130424" d="M786.653,507.548l1.383,6.707,8.033-4.88-.446-6.212Z" transform="translate(-22592.787 -4579.433)" fill="#d3e5f6" fill-rule="evenodd"/>
    <path id="Path_130425" data-name="Path 130425" d="M777.633,501.92l8.033-4.88a49.18,49.18,0,0,0-9.358-5.179l-8.033,4.88a49.261,49.261,0,0,1,9.358,5.18" transform="translate(-22582.832 -4573.31)" fill="#daeafa" fill-rule="evenodd"/>
    <path id="Path_130426" data-name="Path 130426" d="M801.966,533.623l5.925-.889L810,528.743A63.288,63.288,0,0,0,797.7,516.718l-8.033,4.88a63.38,63.38,0,0,1,12.294,12.025" transform="translate(-22594.422 -4586.776)" fill="#d3e5f6" fill-rule="evenodd"/>
    <path id="Path_130427" data-name="Path 130427" d="M831.656,554.021l8.031-4.88a87.443,87.443,0,0,0-7.142-10.953l-8.032,4.88c1.172,1.534,1.964,3.428,3.044,5.057,1.343,2.024,2.947,3.8,4.1,5.9" transform="translate(-22613.297 -4598.408)" fill="#daeafa" fill-rule="evenodd"/>
    <g id="Group_59986" data-name="Group 59986" transform="translate(-21841.4 -4078.11)" clip-path="url(#clip-path-11)">
      <rect id="Rectangle_25960" data-name="Rectangle 25960" width="104.395" height="97.913" transform="translate(-32.767 66.574) rotate(-63.816)" fill="url(#linear-gradient-10)"/>
    </g>
    <path id="Path_130429" data-name="Path 130429" d="M865.238,608.237l-8.032,4.88a43.743,43.743,0,0,1,.74,10.309l8.033-4.88a43.452,43.452,0,0,0-.741-10.309" transform="translate(-22631.01 -4636.357)" fill="#d3e5f6" fill-rule="evenodd"/>
    <path id="Path_130430" data-name="Path 130430" d="M587.938,464.366c-7.256-4.017-13.6-13.746-14.175-21.739-.185-2.582-5.56-1.971-4.637-3.474.585-.951,10.462-6.289,11.4-6.752,2.166-1.07,4.735-.679,8.161,1.218,7.252,4.014,13.6,13.75,14.175,21.739.275,3.842-.382,6.47-2.412,7.831-.651.437-10.5,6.378-11.322,6.523-1.955.34,1.458-3.881-1.189-5.346" transform="translate(-22474.885 -4540.78)" fill="#167b92" fill-rule="evenodd"/>
    <path id="Path_130431" data-name="Path 130431" d="M578.638,475.261c-7.256-4.016-13.6-13.746-14.175-21.739s4.839-11.215,12.1-7.2,13.6,13.751,14.174,21.74-4.842,11.212-12.095,7.2" transform="translate(-22472.395 -4547.705)" fill="#289ebc" fill-rule="evenodd"/>
    <path id="Path_130432" data-name="Path 130432" d="M772.692,578.077c-5.746-3.181-10.771-10.886-11.225-17.216-.147-2.045-4.4-1.561-3.673-2.751.463-.753,8.285-4.98,9.027-5.347,6.856-3.391,22.24,20.049,15.778,24.382-.515.346-8.312,5.051-8.966,5.165-1.549.27,1.154-3.074-.942-4.233" transform="translate(-22577.107 -4606.123)" fill="#c3d8ee" fill-rule="evenodd"/>
    <path id="Path_130433" data-name="Path 130433" d="M765.328,586.552c-5.746-3.181-10.771-10.886-11.225-17.216s3.831-8.881,9.578-5.7,10.77,10.89,11.225,17.216-3.835,8.879-9.578,5.7" transform="translate(-22575.135 -4611.453)" fill="#d3e5f6" fill-rule="evenodd"/>
    <path id="Path_130434" data-name="Path 130434" d="M500.051,576.29c-6.309-3.492-11.826-11.951-12.324-18.9-.162-2.245-4.835-1.714-4.032-3.02.508-.827,9.1-5.469,9.91-5.871,7.768-3.844,23.261,22.788,17.323,26.768-.565.379-9.126,5.546-9.844,5.671-1.7.3,1.268-3.375-1.033-4.648" transform="translate(-22428.609 -4603.789)" fill="#0a3c5f" fill-rule="evenodd"/>
    <path id="Path_130435" data-name="Path 130435" d="M491.965,585.608c-6.309-3.492-11.826-11.951-12.324-18.9s4.207-9.751,10.516-6.259,11.825,11.955,12.323,18.9-4.21,9.748-10.516,6.259" transform="translate(-22426.445 -4609.654)" fill="#0f588c" fill-rule="evenodd"/>
    <path id="Path_130436" data-name="Path 130436" d="M666.473,703.04c-9.022-4.994-16.91-17.09-17.623-27.028-.231-3.21-6.913-2.45-5.765-4.318.727-1.183,13.006-7.819,14.171-8.4,2.693-1.333,6.448-.985,10.708,1.374,9.015,4.99,16.909,17.095,17.623,27.028.343,4.777-1.037,8.183-3.561,9.875-.81.543-13.049,7.93-14.076,8.11-2.431.423,1.812-4.826-1.478-6.647" transform="translate(-22514.938 -4665.768)" fill="#eca729" fill-rule="evenodd"/>
    <path id="Path_130437" data-name="Path 130437" d="M654.911,716.639c-9.021-4.994-16.91-17.09-17.623-27.028s6.016-13.943,15.038-8.951,16.909,17.1,17.622,27.028-6.021,13.94-15.037,8.951" transform="translate(-22511.84 -4674.429)" fill="#fac533" fill-rule="evenodd"/>
    <path id="Path_130438" data-name="Path 130438" d="M508.491,477.875c2.23-4.381.857-12.73-2.8-19.406-3.122-5.693-7.695-10.213-11.9-10.168a7.937,7.937,0,0,0-3.962.964,8.921,8.921,0,0,0-2.808,2.617,11,11,0,0,0-1.4,2.787c7.036-6.044,12.628-1.863,17.084,4.754,3.939,5.85,6.448,13.662,5.795,18.452m84.516-78.99c.3-8.087.8-16.168,1.129-24.254l5.329,8.85,2.928-1.764-9.654-16.033-10.7,15.351,2.8,1.955,5.88-8.437c-.339,7.077-.665,14.115-1.023,21.2-1.55,30.41-3.713,72.949,16.856,87.817-.889,18.777-2.645,36.292-6.751,48.207a31.35,31.35,0,0,1-5.218,9.97c-1.811,2.151-5.078,4.588-7.9,5.029-2,1.187-3.709,2.582-6.716,2.536,11.381,3.829,18.521-3.24,23.065-16.427,4.083-11.849,5.9-28.919,6.828-47.274.6.315,1.218.616,1.855.888,5.437,2.329,9.671,2.541,12.936,1.453a11.894,11.894,0,0,0,6.487-5.422,21.5,21.5,0,0,0,2.6-7.756c1.706-11.424-9.434-23.766-18.5-21.775-4.294.943-7.183,4.364-7.338,9.487-.137,5.967-.923,10.957-1.163,16.873-16.544-14.538-15.211-52.146-13.785-80.512Zm-85.331,80.169a7,7,0,0,0,2.537-.846c5.17-2.913,7.732-8.983,8.955-17.751,1.283-9.191,1.082-21.244.8-35.657-.2-10.184.909-16.259,2.816-20.1a12.608,12.608,0,0,1,9.577-7.022c4.607-.755,9.328,1.383,13.39,5.573a40.507,40.507,0,0,1,9.182,16.867,53.261,53.261,0,0,1,1.365,6.1c2.652,16.189,3.129,36.265,3.576,55.056.232,9.777.456,19.2.961,27.487a14.424,14.424,0,0,0-3.226,2.42c-.642-8.932-.886-19.175-1.139-29.826-.443-18.664-.917-38.605-3.536-54.59a49.836,49.836,0,0,0-1.285-5.711c-1.854-6.447-4.856-11.832-8.341-15.426a17.744,17.744,0,0,0-4.628-3.529c-3.858-1.954-9.182-3.3-14.806,1.3-1.55,1.494-2.343,4.029-2.1,7.369a22.956,22.956,0,0,0,1.7,6.877c-.115,2.082-.152,4.432-.1,7.085.288,14.58.491,26.777-.823,36.191-1.372,9.837-4.41,16.738-10.664,20.262a10.43,10.43,0,0,1-5.052,1.334,13.342,13.342,0,0,1-4.134-.64c.972-.484,3.037-1.678,4.981-2.827M610.49,469.38a19.079,19.079,0,0,1-1.823-6.542c-.191-2.645.449-4.631,1.678-5.814,3.761-2.771,7.55-1.419,9.059-.991,6.584,1.866,12.092,10.671,10.961,18.25a18.146,18.146,0,0,1-2.145,6.508,8.567,8.567,0,0,1-4.643,3.933c-2.512.838-5.929.606-10.519-1.359a23.2,23.2,0,0,1-3.01-1.56c.182-4.106.324-8.261.443-12.425" transform="translate(-22429.699 -4504.954)" fill="#b7d504" fill-rule="evenodd"/>
    <path id="Path_130439" data-name="Path 130439" d="M413.942,598.231a1.7,1.7,0,1,1-1.362-3.124l23.174-10.175,1.969.447,5.622,6.494,9.912-5.886a1.706,1.706,0,1,1,1.736,2.936l-11.134,6.612-2.156-.353-5.734-6.624Z" transform="translate(-22389.58 -4623.731)" fill="#13639b" fill-rule="evenodd"/>
    <g id="Group_59990" data-name="Group 59990" transform="translate(-22016.221 -4090.356)" clip-path="url(#clip-path-12)">
      <rect id="Rectangle_25962" data-name="Rectangle 25962" width="64.941" height="66.932" transform="translate(-19.038 36.706) rotate(-62.585)" fill="url(#linear-gradient-11)"/>
    </g>
    <g id="Group_59994" data-name="Group 59994" transform="translate(-22016.221 -4088.315)" opacity="0.25" style="mix-blend-mode: multiply;isolation: isolate">
      <g id="Group_59993" data-name="Group 59993" transform="translate(0 0)">
        <g id="Group_59992" data-name="Group 59992" clip-path="url(#clip-path-13)">
          <path id="Path_130441" data-name="Path 130441" d="M365.722,505.011c-2.181,2.331-4.471,4.534-6.9,6.858a56.016,56.016,0,0,1-7.414,6.11c-4.425,3.441-19.8,3.27-23.2-2.266a11.539,11.539,0,0,0,.895-2.8,13.522,13.522,0,0,1,1-5.754,195.4,195.4,0,0,1,12.19-22.973c2.121-3.5,4.5-6.021,7.493-7.3a8.851,8.851,0,0,1,5.446,2.573c2.649,2.865,3.353,8.31,3.783,16.891.311,6.188,3.3,8.33,6.716,8.666" transform="translate(-328.198 -476.881)" fill="#bdd1e7" fill-rule="evenodd"/>
        </g>
      </g>
    </g>
    <g id="Group_59997" data-name="Group 59997" transform="translate(-21991.467 -4081.756)" clip-path="url(#clip-path-14)">
      <rect id="Rectangle_25965" data-name="Rectangle 25965" width="44.325" height="28.039" transform="translate(-9.593 38.646) rotate(-76.059)" fill="url(#linear-gradient-12)"/>
    </g>
    <path id="Path_130443" data-name="Path 130443" d="M411.38,473.673c.217-.234.447-.459.683-.707.672-.709,1.452-2.416,2.838-4.136l-6.274-5.749-1.276-1.381a13.859,13.859,0,0,1-4.159,6.828c-1.3,2.673,3.826,5.729,6.51,7.386.562-.567,1.012-1.522,1.677-2.241" transform="translate(-22384.936 -4556.971)" fill="#e7a376" fill-rule="evenodd"/>
    <path id="Path_130444" data-name="Path 130444" d="M417.637,487.732c.286-.351.635-1.153,1.038-1.82.36-.6,1.449-1.992,1.588-2.4.6.38-.188,4.243.053,6.055a4.247,4.247,0,0,0-2.678-1.83" transform="translate(-22392.873 -4568.785)" fill="#daeafa" fill-rule="evenodd"/>
    <path id="Path_130445" data-name="Path 130445" d="M401.292,475.473c-.8,2.809,3.265,6.229,6.164,7.918-1.053.669-2.4,1.5-2.656,2.426-1.982-1.3-5.34-3.51-5.936-6.772a2.857,2.857,0,0,1,2.428-3.573" transform="translate(-22382.666 -4564.433)" fill="#daeafa" fill-rule="evenodd"/>
    <path id="Path_130446" data-name="Path 130446" d="M416,462.289c-.62-.908-2.23-2.894-2.763-3.763-1.166-1.9-.327-3.378.189-6.016-1.1-1.75-1.265-2.846-1-3.9a7.814,7.814,0,0,1,5.411-5.161,6.792,6.792,0,0,1,5.9,1.113c3.618,2.494,4.459,5.3,3.265,8.823a10.369,10.369,0,0,1-.894,1.678c-.5.6-.733.637-1.031,1.08a2.464,2.464,0,0,0-.375,1.231c-.1,1.309-3.762,6.054-4.787,6.3A4.111,4.111,0,0,1,416,462.289" transform="translate(-22389.99 -4546.944)" fill="#f0b186" fill-rule="evenodd"/>
    <g id="Group_60001" data-name="Group 60001" transform="translate(-21978.68 -4104.744)" clip-path="url(#clip-path-15)">
      <rect id="Rectangle_25967" data-name="Rectangle 25967" width="17.654" height="17.682" transform="matrix(0.864, -0.503, 0.503, 0.864, -5.975, 3.279)" fill="url(#linear-gradient-13)"/>
    </g>
    <path id="Path_130448" data-name="Path 130448" d="M413.528,458.214c-1.221-1.292-2.138.422-2.457,1.586-.219.8.4,1.059.316,1.737a1.528,1.528,0,0,0,.711,1.621c.919.453,1.069-1.189,1.243-1.78.567-.82.962-2.344.187-3.164" transform="translate(-22389.291 -4554.833)" fill="#f0b186" fill-rule="evenodd"/>
    <g id="Group_60005" data-name="Group 60005" transform="translate(-21974.633 -4106.367)" clip-path="url(#clip-path-16)">
      <rect id="Rectangle_25969" data-name="Rectangle 25969" width="14.678" height="19.01" transform="translate(-2.161 11.241) rotate(-79.119)" fill="url(#linear-gradient-14)"/>
    </g>
    <path id="Path_130450" data-name="Path 130450" d="M429.079,482.477c-.155-.075-.246-.022-.451-.045a1.553,1.553,0,0,0-.645-.152c-.441-.013-.58.192-1.224.126-.194-.02-.173.02-.016.16a4.105,4.105,0,0,0,1.793.574c.323,0,.284-.183.482-.275.148-.069.371-.238.061-.389" transform="translate(-22397.74 -4568.12)" fill="#ea9f6f" fill-rule="evenodd"/>
    <path id="Path_130451" data-name="Path 130451" d="M428.241,468.809a3.032,3.032,0,0,1-2.383-1.169,2.128,2.128,0,0,0,2.383,1.169" transform="translate(-22397.326 -4560.189)" fill="#aa6f48" fill-rule="evenodd"/>
    <path id="Path_130452" data-name="Path 130452" d="M436.711,471.1a2.25,2.25,0,0,0,1.554.111,1.629,1.629,0,0,1-1.612.008Z" transform="translate(-22403.176 -4562.065)" fill="#aa6f48" fill-rule="evenodd"/>
    <path id="Path_130453" data-name="Path 130453" d="M433.926,472.584a4.513,4.513,0,0,0-.11,2.031c.312,1.246-.18,1.527-1.284,1.289,1.227.073,1.212-.293,1.1-1.346a4.736,4.736,0,0,1,.3-1.973" transform="translate(-22400.943 -4562.867)" fill="#aa6f48" fill-rule="evenodd"/>
    <path id="Path_130454" data-name="Path 130454" d="M438.1,471.6c-.275.324-.717.3-.844-.115a2.18,2.18,0,0,0,.844.115" transform="translate(-22403.506 -4562.271)" fill="#aa6f48" fill-rule="evenodd"/>
    <path id="Path_130455" data-name="Path 130455" d="M427.226,469.1c.034.424.409.659.752.4a2.182,2.182,0,0,1-.752-.4" transform="translate(-22398.07 -4560.982)" fill="#aa6f48" fill-rule="evenodd"/>
    <path id="Path_130456" data-name="Path 130456" d="M422.933,593.371a3.108,3.108,0,0,1,1.27,1.485c.237.662-.61,2.144-1.136,2.612-.884.785-6.307,3.994-7.245,1.809-.148-.344,1.149-.779.587-1.847-.533-1.011-1.533-.357-2.441-1.816-.231-.373-.309-.542-.032-3.192a22.717,22.717,0,0,0-1.057-2.767l3.643-1.733c2.183,3.117,3.161,3.371,6.41,5.45" transform="translate(-22390.297 -4625.351)" fill="#f0b186" fill-rule="evenodd"/>
    <g id="Group_60009" data-name="Group 60009" transform="translate(-22000.672 -4088.027)" clip-path="url(#clip-path-17)">
      <rect id="Rectangle_25971" data-name="Rectangle 25971" width="38.865" height="58.524" transform="translate(-11.67 2.455) rotate(-12.338)" fill="url(#linear-gradient-15)"/>
    </g>
    <g id="Group_60011" data-name="Group 60011" transform="translate(-21770.338 -4183.319)" clip-path="url(#clip-path-18)">
      <rect id="Rectangle_25972" data-name="Rectangle 25972" width="34.716" height="40.178" transform="matrix(0.032, -0.999, 0.999, 0.032, -1.253, 33.455)" fill="url(#linear-gradient-16)"/>
    </g>
    <g id="Group_60013" data-name="Group 60013" transform="translate(-21961.029 -4222.333)" clip-path="url(#clip-path-19)">
      <rect id="Rectangle_25973" data-name="Rectangle 25973" width="46.399" height="40.064" transform="translate(-1.093 45.47) rotate(-88.654)" fill="url(#linear-gradient-17)"/>
    </g>
    <g id="Group_60015" data-name="Group 60015" transform="translate(-21796.6 -4128.453)" clip-path="url(#clip-path-20)">
      <rect id="Rectangle_25974" data-name="Rectangle 25974" width="44.275" height="36.639" transform="matrix(0.022, -1, 1, 0.022, -0.969, 43.469)" fill="url(#linear-gradient-18)"/>
    </g>
    <g id="Group_60017" data-name="Group 60017" transform="translate(-22031.688 -4185.506)" clip-path="url(#clip-path-21)">
      <rect id="Rectangle_25975" data-name="Rectangle 25975" width="71.836" height="42.746" transform="matrix(0.016, -1, 1, 0.016, -1.132, 71.165)" fill="url(#linear-gradient-19)"/>
    </g>
    <g id="Group_60019" data-name="Group 60019" transform="translate(-21772.297 -3977.496)" clip-path="url(#clip-path-22)">
      <rect id="Rectangle_25976" data-name="Rectangle 25976" width="54.002" height="32.134" transform="translate(-0.851 53.497) rotate(-89.088)" fill="url(#linear-gradient-20)"/>
    </g>
    <g id="Group_60021" data-name="Group 60021" transform="translate(-21944.113 -3969.337)" clip-path="url(#clip-path-23)">
      <rect id="Rectangle_25977" data-name="Rectangle 25977" width="44.275" height="36.639" transform="translate(-0.969 43.469) rotate(-88.723)" fill="url(#linear-gradient-21)"/>
    </g>
  </g>
</svg>
