<svg xmlns="http://www.w3.org/2000/svg" width="16.067" height="13.779" viewBox="0 0 16.067 13.779">
  <g id="Group_54965" data-name="Group 54965" transform="translate(0 0)">
    <path id="Path_124707" data-name="Path 124707" d="M.965,37.6a1.148,1.148,0,0,1,.2-.015H12.5l-.247-.115a2.3,2.3,0,0,1-.649-.46L8.424,33.835a1.19,1.19,0,0,1-.167-1.523,1.149,1.149,0,0,1,1.724-.149l5.748,5.748a1.15,1.15,0,0,1,0,1.626h0L9.981,45.285a1.15,1.15,0,0,1-1.724-.115,1.19,1.19,0,0,1,.167-1.523L11.6,40.462a2.3,2.3,0,0,1,.575-.42l.345-.155H1.228a1.19,1.19,0,0,1-1.213-.966A1.15,1.15,0,0,1,.965,37.6Z" transform="translate(0 -31.842)" fill="#fff"/>
  </g>
</svg>
