<svg xmlns="http://www.w3.org/2000/svg" xmlns:xlink="http://www.w3.org/1999/xlink" width="354.338" height="332.226" viewBox="0 0 354.338 332.226">
  <defs>
    <linearGradient id="linear-gradient" x1="0.464" y1="0.498" x2="1" y2="0.486" gradientUnits="objectBoundingBox">
      <stop offset="0" stop-color="#072c47"/>
      <stop offset="1" stop-color="#104e7a"/>
    </linearGradient>
    <linearGradient id="linear-gradient-2" x1="0.656" y1="0.517" x2="0.201" y2="0.495" gradientUnits="objectBoundingBox">
      <stop offset="0" stop-color="#105b91"/>
      <stop offset="1" stop-color="#0a3c5f"/>
    </linearGradient>
    <linearGradient id="linear-gradient-3" x1="0.497" y1="0.442" x2="0.864" y2="0.784" gradientUnits="objectBoundingBox">
      <stop offset="0" stop-color="#8fba61"/>
      <stop offset="1" stop-color="#799c54"/>
    </linearGradient>
    <linearGradient id="linear-gradient-4" x1="0.223" y1="0.632" x2="0.485" y2="0.474" xlink:href="#linear-gradient-3"/>
    <linearGradient id="linear-gradient-5" x1="0.517" y1="0.106" x2="0.389" y2="0.592" gradientUnits="objectBoundingBox">
      <stop offset="0" stop-color="#280200"/>
      <stop offset="1"/>
    </linearGradient>
    <linearGradient id="linear-gradient-6" x1="0.619" y1="0.459" x2="0.288" y2="0.834" gradientUnits="objectBoundingBox">
      <stop offset="0" stop-color="#3f2415"/>
      <stop offset="1" stop-color="#280200"/>
    </linearGradient>
    <linearGradient id="linear-gradient-7" x1="0.617" y1="0.435" x2="0.981" y2="0.69" xlink:href="#linear-gradient-3"/>
    <linearGradient id="linear-gradient-8" x1="0.082" y1="0.452" x2="0.967" y2="0.552" xlink:href="#linear-gradient-3"/>
    <linearGradient id="linear-gradient-9" x1="0.385" y1="0.519" x2="0.627" y2="0.462" xlink:href="#linear-gradient-3"/>
    <linearGradient id="linear-gradient-10" x1="0.523" y1="0.463" x2="0.398" y2="0.665" xlink:href="#linear-gradient-2"/>
    <linearGradient id="linear-gradient-11" x1="0.788" y1="0.323" x2="0.728" y2="0.358" gradientUnits="objectBoundingBox">
      <stop offset="0" stop-color="#31adcc"/>
      <stop offset="1" stop-color="#198aa6"/>
    </linearGradient>
    <linearGradient id="linear-gradient-12" x1="0.58" y1="0.306" x2="0.448" y2="0.624" xlink:href="#linear-gradient-11"/>
    <linearGradient id="linear-gradient-13" x1="0.503" y1="0.255" x2="0.497" y2="0.683" xlink:href="#linear-gradient-3"/>
    <linearGradient id="linear-gradient-14" x1="0.535" y1="0.411" x2="0.469" y2="0.579" gradientUnits="objectBoundingBox">
      <stop offset="0" stop-color="#fdd248"/>
      <stop offset="1" stop-color="#fabd23"/>
    </linearGradient>
    <linearGradient id="linear-gradient-15" x1="0.367" y1="0.852" x2="0.67" y2="0.05" xlink:href="#linear-gradient-11"/>
    <linearGradient id="linear-gradient-16" x1="0.505" y1="0.255" x2="0.497" y2="0.683" xlink:href="#linear-gradient-3"/>
    <linearGradient id="linear-gradient-17" x1="0.683" y1="0.408" x2="0.458" y2="0.695" xlink:href="#linear-gradient-3"/>
    <linearGradient id="linear-gradient-18" x1="0.577" y1="0.241" x2="0.432" y2="0.728" xlink:href="#linear-gradient-2"/>
    <linearGradient id="linear-gradient-19" x1="0.565" y1="0.33" x2="0.428" y2="0.687" xlink:href="#linear-gradient-11"/>
    <linearGradient id="linear-gradient-20" x1="0.542" y1="0.313" x2="0.425" y2="0.837" xlink:href="#linear-gradient-2"/>
    <linearGradient id="linear-gradient-21" x1="0.58" y1="0.48" x2="0.438" y2="0.579" xlink:href="#linear-gradient-2"/>
    <linearGradient id="linear-gradient-22" x1="0.518" y1="0.386" x2="0.467" y2="0.688" xlink:href="#linear-gradient-2"/>
    <linearGradient id="linear-gradient-23" x1="0.351" y1="0.015" x2="0.965" y2="0.77" xlink:href="#linear-gradient-2"/>
    <linearGradient id="linear-gradient-24" x1="0.065" y1="0.464" x2="0.951" y2="0.523" xlink:href="#linear-gradient-2"/>
    <linearGradient id="linear-gradient-25" x1="0.34" y1="0.634" x2="0.167" y2="0.754" xlink:href="#linear-gradient-3"/>
    <linearGradient id="linear-gradient-26" x1="0.591" y1="0.977" x2="0.4" y2="0.335" xlink:href="#linear-gradient-3"/>
    <linearGradient id="linear-gradient-27" x1="0.846" y1="0.601" x2="0.184" y2="0.413" xlink:href="#linear-gradient-3"/>
    <linearGradient id="linear-gradient-28" x1="0.477" y1="0.158" x2="0.502" y2="0.545" gradientUnits="objectBoundingBox">
      <stop offset="0" stop-color="#632e40"/>
      <stop offset="1" stop-color="#48202d"/>
    </linearGradient>
    <linearGradient id="linear-gradient-29" x1="0.585" y1="0.451" x2="0.279" y2="0.669" xlink:href="#linear-gradient-3"/>
  </defs>
  <g id="Group_61890" data-name="Group 61890" transform="translate(-1176.531 -1202.928)">
    <g id="Group_61888" data-name="Group 61888" transform="translate(1230.929 1202.928)">
      <g id="Group_61847" data-name="Group 61847" transform="translate(0 95.372)">
        <path id="Path_134580" data-name="Path 134580" d="M1302.787,1719.255l30.506-17.374c3.326-1.52,8.086-2.73,11.474-.966,3.087,1.606,8.173,4.895,10.421,6.177,1.708.974,7.637,4.527,3.944,6.535-10.863,5.907-21.615,12.551-32.646,18.552a15.479,15.479,0,0,1-8.343,1.279,22.1,22.1,0,0,1-9.035-2.69l-5.41-3.149c-2.393-1.393-3.661-3.041-3.788-4.564C1299.79,1721.565,1300.746,1720.186,1302.787,1719.255Z" transform="translate(-1299.097 -1572.975)" fill="#daeafa" fill-rule="evenodd"/>
        <path id="Path_134581" data-name="Path 134581" d="M1383.374,1486.483c-2.291-1.318-10.426-13.016-14.742-19.443-2.449-3.647-1.922-7.068,1.843-8.375,7.448-2.586,9.6,6.736,11.97,11.183,2.654,4.969,5.579,8.912,6.219,12.738C1389.134,1485.4,1385.759,1487.854,1383.374,1486.483Z" transform="translate(-1336.247 -1439.359)" fill="#b4cbe5" fill-rule="evenodd"/>
        <g id="Group_61837" data-name="Group 61837" transform="translate(14.672 58.689)">
          <path id="Path_134582" data-name="Path 134582" d="M1333.344,1721.522a13.715,13.715,0,0,1-.425,1.9,22.649,22.649,0,0,0-1.063,3.056c-.56,2.129.049,4.981-.711,7.993a3.261,3.261,0,0,0,.387,3.233c.755,1.042,2.184,2.714,4.11,2.651a2.971,2.971,0,0,0,2.058-.985,4.975,4.975,0,0,0,1.313-3.57,29.442,29.442,0,0,1-.2-4.109c.091-1.475.384-2.287.4-3.9.012-1.71-.054-4.063-.049-5.167Z" transform="translate(-1330.893 -1643.534)" fill="#04304f" fill-rule="evenodd"/>
          <path id="Path_134583" data-name="Path 134583" d="M1373.588,1699.9a10.1,10.1,0,0,0-1.07,4.276c.311,1.116,1.085,1.57,1.939,2.341l.614.135c1.508.829,1.987,3.735,3.371,5.058.976.934,2.957,1.442,4.928,1.824,2.105.409,4.134-.2,3.629-1.861-1.253-4.136-7.04-8.807-7.046-13.429Z" transform="translate(-1353.893 -1630.672)" fill="#04304f" fill-rule="evenodd"/>
          <path id="Path_134584" data-name="Path 134584" d="M1378.984,1586.978c-.373,7.924-2.516,22.753-2.47,30.561-2.081,2.029-6.117,1.4-7.376-.676-.621-7.185-1.294-17.392-1.278-21.334a30.908,30.908,0,0,1,1.312-9.246c-.934-8.67-5.61-20.5-4.189-28.657.624-3.583,3.08-7.439,3.846-10.4,5.7,7.276,10.3,3.789,12.762,3.156-.084,2.514.115,2.178-.04,4.821-.526,8.934-1.208,18.475-1.958,27.745A12.81,12.81,0,0,1,1378.984,1586.978Z" transform="translate(-1349.582 -1547.231)" fill-rule="evenodd" fill="url(#linear-gradient)"/>
          <path id="Path_134585" data-name="Path 134585" d="M1368.164,1603.046c-.189-3.12-.31-5.837-.3-7.516a30.929,30.929,0,0,1,1.312-9.246c-.934-8.67-5.61-20.5-4.189-28.657.624-3.583,3.08-7.439,3.846-10.4,5.7,7.276,10.3,3.789,12.762,3.156-.009.28-.015.525-.019.742l-7.9,5.719,1.919-.43c-.361,10.3-1.9,19.682-2.373,29.836a157.5,157.5,0,0,0-5.017,16.61Z" transform="translate(-1349.582 -1547.232)" fill="#04304f" fill-rule="evenodd" opacity="0.3"/>
          <path id="Path_134586" data-name="Path 134586" d="M1349.276,1595.376c-1.645,7.924-6.336,27.152-7.543,34.961-2.6,1.42-5.841.678-6.686-1.4.171-7.185.562-20.107,1.21-24.05a50.542,50.542,0,0,1,3.236-11.29c0-18.513-1.935-23.447.794-31.6,1.2-3.583,4.17-7.039,5.41-10,1.517,2.434,3.866,5.889,9.117,5.462.514-.042,4.969-3.163,6.422-3.521-2.137,11.014-7.807,25.4-10.707,37.413A14.2,14.2,0,0,1,1349.276,1595.376Z" transform="translate(-1333.188 -1549.865)" fill-rule="evenodd" fill="url(#linear-gradient-2)"/>
        </g>
        <path id="Path_134587" data-name="Path 134587" d="M1353.16,1460.752a4.3,4.3,0,0,1,1.64.428c3.968,1.855,5.446,8,6.44,13.43.862,4.707.589,8.6.74,12.951.121,3.471.791,6.644.864,9.932a10.523,10.523,0,0,1-.049,3.088,14.876,14.876,0,0,0-.159,2.473c-3.149,6.913-19.991,7.929-22.914,3.816a6.2,6.2,0,0,0,.49-1.882c-1.5-1.38-.539-5.252-.991-7.872a21.406,21.406,0,0,0-1.451-5.372c-2.88-5.885-6.637-10.307-7.643-14.908-.692-3.169,3.122-7.44,8.293-11.045C1343.394,1462.322,1350.323,1460.135,1353.16,1460.752Z" transform="translate(-1315.752 -1440.701)" fill-rule="evenodd" fill="url(#linear-gradient-3)"/>
        <path id="Path_134588" data-name="Path 134588" d="M1343.212,1521.608a6.014,6.014,0,0,1-3.49-1.92,6.211,6.211,0,0,0,.49-1.882c-1.5-1.379-.539-5.252-.99-7.872a21.369,21.369,0,0,0-1.452-5.372c-2.88-5.885-6.637-10.307-7.643-14.909-.366-1.676.529-3.661,2.218-5.692a5.562,5.562,0,0,1,4.484.851c2.878,2.435,3.554,8.133,4.441,12,1.346,5.868,5.307,3.824,8.191,2.292a9.767,9.767,0,0,1-5.064,2.74c-.67.167-1.214,1.482-1.114,2.829.3,4.029.722,9.154.722,13.255,5.494,1.991,11.915.378,14.966-.936-4.729,2.949-10.2,3.21-15.044,2.533A2.489,2.489,0,0,0,1343.212,1521.608Z" transform="translate(-1315.752 -1453.519)" fill-rule="evenodd" opacity="0.35" fill="url(#linear-gradient-4)"/>
        <g id="Group_61841" data-name="Group 61841" transform="translate(18.483)">
          <path id="Path_134589" data-name="Path 134589" d="M1372.309,1475.615c4.106,5.451,3.032,8.421,1.772,13.258-1.372,5.267,1.032,10.5,3.048,16.232a18.235,18.235,0,0,0,6.517,3.358,29.048,29.048,0,0,1,.1-7.752,16.056,16.056,0,0,1-3.964-8.84c-.347-5.5,1.362-10.778-6.238-17.224-.16-2.294-.583-2.651-1.1-2.774-.611-.144-.177-.379-1.643.471-.966.56-1.962,1.111-1.355,2.117C1369.913,1475.233,1370.441,1475.415,1372.309,1475.615Z" transform="translate(-1355.903 -1446.824)" fill="#1989a5" fill-rule="evenodd"/>
          <path id="Path_134590" data-name="Path 134590" d="M1360.282,1457.926c.034-.318.083-.636.123-.978.114-.973-.285-2.811-.206-5.024l-8.488-.845-1.854-.343a13.893,13.893,0,0,1,.764,7.979c.563,2.925,6.511,2.3,9.662,2.018C1360.393,1459.939,1360.18,1458.9,1360.282,1457.926Z" transform="translate(-1345.182 -1435.224)" fill="#e7a376" fill-rule="evenodd"/>
          <path id="Path_134591" data-name="Path 134591" d="M1372.625,1466.951c.02-.454-.183-1.308-.26-2.084-.069-.7-.034-2.47-.17-2.885.711-.056,2.4,3.518,3.679,4.828A4.251,4.251,0,0,0,1372.625,1466.951Z" transform="translate(-1357.524 -1441.438)" fill="#a8da74" fill-rule="evenodd"/>
          <path id="Path_134592" data-name="Path 134592" d="M1350.432,1467.141c1.047,2.733,6.362,3.038,9.7,2.653-.442,1.169-1.024,2.646-.673,3.542-2.37.151-6.394.391-8.833-1.869A2.865,2.865,0,0,1,1350.432,1467.141Z" transform="translate(-1345.006 -1444.289)" fill="#a8da74" fill-rule="evenodd"/>
          <path id="Path_134593" data-name="Path 134593" d="M1356.556,1440.519c-1.08-.222-4.558-.514-5.527-.84-1.783-.6-1.456-2.173-3.435-4.374-2.014-.491-2.9-1.167-3.437-2.115a7.834,7.834,0,0,1,.3-7.49,6.81,6.81,0,0,1,5.025-3.313c4.345-.727,6.907.708,8.5,4.077a10.325,10.325,0,0,1,.527,1.831c.063.782-.084.97.011,1.5a1.566,1.566,0,0,0,.572,1,6.687,6.687,0,0,1,1.059,3.389,14.251,14.251,0,0,1-.163,4.635C1359.659,1439.947,1358.291,1440.667,1356.556,1440.519Z" transform="translate(-1341.58 -1419.458)" fill="#f0b186" fill-rule="evenodd"/>
          <path id="Path_134594" data-name="Path 134594" d="M1352.193,1431.265c-1.15-.2-5.443-.979-7.335-1.406-1.935-.436-4.039-.885-5.083.579a8.625,8.625,0,0,0,.445,6.041c1.009,2.027,2.984,3.462,5.459,4.851.931.522-.076-2.476-.044-3.178.71.96,1.233,1.3,1.6,1.27.264-.021.583.043.173-1.33-.629-2.1.268-2.741-.625-3.977-.715-.991.054-1.074.164-1.579C1348.513,1432.148,1350.167,1432.491,1352.193,1431.265Z" transform="translate(-1339.408 -1423.455)" fill-rule="evenodd" fill="url(#linear-gradient-5)"/>
          <path id="Path_134595" data-name="Path 134595" d="M1349.235,1446.716c-1.78-.079-1.246,1.794-.664,2.855.4.729,1.026.483,1.439,1.031a1.532,1.532,0,0,0,1.642.672c.978-.315-.06-1.6-.346-2.149C1351.144,1448.139,1350.366,1446.766,1349.235,1446.716Z" transform="translate(-1344.165 -1433.002)" fill="#f0b186" fill-rule="evenodd"/>
          <path id="Path_134596" data-name="Path 134596" d="M1340.062,1423.222c1.326-.037,3.223.808,5.284,1.236,2.837.589,5.922.7,7.856-.5a4.684,4.684,0,0,0,2.106-2.543C1355.627,1412.589,1339.916,1415.755,1340.062,1423.222Z" transform="translate(-1339.769 -1416.07)" fill-rule="evenodd" fill="url(#linear-gradient-6)"/>
          <path id="Path_134597" data-name="Path 134597" d="M1374.52,1442.978c.939,1.438,2.232,1.557,2.456,1.858.236.317-.018,1.066-.741,1.552.615-.567.721-1.2.595-1.359C1376.428,1444.538,1375.407,1444.753,1374.52,1442.978Z" transform="translate(-1358.809 -1430.938)" fill="#aa6f48" fill-rule="evenodd"/>
          <g id="Group_61838" data-name="Group 61838" transform="translate(11.298 12.696)">
            <path id="Path_134598" data-name="Path 134598" d="M1364.657,1445.871a3.093,3.093,0,0,1,2.3-1.426A2.171,2.171,0,0,0,1364.657,1445.871Z" transform="translate(-1364.657 -1444.443)" fill="#aa6f48" fill-rule="evenodd"/>
            <path id="Path_134599" data-name="Path 134599" d="M1366.915,1446.016c.34-.1.291-.568.108-.79a.368.368,0,0,0-.4-.1.462.462,0,0,0-.333.456A.5.5,0,0,0,1366.915,1446.016Z" transform="translate(-1365.558 -1444.811)" fill="#aa6f48" fill-rule="evenodd"/>
          </g>
          <g id="Group_61839" data-name="Group 61839" transform="translate(15.865 10.126)">
            <path id="Path_134600" data-name="Path 134600" d="M1374.865,1439.762a1.243,1.243,0,0,1,1.182-1.063,1.86,1.86,0,0,0-1.135,1.19Z" transform="translate(-1374.865 -1438.699)" fill="#aa6f48" fill-rule="evenodd"/>
            <path id="Path_134601" data-name="Path 134601" d="M1376.1,1440.162c.34-.1.291-.568.108-.79a.368.368,0,0,0-.4-.1.462.462,0,0,0-.333.457A.5.5,0,0,0,1376.1,1440.162Z" transform="translate(-1375.201 -1439.007)" fill="#aa6f48" fill-rule="evenodd"/>
          </g>
          <g id="Group_61840" data-name="Group 61840" transform="translate(14.893 16.39)">
            <path id="Path_134602" data-name="Path 134602" d="M1375.979,1452.729c-.18.066-.207.18-.385.327a1.742,1.742,0,0,0-.62.4,3.421,3.421,0,0,1-2.281,1.111c1.119.063,2.772.459,3.466-.6.2-.3,0-.658.083-.888C1376.3,1452.907,1376.339,1452.6,1375.979,1452.729Z" transform="translate(-1372.693 -1452.697)" fill="#ea9f6f" fill-rule="evenodd"/>
            <path id="Path_134603" data-name="Path 134603" d="M1377.194,1453.65a4.191,4.191,0,0,1-2.454,1.39,4.005,4.005,0,0,0,2.51-.983l-.044-.362Z" transform="translate(-1373.824 -1453.224)" fill="#aa6f48" fill-rule="evenodd"/>
          </g>
        </g>
        <g id="Group_61842" data-name="Group 61842" transform="translate(0 29.767)">
          <path id="Path_134604" data-name="Path 134604" d="M1332.207,1561.161c.874.319,2.386.5,3.025.727.331.118,2.712,1.021,4.063,1.588,1.445.606,2.049,1.772,3.081,3a8.8,8.8,0,0,1,1.349,2.323c.2.563-1.057,1.968-1.71,1.953-1.483-.034-3.277-1.494-3.691-1.615-3.509-1.024-5.065-.886-6.475-1.973-.6-.464-1.226-2.045-2.53-3.319l1.6-2.151Z" transform="translate(-1315.352 -1526.006)" fill="#f0b186" fill-rule="evenodd"/>
          <path id="Path_134605" data-name="Path 134605" d="M1312,1484.8c-4.361,4.264-8.77,11.748-13.062,17.264-1.54,1.979-.706,3.618.512,5.408A55.1,55.1,0,0,0,1310,1519.513a3.338,3.338,0,0,0,1.416.519c.33.272.791.764,1.143,1.05-.436-.562,1.915-3.38,3.1-3.192-.3-.377-.384-.529-.7-.962a3.648,3.648,0,0,0-.255-1.35,47.685,47.685,0,0,0-7.165-10.451,75.028,75.028,0,0,0,9.416-9.245c.718-.828,1.1-1.231,1.81-2.091,3-3.649,2.13-8.793-.523-10.544C1316.684,1482.214,1314.671,1482.188,1312,1484.8Z" transform="translate(-1298.103 -1482.594)" fill-rule="evenodd" fill="url(#linear-gradient-7)"/>
        </g>
        <g id="Group_61846" data-name="Group 61846" transform="translate(36.401 16.945)">
          <g id="Group_61845" data-name="Group 61845">
            <path id="Path_134606" data-name="Path 134606" d="M1385.5,1466.246a20.464,20.464,0,0,0-3.1-3.329,7.843,7.843,0,0,1-2.573-5.241,1.532,1.532,0,0,1,1.043-1.451,7.172,7.172,0,0,1,1.017-.122,4.118,4.118,0,0,1,.994-1.223,1.053,1.053,0,0,1,1.268-.273,6.887,6.887,0,0,1,1.96.868,11.757,11.757,0,0,1,1.567,2.1,5.692,5.692,0,0,1,1,2.865c-.319,1.349-.7,1.667-.433,2.481l.722,2.193Z" transform="translate(-1379.658 -1454.255)" fill="#f0b186" fill-rule="evenodd"/>
            <g id="Group_61844" data-name="Group 61844">
              <path id="Path_134607" data-name="Path 134607" d="M1382.644,1455.81a3.725,3.725,0,0,1,.725-1.362,1.112,1.112,0,0,1,1.288-.469,7.268,7.268,0,0,1,2.176.625,12.449,12.449,0,0,1,1.943,1.97,6.863,6.863,0,0,1,1.258,2.2l-.8.182-1.818-.4C1384.578,1458.575,1383.1,1455.961,1382.644,1455.81Z" transform="translate(-1381.217 -1453.94)" fill="#f0b186" fill-rule="evenodd"/>
              <path id="Path_134608" data-name="Path 134608" d="M1392,1463.711c-.526.03-.365.139-.849-.068-.008.462-.33.938-.533.882a.821.821,0,0,1-.531-.61,1.505,1.505,0,0,1,.626-1.49,6.377,6.377,0,0,1,2-.165c.535-.007.771-.045.985.2a2.457,2.457,0,0,1,.4.788,2.323,2.323,0,0,1,.117,1.74C1393.573,1464.508,1392.939,1463.317,1392,1463.711Z" transform="translate(-1385.319 -1458.534)" fill="#e7a376" fill-rule="evenodd"/>
              <path id="Path_134609" data-name="Path 134609" d="M1382.335,1456.043a4.358,4.358,0,0,1,.863-1.423,1.625,1.625,0,0,1,.382-.368l2.766,3.786c-.239.315-.957,1.709.047,2.073A9.557,9.557,0,0,1,1382.335,1456.043Z" transform="translate(-1381.046 -1454.112)" fill="#e7a376" fill-rule="evenodd"/>
              <g id="Group_61843" data-name="Group 61843" transform="translate(0 1.616)">
                <path id="Path_134610" data-name="Path 134610" d="M1380.073,1461.1a7.48,7.48,0,0,1-.573-2.1,1.008,1.008,0,0,1,.685-1.316,7.554,7.554,0,0,1,1.074-.129l.7.122a1.255,1.255,0,0,1-.875,1.9,17.172,17.172,0,0,0,.714,3.321C1381.873,1463.159,1380.634,1462.322,1380.073,1461.1Z" transform="translate(-1379.454 -1457.551)" fill="#f0b186" fill-rule="evenodd"/>
                <path id="Path_134611" data-name="Path 134611" d="M1382.638,1457.753a1.73,1.73,0,0,1-1.957,1.583,1.5,1.5,0,0,0,1.6.178A1.073,1.073,0,0,0,1382.638,1457.753Z" transform="translate(-1380.132 -1457.663)" fill="#e7a376" fill-rule="evenodd"/>
              </g>
            </g>
          </g>
          <path id="Path_134612" data-name="Path 134612" d="M1389.259,1475.338c.542.733,4.121-.516,4.385-1.22l.654,1.3a7.377,7.377,0,0,1,1.314,1.258c3.213,4.9,4.371,9.508,5.78,15.234a3.839,3.839,0,0,1-5.208,4.593c-4.6-2.271-6.006-14.069-6.571-18.206-.039-.285.272-1.1.2-1.374C1389.647,1476.508,1389.372,1475.589,1389.259,1475.338Z" transform="translate(-1384.872 -1465.089)" fill-rule="evenodd" fill="url(#linear-gradient-8)"/>
          <path id="Path_134613" data-name="Path 134613" d="M1389.259,1476.843a.964.964,0,0,0,.81.221c.128.731.235,1.143.515,1.385a10.861,10.861,0,0,0,3.714-1.528,7.378,7.378,0,0,1-3.051,2.466c.224,2.584,3.23,16.817,7.983,18.613a3.645,3.645,0,0,1-3.047.005c-4.6-2.271-6.006-14.069-6.571-18.206-.04-.285.272-1.1.2-1.374C1389.647,1478.014,1389.372,1477.094,1389.259,1476.843Z" transform="translate(-1384.872 -1466.595)" fill-rule="evenodd" opacity="0.35" fill="url(#linear-gradient-9)"/>
        </g>
      </g>
      <path id="Path_134614" data-name="Path 134614" d="M1653.975,1764.958l-168.14-95.514c-4.466-2.138-10.857-3.9-15.407-1.631-4.146,2.068-10.975,6.335-14,7.992-2.293,1.26-10.254,5.858-5.3,8.66,14.587,8.249,156.2,88.78,171.013,97.158,2.8,1.584,6.9,2.224,11.2,1.96a29.155,29.155,0,0,0,12.132-3.351q3.693-2.067,7.265-4.071c3.212-1.8,4.917-3.978,5.086-6.019C1658,1768.149,1656.716,1766.269,1653.975,1764.958Z" transform="translate(-1381.778 -1459.21)" fill="#daeafa" fill-rule="evenodd"/>
      <g id="Group_61849" data-name="Group 61849" transform="translate(50.937)">
        <path id="Path_134615" data-name="Path 134615" d="M1412.2,1202.928l99.712,57.649-.257,98.215-99.714-57.658Z" transform="translate(-1411.939 -1202.928)" fill-rule="evenodd" fill="url(#linear-gradient-10)"/>
        <path id="Path_134616" data-name="Path 134616" d="M1603.71,1338.928l3.194-1.842,3.168,5.519c.856,1,1.865.442,1.486-.913l-3.171-5.459,3.187-1.844a1.551,1.551,0,0,0-1.477-2.505l-3.187,1.792h0l-3.168-5.459c-.718-1.021-1.917-.565-1.487.788l3.162,5.509-3.185,1.792A1.74,1.74,0,0,0,1603.71,1338.928Z" transform="translate(-1516.953 -1271.847)" fill="#fff" fill-rule="evenodd"/>
        <g id="Group_61848" data-name="Group 61848" transform="translate(5.065 16.889)">
          <path id="Path_134617" data-name="Path 134617" d="M1491.635,1350.332l48.194,27.711a7.026,7.026,0,0,1,3.157,5.423c.032,1.955-1.324,2.747-3.046,1.747L1491.75,1357.5a7.1,7.1,0,0,1-3.188-5.445c-.029-1.945,1.357-2.725,3.074-1.727Zm-.72-46.469,48.195,27.712a6.993,6.993,0,0,1,3.151,5.351l.081,5.016c.028,1.949-1.329,2.742-3.045,1.745l-48.195-27.713a7.086,7.086,0,0,1-3.185-5.374l-.076-5.01c-.034-1.95,1.357-2.725,3.074-1.728Zm.406,26.14c-1.718-1-3.1-.253-3.076,1.7a7.036,7.036,0,0,0,3.185,5.439l48.195,27.712c1.72,1,3.075.238,3.048-1.706a7,7,0,0,0-3.157-5.429Z" transform="translate(-1458.942 -1275.347)" fill="#fff" fill-rule="evenodd"/>
          <path id="Path_134618" data-name="Path 134618" d="M1424.079,1240.8c-.631-.37-1.021.145-.716.935l10.435,27.006a1.845,1.845,0,0,0,.728.9.535.535,0,0,0,.655.011l9.573-9.006c.4-.366,0-1.455-.675-1.85l-3.743-2.189a.546.546,0,0,0-.666-.013l-3.959,3.73a.543.543,0,0,1-.66-.015,1.808,1.808,0,0,1-.724-.9l-6.083-15.709a1.85,1.85,0,0,0-.724-.892Z" transform="translate(-1423.258 -1240.673)" fill="#fff" fill-rule="evenodd"/>
          <path id="Path_134619" data-name="Path 134619" d="M1427.383,1301.77c-.631-.37-1.021.145-.716.935l10.435,27.007a1.848,1.848,0,0,0,.728.9.537.537,0,0,0,.655.011l9.573-9.006c.4-.366,0-1.455-.676-1.85l-3.743-2.188a.547.547,0,0,0-.666-.013l-3.959,3.729a.543.543,0,0,1-.659-.014,1.806,1.806,0,0,1-.723-.9l-6.083-15.709a1.85,1.85,0,0,0-.724-.892Z" transform="translate(-1425.083 -1274.364)" fill="#fff" fill-rule="evenodd"/>
        </g>
      </g>
      <path id="Path_134620" data-name="Path 134620" d="M1655.414,1392.382c7.488,4.314,13.363,14.744,13.358,23.1l-.3,142.308c-.012,4.222-1.505,7.193-3.912,8.592l-4.156,2.538-2.365-1.591c-1.042-2.284-1.989-.86-2.025-2.3l-.618.359-3.7-87.566,4.019-54.7-.012,0c-3.382-5.911-16.394-11.068-13.357-23.138l-125.857-68.757-38.006-25.848h0c.194-.847-1.464-5.54-.6-6.063,1.378-.835,2.759-1.677,4.143-2.469,2.969-1.757,6.755-.671,9.534.932h0Z" transform="translate(-1397.295 -1254.322)" fill-rule="evenodd" fill="url(#linear-gradient-11)"/>
      <path id="Path_134621" data-name="Path 134621" d="M1468.523,1311.363c.024-8.5,6.042-11.937,13.444-7.662l163.864,94.606c7.394,4.271,13.381,14.639,13.358,23.138l-.319,142.318c-.024,8.5-6.05,11.932-13.446,7.662l-163.788-92.6c-7.4-4.275-13.382-14.639-13.358-23.137Z" transform="translate(-1392.131 -1257.594)" fill-rule="evenodd" fill="url(#linear-gradient-12)"/>
      <path id="Path_134622" data-name="Path 134622" d="M1863.589,1550.513l3.233,159.472,5.806-3.374.458-161.617-5.969,3.5Z" transform="translate(-1610.557 -1391.933)" fill="#bdd4ec" fill-rule="evenodd"/>
      <path id="Path_134623" data-name="Path 134623" d="M1562.693,1361.929l-91.78-51.744-5.831,3.438c4.292,27.233,25.753,46.177,93.98,50.747,2.478,12.059,9.614,21.612,23.238,29.477q2.39,1.381,5.052,2.694c14.583,7.19,55.876,24.02,56.037,24.231l3.388-1.921,6.11-3.6Z" transform="translate(-1390.365 -1262.192)" fill="#cce0f5" fill-rule="evenodd"/>
      <path id="Path_134624" data-name="Path 134624" d="M1464.546,1317.816l-.458,161.617c-.675,9,39.433,45.429,97.647,48.666l11.437-69.946-10.979-91.672C1517.587,1356.351,1465.939,1325.755,1464.546,1317.816Z" transform="translate(-1389.811 -1266.408)" fill="#e7f3ff" fill-rule="evenodd"/>
      <path id="Path_134625" data-name="Path 134625" d="M1682.782,1426.574l-.458,161.618c11.969,34.69,72.323,60.083,84.335,56.4l.458-161.617C1762.4,1484.241,1697.556,1451.2,1682.782,1426.574Z" transform="translate(-1510.401 -1326.501)" fill="#daeafa" fill-rule="evenodd"/>
      <g id="Group_61850" data-name="Group 61850" transform="translate(81.214 67.017)">
        <path id="Path_134626" data-name="Path 134626" d="M1479.7,1385.546l-.018,6.491,73.895,42.667.018-6.5Z" transform="translate(-1479.646 -1370.849)" fill="#fff" fill-rule="evenodd"/>
        <path id="Path_134627" data-name="Path 134627" d="M1479.6,1424.286l26.141,15.087.017-6.488-26.133-15.087Z" transform="translate(-1479.602 -1388.669)" fill="#fff" fill-rule="evenodd"/>
        <path id="Path_134628" data-name="Path 134628" d="M1529.311,1381.3l-49.533-28.6-.018,6.489,49.533,28.6Z" transform="translate(-1479.689 -1352.7)" fill="#fff" fill-rule="evenodd"/>
      </g>
      <g id="Group_61854" data-name="Group 61854" transform="translate(64.001 98.111)">
        <path id="Path_134629" data-name="Path 134629" d="M1464.765,1446.454l56.661,32.713-.145,39.206-56.672-32.722Z" transform="translate(-1454.105 -1435.597)" fill="#b1c5da" fill-rule="evenodd" opacity="0.35"/>
        <g id="Group_61853" data-name="Group 61853">
          <path id="Path_134630" data-name="Path 134630" d="M1444.878,1435.357l59.957,34.616-.126,34.057-59.958-34.619Z" transform="translate(-1443.132 -1429.465)" fill-rule="evenodd" fill="url(#linear-gradient-13)"/>
          <path id="Path_134631" data-name="Path 134631" d="M1482.768,1447.778a.706.706,0,1,1,.7-1.225l6.261,3.615a.707.707,0,0,1-.7,1.225l-6.26-3.615Zm9.418,5.457a.708.708,0,0,1,.71-1.226l3.48,2.01a.708.708,0,0,1-.71,1.226l-3.48-2.01Zm9.917,5.681,4.031,2.328-.135,37.479-63.45-36.609.137-37.476,36.7,21.189a.708.708,0,1,0,.71-1.225l-38.817-22.411c-.049,16.847-.1,23.893-.146,40.74,22.764,13.132,43.514,25.1,66.273,38.239.046-16.849.089-23.9.145-40.744l-4.738-2.735a.708.708,0,0,0-.711,1.226Z" transform="translate(-1441.134 -1422.19)" fill="#fff" fill-rule="evenodd"/>
          <g id="Group_61852" data-name="Group 61852" transform="translate(5.163 19.784)">
            <path id="Path_134632" data-name="Path 134632" d="M1461.633,1485.734c-4.574-2.531-8.573-8.664-8.935-13.7s3.05-7.069,7.624-4.538,8.573,8.667,8.934,13.7S1466.2,1488.263,1461.633,1485.734Z" transform="translate(-1452.672 -1466.405)" fill="#fff" fill-rule="evenodd"/>
            <g id="Group_61851" data-name="Group 61851" transform="translate(20.992 8.381)">
              <path id="Path_134633" data-name="Path 134633" d="M1499.633,1497.734l-.008,3.1,27.593,15.757.009-3.1Z" transform="translate(-1499.608 -1492.097)" fill="#fff" fill-rule="evenodd"/>
              <path id="Path_134634" data-name="Path 134634" d="M1499.586,1513.147l12.483,7.2.009-3.1-12.479-7.2Z" transform="translate(-1499.586 -1498.901)" fill="#fff" fill-rule="evenodd"/>
              <path id="Path_134635" data-name="Path 134635" d="M1523.323,1498.792l-23.653-13.657-.009,3.1,23.653,13.657Z" transform="translate(-1499.628 -1485.135)" fill="#fff" fill-rule="evenodd"/>
            </g>
          </g>
        </g>
      </g>
      <g id="Group_61855" data-name="Group 61855" transform="translate(203.86 136.622)">
        <path id="Path_134636" data-name="Path 134636" d="M1753.794,1508.256l-.017,6.491,43.041,24.562.018-6.5Z" transform="translate(-1753.741 -1508.256)" fill="#fff" fill-rule="evenodd"/>
        <path id="Path_134637" data-name="Path 134637" d="M1753.7,1553.457l26.141,15.087.018-6.488-26.133-15.088Z" transform="translate(-1753.697 -1529.646)" fill="#fff" fill-rule="evenodd"/>
      </g>
      <g id="Group_61859" data-name="Group 61859" transform="translate(177.002 151.503)">
        <path id="Path_134638" data-name="Path 134638" d="M1695.264,1552.8l73.148,42.438-.169,46.968-73.15-42.443Z" transform="translate(-1694.458 -1547.749)" fill="#b1c5da" fill-rule="evenodd" opacity="0.35"/>
        <g id="Group_61858" data-name="Group 61858">
          <path id="Path_134639" data-name="Path 134639" d="M1697.8,1556l65.98,38.094-.139,38.517-65.981-38.1Z" transform="translate(-1695.874 -1549.518)" fill-rule="evenodd" fill="url(#linear-gradient-14)"/>
          <g id="Group_61857" data-name="Group 61857" transform="translate(5.074 15.538)">
            <path id="Path_134640" data-name="Path 134640" d="M1829.661,1641.792l-1.727,1-1.713-2.984c-.463-.543-1.009-.239-.8.494l1.715,2.952-1.723,1a.839.839,0,0,0,.8,1.354l1.723-.969h0l1.714,2.952c.388.552,1.036.305.8-.426l-1.71-2.979,1.722-.969A.941.941,0,0,0,1829.661,1641.792Z" transform="translate(-1771.432 -1611.207)" fill="#fff" fill-rule="evenodd"/>
            <g id="Group_61856" data-name="Group 61856">
              <path id="Path_134641" data-name="Path 134641" d="M1705.06,1589.484l-.009,3.259,37.1,21.422.009-3.262Z" transform="translate(-1705.034 -1583.557)" fill="#fff" fill-rule="evenodd"/>
              <path id="Path_134642" data-name="Path 134642" d="M1705.012,1605.69l13.124,7.575.009-3.258-13.12-7.575Z" transform="translate(-1705.012 -1590.711)" fill="#fff" fill-rule="evenodd"/>
              <path id="Path_134643" data-name="Path 134643" d="M1729.969,1590.6l-24.869-14.36-.009,3.258,24.869,14.36Z" transform="translate(-1705.056 -1576.237)" fill="#fff" fill-rule="evenodd"/>
            </g>
          </g>
          <path id="Path_134644" data-name="Path 134644" d="M1739.491,1569.671a.778.778,0,1,1,.775-1.348l6.889,3.978a.777.777,0,1,1-.775,1.348l-6.89-3.978Zm10.365,6a.779.779,0,0,1,.781-1.349l3.83,2.211a.779.779,0,0,1-.781,1.349l-3.83-2.211Zm10.913,6.251,4.436,2.561-.149,42.282-69.825-40.287.151-42.277,40.388,23.318a.779.779,0,0,0,.781-1.349l-42.717-24.662c-.054,18.54-.111,27.331-.161,45.87,25.051,14.452,47.886,27.618,72.931,42.08.05-18.541.1-27.334.16-45.874l-5.213-3.01a.78.78,0,0,0-.782,1.349Z" transform="translate(-1693.673 -1541.513)" fill="#fff" fill-rule="evenodd"/>
        </g>
      </g>
      <g id="Group_61860" data-name="Group 61860" transform="translate(187.876 112.913)">
        <path id="Path_134645" data-name="Path 134645" d="M1729.636,1468.212l8.592-4.961-13.5-7.981-6.726,3.884C1722.9,1470.352,1718.651,1470.647,1729.636,1468.212Z" transform="translate(-1717.99 -1455.27)" fill="#157c95" fill-rule="evenodd"/>
        <path id="Path_134646" data-name="Path 134646" d="M1717.976,1640.91c1.44.7,4.023-.035,5.121-1.507.727,3.914,4.111,9.535,6.608,11.371V1472.955c-4.147-2.949-8.113-5.974-11.729-9.011V1640.91Z" transform="translate(-1717.976 -1460.063)" fill-rule="evenodd" fill="url(#linear-gradient-15)"/>
      </g>
      <g id="Group_61865" data-name="Group 61865" transform="translate(203.264 226.467)">
        <path id="Path_134647" data-name="Path 134647" d="M1756.856,1724.731l51.043,29.47-.156,55.136c-2.577.79-7.381.241-13.455-1.451l-37.61-21.716Z" transform="translate(-1754.748 -1717.713)" fill="#b1c5da" fill-rule="evenodd" opacity="0.35"/>
        <g id="Group_61864" data-name="Group 61864">
          <path id="Path_134648" data-name="Path 134648" d="M1801.963,1739.526a.842.842,0,0,1,.839-1.46l7.458,4.305a.842.842,0,0,1-.838,1.46l-7.459-4.305Zm11.219,6.5a.843.843,0,1,1,.846-1.46l4.146,2.394a.843.843,0,1,1-.846,1.46l-4.146-2.394Zm11.813,6.767,4.8,2.773-.162,56.323-75.584-43.61.163-56.318,43.719,25.242a.844.844,0,0,0,.846-1.46l-46.24-26.7q-.088,30.1-.175,60.207c27.118,15.644,51.836,29.9,78.947,45.552q.081-30.106.173-60.212l-5.643-3.259a.844.844,0,0,0-.846,1.46Z" transform="translate(-1752.365 -1709.046)" fill="#fff" fill-rule="evenodd"/>
          <g id="Group_61863" data-name="Group 61863" transform="translate(1.93 7.018)">
            <path id="Path_134649" data-name="Path 134649" d="M1756.829,1724.73l71.423,41.236-.15,52.247-71.424-41.24Z" transform="translate(-1756.678 -1724.73)" fill-rule="evenodd" fill="url(#linear-gradient-16)"/>
            <g id="Group_61862" data-name="Group 61862" transform="translate(4.951 12.274)">
              <g id="Group_61861" data-name="Group 61861">
                <path id="Path_134650" data-name="Path 134650" d="M1777.948,1774.4c-5.223-3.019-9.777-10.139-10.177-15.91s3.508-8,8.73-4.979,9.777,10.143,10.176,15.91S1783.167,1777.413,1777.948,1774.4Z" transform="translate(-1767.743 -1752.161)" fill="#fff" fill-rule="evenodd"/>
                <path id="Path_134651" data-name="Path 134651" d="M1773.654,1770.01a1.329,1.329,0,0,1,.528-1.193,1.312,1.312,0,0,1,1.356.119l2.326,1.334a12.09,12.09,0,0,0,3.434,3.146,4.5,4.5,0,0,0,3.3.718l1.646.944a4.13,4.13,0,0,1,1.872,3.243l0,1.827c-1.58,1.213-4.046,1.133-6.9-.519a21.924,21.924,0,0,1-7.561-8.024l0-1.594Zm7.549,2.029c2.443,1.412,4.274.37,4.087-2.331a10.529,10.529,0,0,0-4.764-7.447c-2.445-1.413-4.274-.369-4.087,2.331A10.522,10.522,0,0,0,1781.2,1772.039Z" transform="translate(-1771.008 -1757.393)" fill-rule="evenodd" fill="url(#linear-gradient-17)"/>
              </g>
              <path id="Path_134652" data-name="Path 134652" d="M1853.917,1800.758l-31.768-18.341c-1.972-1.139-3.58-.223-3.586,2.047l-.023,8.122a7.856,7.856,0,0,0,3.563,6.172l31.932,18.426c1.9,1,3.418.079,3.424-2.126l.023-8.123A7.859,7.859,0,0,0,1853.917,1800.758Z" transform="translate(-1795.81 -1768.608)" fill="#fff" fill-rule="evenodd"/>
            </g>
            <path id="Path_134653" data-name="Path 134653" d="M1765.17,1796.649c-.77-.444-1.4-.087-1.4.8l-.009,3.171a3.066,3.066,0,0,0,1.391,2.409q31.254,18.034,62.5,36.087c.741.39,1.335.031,1.337-.83l.009-3.171a3.067,3.067,0,0,0-1.392-2.411Q1796.387,1814.679,1765.17,1796.649Z" transform="translate(-1760.592 -1764.363)" fill="#fff" fill-rule="evenodd"/>
            <path id="Path_134654" data-name="Path 134654" d="M1765.17,1820.868c-.77-.444-1.4-.087-1.4.8l-.009,3.17a3.065,3.065,0,0,0,1.391,2.409q31.254,18.034,62.5,36.088c.741.39,1.335.03,1.337-.83l.009-3.171a3.067,3.067,0,0,0-1.392-2.411Q1796.387,1838.9,1765.17,1820.868Z" transform="translate(-1760.592 -1777.745)" fill="#fff" fill-rule="evenodd"/>
          </g>
        </g>
      </g>
      <g id="Group_61870" data-name="Group 61870" transform="translate(77.8 156.941)">
        <path id="Path_134655" data-name="Path 134655" d="M1472.137,1564.6c.013-4.373,3.11-6.143,6.919-3.943l65.492,34.3a15.164,15.164,0,0,1,6.874,11.907l-.482,49.987a6.2,6.2,0,0,1-.72,3.094,103.217,103.217,0,0,1-11.6-2.266l-59.775-34.5a15.159,15.159,0,0,1-6.875-11.907Z" transform="translate(-1471.973 -1557.009)" fill="#b1c5da" fill-rule="evenodd" opacity="0.35"/>
        <g id="Group_61869" data-name="Group 61869" transform="translate(0.274)">
          <g id="Group_61866" data-name="Group 61866">
            <path id="Path_134656" data-name="Path 134656" d="M1476.558,1558.27c0-1.171-.915-2.125-.509-2.878.439-.814,2.249-1.315,3.028-1.563a5.025,5.025,0,0,1,4,.728l61.377,35.423a14.281,14.281,0,0,1,6.474,11.214l-.155,43.953c-.006,2.018-.71,3.447-1.849,4.136a7.51,7.51,0,0,1-3.614,1.025c-.675-.116-.3-1.012-1.054-1.448l-61.377-35.423a14.275,14.275,0,0,1-6.474-11.213Z" transform="translate(-1474.442 -1553.667)" fill="#0a3c5f" fill-rule="evenodd"/>
            <path id="Path_134657" data-name="Path 134657" d="M1472.742,1559.938c.012-4.119,2.929-5.785,6.516-3.713l61.377,35.423a14.28,14.28,0,0,1,6.473,11.214l-.154,43.953c-.012,4.118-2.933,5.783-6.517,3.713L1479.06,1615.1a14.273,14.273,0,0,1-6.474-11.213Z" transform="translate(-1472.586 -1554.588)" fill-rule="evenodd" fill="url(#linear-gradient-18)"/>
          </g>
          <g id="Group_61867" data-name="Group 61867" transform="translate(2.241 51.049)">
            <path id="Path_134658" data-name="Path 134658" d="M1477.607,1668.146c0-.358.255-.5.566-.309l68.087,39.39a1.275,1.275,0,0,1,.562.988l-.013,1.084c0,.358-.255.5-.566.309l-68.086-39.39a1.275,1.275,0,0,1-.562-.988Z" transform="translate(-1477.594 -1667.753)" fill="#1980cb" fill-rule="evenodd" opacity="0.5"/>
            <path id="Path_134659" data-name="Path 134659" d="M1477.685,1668.244c0-.345.245-.479.545-.3l27.463,15.884a1.231,1.231,0,0,1,.542.952l-.013,1.046c0,.344-.246.478-.545.3l-27.463-15.884a1.233,1.233,0,0,1-.542-.952Z" transform="translate(-1477.636 -1667.815)" fill="#1980cb" fill-rule="evenodd"/>
          </g>
          <g id="Group_61868" data-name="Group 61868" transform="translate(24.178 30.44)">
            <path id="Path_134660" data-name="Path 134660" d="M1526.655,1622.79c0-.98.7-1.376,1.551-.883l18.9,10.909a3.4,3.4,0,0,1,1.541,2.668l-.037,16.411c0,.98-.7,1.376-1.55.884l-18.9-10.909a3.4,3.4,0,0,1-1.54-2.668Z" transform="translate(-1526.619 -1621.695)" fill-rule="evenodd" fill="url(#linear-gradient-19)"/>
            <path id="Path_134661" data-name="Path 134661" d="M1543.937,1640.458c-3.272-1.889-5.928-.371-5.939,3.385a13,13,0,0,0,5.9,10.223c3.268,1.887,5.928.371,5.938-3.388A13.007,13.007,0,0,0,1543.937,1640.458Z" transform="translate(-1532.906 -1631.614)" fill-rule="evenodd" fill="url(#linear-gradient-20)"/>
            <path id="Path_134662" data-name="Path 134662" d="M1545.584,1645.224l.007,6.8,5.866.48Z" transform="translate(-1537.098 -1634.696)" fill="#fff" fill-rule="evenodd"/>
          </g>
        </g>
      </g>
      <g id="Group_61872" data-name="Group 61872" transform="translate(77.818 248.649)">
        <path id="Path_134663" data-name="Path 134663" d="M1489.831,1770.5l-13.634-2.3h0l-3.873-.713c-.382-.072-.4-.05-.125.272l2.762,3.187,8.311,9.757,0-.015,3.168,4.009,104.936,62.134.006.007,0,0,.008,0,0-.007,4.891-3.086,1.7-7.109-3.188-4.029h0l-104.932-62.131Z" transform="translate(-1472.013 -1763.499)" fill="#daeafa" fill-rule="evenodd"/>
        <g id="Group_61871" data-name="Group 61871" transform="translate(0.51)">
          <path id="Path_134664" data-name="Path 134664" d="M1491.022,1761.723l-17.844-3.008,10.252,5.641,2.706.457Z" transform="translate(-1473.167 -1758.672)" fill="#fbddc4" fill-rule="evenodd"/>
          <path id="Path_134665" data-name="Path 134665" d="M1559.112,1823.06l-9.537-6.5-51.276-28.4,3.182,4.026q52.477,31.071,104.953,62.143l-1.156-2.329-2.026-1.7-21.868-14.906Z" transform="translate(-1487.047 -1774.941)" fill="#1989a5" fill-rule="evenodd"/>
          <path id="Path_134666" data-name="Path 134666" d="M1507,1765.38l-4.891,3.085,51.578,33.521,12.128,6.046,19.681,12.791,22.919,11.426,3.521-4.726-.005-.012Q1559.467,1796.446,1507,1765.38Z" transform="translate(-1489.153 -1762.355)" fill="#31accb" fill-rule="evenodd"/>
          <path id="Path_134667" data-name="Path 134667" d="M1500,1772.274l-1.706,7.108q52.477,31.07,104.952,62.143l2.385-3.108-.679-4Q1552.48,1803.347,1500,1772.274Z" transform="translate(-1487.046 -1766.164)" fill="#269cba" fill-rule="evenodd"/>
          <path id="Path_134668" data-name="Path 134668" d="M1473.177,1758.714l11.251,13.207,1.708-7.109Z" transform="translate(-1473.166 -1758.672)" fill="#f6c8a2" fill-rule="evenodd"/>
          <path id="Path_134669" data-name="Path 134669" d="M1477.337,1759.366l-3.873-.712c-.382-.072-.4-.05-.124.272l2.763,3.188C1475.813,1761.095,1475.572,1759.563,1477.337,1759.366Z" transform="translate(-1473.151 -1758.619)" fill="#1989a5" fill-rule="evenodd"/>
          <path id="Path_134670" data-name="Path 134670" d="M1739.4,1904.232l3.189,4.029-1.695,7.109-4.9,3.09-3.189-4.03,1.708-7.11,2.453-1.556Z" transform="translate(-1616.624 -1839.076)" fill="#1989a5" fill-rule="evenodd"/>
        </g>
      </g>
      <g id="Group_61875" data-name="Group 61875" transform="translate(237.49 47.285)">
        <path id="Path_134671" data-name="Path 134671" d="M1877.57,1356.022l-.119,41.673c-.008,3.041-2.181,4.281-4.829,2.752l-38.97-22.5a10.612,10.612,0,0,1-4.8-8.309l.163-57.63c.009-3.042,2.182-4.28,4.829-2.752l25.456,14.7Z" transform="translate(-1828.855 -1308.603)" fill="#daeafa" fill-rule="evenodd"/>
        <g id="Group_61873" data-name="Group 61873" transform="translate(5.102 16.998)">
          <path id="Path_134672" data-name="Path 134672" d="M1841.671,1352.856l18.948,10.938c.8.465,1.44.1,1.443-.8l.008-2.793a3.161,3.161,0,0,0-1.433-2.483l-18.948-10.94c-.782-.451-1.419-.065-1.421.835l-.008,2.8A3.112,3.112,0,0,0,1841.671,1352.856Z" transform="translate(-1840.259 -1346.59)" fill="#fff" fill-rule="evenodd" opacity="0.7"/>
          <path id="Path_134673" data-name="Path 134673" d="M1877.475,1398.029c.55.319,1,.063,1-.569l.006-1.967a2.179,2.179,0,0,0-.99-1.716l-36.226-20.916c-.55-.317-1-.063-1,.569l-.006,1.969a2.184,2.184,0,0,0,.991,1.715Z" transform="translate(-1840.258 -1361.031)" fill="#fff" fill-rule="evenodd" opacity="0.7"/>
          <path id="Path_134674" data-name="Path 134674" d="M1877.475,1419.972c.55.319,1,.063,1-.569l.006-1.967a2.178,2.178,0,0,0-.99-1.716l-36.226-20.916c-.55-.316-1-.063-1,.569l-.006,1.97a2.185,2.185,0,0,0,.991,1.716Z" transform="translate(-1840.258 -1373.155)" fill="#fff" fill-rule="evenodd" opacity="0.7"/>
          <path id="Path_134675" data-name="Path 134675" d="M1877.475,1441.914c.55.318,1,.064,1-.569l.006-1.967a2.178,2.178,0,0,0-.99-1.716l-36.226-20.916c-.55-.316-1-.063-1,.569l-.006,1.969a2.184,2.184,0,0,0,.991,1.716Z" transform="translate(-1840.258 -1385.279)" fill="#fff" fill-rule="evenodd" opacity="0.7"/>
          <path id="Path_134676" data-name="Path 134676" d="M1877.475,1464.691c.55.319,1,.064,1-.569l.006-1.967a2.179,2.179,0,0,0-.99-1.716l-36.226-20.916c-.55-.316-1-.063-1,.569l-.006,1.969a2.184,2.184,0,0,0,.991,1.716Z" transform="translate(-1840.258 -1397.864)" fill="#fff" fill-rule="evenodd" opacity="0.7"/>
        </g>
        <g id="Group_61874" data-name="Group 61874" transform="translate(29.14 15.23)">
          <path id="Path_134677" data-name="Path 134677" d="M1913.536,1383.211c-2.779-2.577-9.619-7.817-14.978-12.744-4.787-4.4-4.792-6.742-4.451-12.12l.993-15.707.217.125,18.234,32.047Z" transform="translate(-1893.979 -1342.64)" fill="#b1c5da" fill-rule="evenodd" opacity="0.5"/>
          <path id="Path_134678" data-name="Path 134678" d="M1915.113,1374.978l-13.5-7.792a10.621,10.621,0,0,1-4.817-8.322l.046-15.955Z" transform="translate(-1895.538 -1342.789)" fill="#daeafa" fill-rule="evenodd"/>
        </g>
      </g>
      <g id="Group_61887" data-name="Group 61887" transform="translate(170.983 28.466)">
        <g id="Group_61878" data-name="Group 61878" transform="translate(6.237 49.689)">
          <g id="Group_61876" data-name="Group 61876" transform="translate(32.502 33.922)">
            <path id="Path_134679" data-name="Path 134679" d="M1778.393,1460.649c.258,1.221.655,2.559.827,3.36a13.788,13.788,0,0,0,1.6,4.888,12.923,12.923,0,0,0,2.616,2.9c.026,1.3-2.714,1.376-4.158.431-.648.141-1.258-.328-2.1-1.519-3.091-1.831-3-3.092-4.076-6.08a6.043,6.043,0,0,0-1.731-2.193c-1.922-1.743-1.121-2.467.381-4.909a25.553,25.553,0,0,0,1.264-3.229c1.023-2.679,4.828,1.488,4.825,1.521a9.516,9.516,0,0,0-.108,1.794,7.456,7.456,0,0,0,.281,1.118C1778.167,1459.342,1778.257,1460,1778.393,1460.649Z" transform="translate(-1768.701 -1453.402)" fill="#e7a376" fill-rule="evenodd"/>
            <path id="Path_134680" data-name="Path 134680" d="M1780.164,1463.8c-1.776,1.214-7.447-1.81-6.641-3.12a1.872,1.872,0,0,0,.288-.7,3.146,3.146,0,0,0,.319-.875c1.28,1.431,4.09,2.372,5.421,1.486a9.368,9.368,0,0,0,.234,1.294Z" transform="translate(-1770.471 -1456.553)" fill="#e7f3ff" fill-rule="evenodd"/>
            <path id="Path_134681" data-name="Path 134681" d="M1766.856,1466.552a2.007,2.007,0,0,0,.1,1.2c1.139,2.772,1.656,1.864,2.548,3.339.867,1.434.418,1.969.954,3,1.256,2.753,3.549,5.025,6.354,5.519,1.888.333,4.2.078,4.7-1.275-.188-1.622-5.458-5.4-5.745-5.821-.914-1.324-4.514-9.856-7.009-8.692A4.752,4.752,0,0,0,1766.856,1466.552Z" transform="translate(-1766.799 -1459.099)" fill="#e7f3ff" fill-rule="evenodd"/>
            <path id="Path_134682" data-name="Path 134682" d="M1777.478,1464.834c.258,1.221.655,2.559.827,3.36a13.8,13.8,0,0,0,1.6,4.887,12.606,12.606,0,0,0,2.134,2.122c1.285,1.228.4,2.263-1.324,2.44a7.834,7.834,0,0,1-2.329-.126c-3.858-.869-5.91-5.236-6.949-8.133a6.577,6.577,0,0,0-1.727-2.414c-1.922-1.743-1.231-4.1.941-5.485a1.3,1.3,0,0,0,.468-.508c.516,1.834,3.905,3.482,6.17,2.848C1777.349,1464.159,1777.408,1464.5,1777.478,1464.834Z" transform="translate(-1767.786 -1457.587)" fill-rule="evenodd" fill="url(#linear-gradient-21)"/>
          </g>
          <g id="Group_61877" data-name="Group 61877" transform="translate(50.639 42.942)">
            <path id="Path_134683" data-name="Path 134683" d="M1815.924,1477.808c.9.864,1.982,1.745,2.577,2.31a13.792,13.792,0,0,0,4.074,3.137,12.9,12.9,0,0,0,3.8.923c.754,1.059-1.467,2.666-3.192,2.7a23.758,23.758,0,0,1-4.128-.033c-1.673-.241-2.778-.967-5.255-2.766a6.041,6.041,0,0,0-2.666-.836c-2.569-.357-2.316-1.407-2.45-4.271a6.033,6.033,0,0,0-1-3.07c-1.87-2.173,4.406-2.366,4.425-2.338a11.7,11.7,0,0,0,2.427,2.877C1815,1476.856,1815.448,1477.351,1815.924,1477.808Z" transform="translate(-1807.331 -1473.56)" fill="#e7a376" fill-rule="evenodd"/>
            <path id="Path_134684" data-name="Path 134684" d="M1817.112,1479.977c-.783,2-7.173,2.7-7.244,1.163a1.873,1.873,0,0,0-.157-.741,3.167,3.167,0,0,0-.229-.9c1.864.461,4.514-.528,5.114-2.01a13.743,13.743,0,0,0,1.124,1.122Z" transform="translate(-1808.52 -1475.729)" fill="#e7f3ff" fill-rule="evenodd"/>
            <path id="Path_134685" data-name="Path 134685" d="M1808.65,1490.675a2,2,0,0,0,.759.929c2.5,1.649,2.418.607,3.986,1.323,1.524.7,1.455,1.391,2.48,1.945,2.589,1.567,5.763,2.153,8.359.981,1.747-.788,3.51-2.3,3.164-3.7-1.069-1.234-7.55-1.384-8.026-1.573-1.5-.579-9.281-5.6-10.687-3.234A4.759,4.759,0,0,0,1808.65,1490.675Z" transform="translate(-1807.903 -1480.83)" fill="#e7f3ff" fill-rule="evenodd"/>
            <path id="Path_134686" data-name="Path 134686" d="M1816.7,1482.156c.9.864,1.982,1.745,2.576,2.311a13.792,13.792,0,0,0,4.075,3.137,12.582,12.582,0,0,0,2.959.551c1.754.292,1.606,1.644.28,2.762a7.837,7.837,0,0,1-2,1.209c-3.677,1.455-7.832-1-10.323-2.806a6.575,6.575,0,0,0-2.787-1.022c-2.569-.358-3.326-2.693-2.312-5.062a1.307,1.307,0,0,0,.1-.683c1.459,1.225,5.188.677,6.7-1.122C1816.215,1481.671,1816.454,1481.918,1816.7,1482.156Z" transform="translate(-1808.109 -1477.908)" fill-rule="evenodd" fill="url(#linear-gradient-22)"/>
          </g>
          <path id="Path_134687" data-name="Path 134687" d="M1745.459,1411.419c-.328-5.724-6.385-13.029-5.913-19.054.122-1.55.883-3.224,1.458-5.365a17.454,17.454,0,0,0-8.832,2.772l-5.844.382-5.819-3.654.2-6.869,3.811-1.055c6.965-.934,11.762-1.421,19.308-.464a10.99,10.99,0,0,1,3.842,1.315,3.567,3.567,0,0,1,1.341,1.392c1.121,2.048.684,4.852.356,8.034-.932,9.027.343,16.566,1.35,25.363C1750.894,1415.371,1746.366,1414.64,1745.459,1411.419Z" transform="translate(-1708.72 -1377.591)" fill-rule="evenodd" fill="url(#linear-gradient-23)"/>
          <path id="Path_134688" data-name="Path 134688" d="M1745.459,1412.7c-.328-5.724-6.385-13.029-5.913-19.054.122-1.55.883-3.224,1.458-5.365a17.454,17.454,0,0,0-8.832,2.772l-5.844.382-5.819-3.654.2-6.869,3.619-1a44.188,44.188,0,0,1,2.415,5.041c4.195-.533,15.915-2.057,17.309,1.113.55,1.251-.284,2.193.01,5.437a12.216,12.216,0,0,1,5.031,2.484c-.292,7.394.762,13.993,1.624,21.512C1750.894,1416.652,1746.366,1415.922,1745.459,1412.7Z" transform="translate(-1708.72 -1378.872)" fill="#0a3c5f" fill-rule="evenodd" opacity="0.3"/>
          <path id="Path_134689" data-name="Path 134689" d="M1713.2,1399.878c4.95-.117,8.61.154,12.889.328a3.292,3.292,0,0,1,2.546,1.012c1.117,1.285,1.186,3.722,2.443,6.95,2.192,5.631,9.518,10.654,14.042,15.174,1.452,1.134,5.051-.628,4.847-2.288-4.223-5.974-8.985-13.169-11.567-20.318-1.689-4.677-3.777-7.6-7.97-8.842a138.93,138.93,0,0,0-20.265-6.589,19.1,19.1,0,0,0,.119-5.306c-.165-1.305-.5-1.256-.8-2.063-1.772,4.078-9.43,5.609-14.438,4.4-1.481,4.149-1.672,11.372,4.166,15.377C1702.622,1400.057,1709.142,1399.974,1713.2,1399.878Z" transform="translate(-1694.162 -1377.783)" fill-rule="evenodd" fill="url(#linear-gradient-24)"/>
          <path id="Path_134690" data-name="Path 134690" d="M1713.2,1405.31c4.95-.117,8.61.154,12.888.328a3.291,3.291,0,0,1,2.546,1.012c1.117,1.285,1.186,3.722,2.443,6.95,2.192,5.631,9.518,10.654,14.042,15.174a1.759,1.759,0,0,0,.862.337c-2.7-3.365-7.36-9.279-10.927-14.683-3.546-5.371-6.1-9.384-6.763-11.421a35.02,35.02,0,0,0-11.484-1.592c-12.688.072-19.781.748-19.617-13.308a14.413,14.413,0,0,1-2.15-.34c-1.481,4.149-1.672,11.372,4.166,15.377C1702.622,1405.489,1709.142,1405.406,1713.2,1405.31Z" transform="translate(-1694.162 -1383.215)" fill="#0a3c5f" fill-rule="evenodd" opacity="0.3"/>
        </g>
        <g id="Group_61879" data-name="Group 61879" transform="translate(15.326 49.58)">
          <path id="Path_134691" data-name="Path 134691" d="M1715.278,1392.721l15.687,8.905c.255.18.378.015.54-.444l21.611-12.587c.171-.36.208-.751-.818-1.279l-14.212-7.907a2.462,2.462,0,0,0-2.28-.06l-21.331,11.713.008.7C1714.414,1392.068,1714.746,1392.432,1715.278,1392.721Z" transform="translate(-1714.473 -1378.313)" fill="#cce0f5" fill-rule="evenodd"/>
          <path id="Path_134692" data-name="Path 134692" d="M1715.278,1390.975l15.687,8.9c.255.18.378.015.539-.444l21.611-12.587c.172-.359.208-.75-.818-1.279l-14.212-7.908a2.461,2.461,0,0,0-2.28-.06l-21.146,12.153C1714.231,1390.094,1714.586,1390.6,1715.278,1390.975Z" transform="translate(-1714.473 -1377.348)" fill="#daeafa" fill-rule="evenodd"/>
          <path id="Path_134693" data-name="Path 134693" d="M1727.031,1396.354l11.942,6.78c.194.137.287.011.41-.338l19.316-11.245c.131-.274.158-.572-.623-.974l-10.819-6.02a1.876,1.876,0,0,0-1.736-.046l-18.962,10.914C1726.234,1395.684,1726.5,1396.067,1727.031,1396.354Z" transform="translate(-1721.073 -1381.199)" fill="#cce0f5" fill-rule="evenodd"/>
        </g>
        <path id="Path_134694" data-name="Path 134694" d="M1693.226,1313.056c3.685-.074,5.607.272,7,2.2a16.682,16.682,0,0,1,4.358,5.452c2.324,4.312,3.407,8.257,5.329,12.436,3.591,7.811,4.876,8.272,10.9,13.942a4.193,4.193,0,0,0-1.473,2.544c-6.839-3.419-10.5-5.616-12.94-8.595-1.8-2.194-2.84-4.571-4.692-8.5a2.224,2.224,0,0,1-.56-.039c.2,2.478.895,4.545,1.061,6.277a8.275,8.275,0,0,1-.258,2.183c.107.674.131,1.176.249,1.869-4.565,8.841-12.385,6.561-15.733,9.709l-.2-1.844a4.912,4.912,0,0,1-1.635-1.725,36.392,36.392,0,0,1-4.258-12.866c-.506-4.7.166-14.937,3.052-18.919l.092-.124.093-.122.1-.12.1-.118.1-.116.1-.114c.034-.038.068-.076.1-.113l.1-.11h0l.106-.109c.035-.036.072-.072.108-.107l.109-.105.112-.1.114-.1.115-.1.117-.1.119-.1h0c.04-.031.08-.063.121-.093l.123-.092h0q.062-.046.125-.089l.127-.088.129-.086c.043-.029.087-.056.131-.084l.133-.082.134-.08h0l.137-.078.139-.077h0l.14-.074h0l.142-.073.145-.071h0l.147-.069.149-.067h0l.15-.065.153-.063.155-.061.157-.06h0l.158-.057h0l.161-.055.163-.054.165-.052h0l.167-.05h0l.169-.048h0l.171-.046h0l.173-.044h0l.176-.042h0l.178-.041.18-.039h0l.182-.037h0l.184-.035.187-.033.189-.031h0l.191-.03h0l.193-.028h0l.2-.026h0l.2-.024h0l.2-.022.2-.02h0l.2-.018h0l.207-.017h0l.209-.015.211-.013h0l.213-.011h0l.216-.01.217-.007Z" transform="translate(-1680.223 -1292.239)" fill-rule="evenodd" fill="url(#linear-gradient-25)"/>
        <path id="Path_134695" data-name="Path 134695" d="M1697.991,1313.064c5.347-.108,8.768,2.836,11.362,7.647a49.564,49.564,0,0,1,2.309,4.994c-2.291-2.855-4.34-1.13-6.845-1.873-2.591-.768-3.739-2.708-4.491-3.047-2.96-1.335-5.683.29-7.918-.108-3.013-.537-4.424-2.836-3.009-4.847C1691.349,1314.052,1694.145,1313.141,1697.991,1313.064Z" transform="translate(-1684.987 -1292.246)" fill-rule="evenodd" opacity="0.5" fill="url(#linear-gradient-26)"/>
        <path id="Path_134696" data-name="Path 134696" d="M1694.725,1362.372a37.031,37.031,0,0,0-4.646,3.553c-4.691-2.937-9.134-10.613-9.7-15.9a46.277,46.277,0,0,1,.322-10.24c1.446-.38,3.842-.759,3.91-1.517Z" transform="translate(-1680.223 -1306.177)" fill-rule="evenodd" opacity="0.5" fill="url(#linear-gradient-27)"/>
        <path id="Path_134697" data-name="Path 134697" d="M1696.66,1272.954c-.7-4.564,4.245-6.425,8.3-6.41,8.629.031,8.911,5.008,17.484,2.179,6.665-2.2,13.6-2.292,18.52,2.378,5.317,5.049,5.271,13.65-3.417,14.581-5.794.621-7.948-3.779-15.993.149-8.779,4.285-10.216,4.387-20.075,2.076C1693.331,1285.192,1689.885,1275.9,1696.66,1272.954Z" transform="translate(-1687.315 -1266.544)" fill-rule="evenodd" fill="url(#linear-gradient-28)"/>
        <path id="Path_134698" data-name="Path 134698" d="M1709.708,1288.106c-1.03,2.785-4.665,5.42-7.308,6.079-.072-2.026-2.086-2.666-2.836-1.471-.4.642-.893,2.185-1.576,2.281-1.33.187-3.024-1.414-3.631-2.123a12.734,12.734,0,0,0,7.841,6.949c9.859,2.311,11.3,2.208,20.075-2.077,8.046-3.928,10.2.472,15.994-.149,2.91-.312,4.85-1.484,5.944-3.094-5.975.739-10.419-4.2-17.7-4.285-5.538-.065-14.836,6.734-16.087,4.322C1709.67,1293.085,1711.557,1290.894,1709.708,1288.106Z" transform="translate(-1688.033 -1278.458)" fill="#401d29" fill-rule="evenodd"/>
        <g id="Group_61880" data-name="Group 61880" transform="translate(0.522 29.846)">
          <path id="Path_134699" data-name="Path 134699" d="M1732.513,1398.151c.1.031,1.912.676,2.063.75.3.147.656.34.892.424,1.978.71,4.24.929,4.647,1.183a22.665,22.665,0,0,1,3.317,2.143c.345.441.647.786,1.676,2.186.5.678-.519.841-.643.787-.6-.26-.994-1.334-1.755-1.943a9.465,9.465,0,0,0-1.767-1.044,12.785,12.785,0,0,1,1.541,1.435,9.962,9.962,0,0,1,1.05,2.011c.252.636-.337.962-.556.746a22.9,22.9,0,0,1-1.465-2.1c-.77-.4-1.123-.7-1.988-1.133l1.447,1.461,1.073,1.911c.344.69-.279.972-.662.6a14.511,14.511,0,0,1-1.254-1.781c-.466-.311-1.118-.9-1.774-1.428l.831,1.275a9.037,9.037,0,0,1,1.008,1.41c.166.359-.146.758-.687.276-.415-.369-1.01-1.013-1.2-1.2a8.333,8.333,0,0,0-2.248-1.672c-.83-.609-1.816-1.965-2.692-2.495a14.313,14.313,0,0,0-2.274-.922Z" transform="translate(-1708.854 -1369.108)" fill="#f0b186" fill-rule="evenodd"/>
          <path id="Path_134700" data-name="Path 134700" d="M1708.019,1363.338c-1.194.349-1.727,2.118-1.607,3.213-7.2-2.268-12.954-3.752-18.758-9.094-4.447-4.092-6.587-11.283-6.226-20.883.136-3.609,7.853-5.5,8.848.8,1.082,6.85,1.778,10.493,5.31,15.514A28.688,28.688,0,0,0,1708.019,1363.338Z" transform="translate(-1681.388 -1333.245)" fill-rule="evenodd" fill="url(#linear-gradient-29)"/>
        </g>
        <g id="Group_61882" data-name="Group 61882" transform="translate(31.231 40.031)">
          <path id="Path_134701" data-name="Path 134701" d="M1782.376,1356.49c-.229-.129-.413-.322-.641-.451-.125-.128-.6.14-1.209.5l-19.8,11.913c-1.374.82-1.192.572-1.907,2q-4.17,8.323-8.324,16.66c-.366.819-.549,1.252-.441,1.349l.674.476Z" transform="translate(-1750.018 -1356.007)" fill="#daeafa" fill-rule="evenodd"/>
          <path id="Path_134702" data-name="Path 134702" d="M1760.285,1371.5l-8.324,16.66c-.689,1.543-.731,1.716.605.855l20.119-12.086c1.249-.744,1.035-.675,1.692-1.979L1782.89,1358c.79-1.378.128-1.034-.893-.421l-19.805,11.913C1760.818,1370.317,1761,1370.069,1760.285,1371.5Z" transform="translate(-1750.831 -1356.582)" fill="#cce0f5" fill-rule="evenodd"/>
          <g id="Group_61881" data-name="Group 61881" transform="translate(18.821 8.954)">
            <path id="Path_134703" data-name="Path 134703" d="M1793,1376.029c-.169-.06-.49.127-.717.419s-.274.577-.1.636.49-.127.717-.418S1793.172,1376.089,1793,1376.029Z" transform="translate(-1792.08 -1376.018)" fill="#cddff2" fill-rule="evenodd"/>
            <path id="Path_134704" data-name="Path 134704" d="M1793.1,1376.548c-.1-.034-.277.072-.405.237s-.155.326-.059.36.277-.072.4-.236S1793.195,1376.582,1793.1,1376.548Z" transform="translate(-1792.355 -1376.307)" fill="#0b4473" fill-rule="evenodd"/>
            <path id="Path_134705" data-name="Path 134705" d="M1793.141,1376.766c-.064-.023-.187.049-.274.16s-.1.22-.04.243.187-.049.274-.16S1793.2,1376.789,1793.141,1376.766Z" transform="translate(-1792.471 -1376.429)" fill="#1989a5" fill-rule="evenodd"/>
            <path id="Path_134706" data-name="Path 134706" d="M1793.178,1376.969c-.036-.013-.1.027-.152.089s-.058.122-.022.135.1-.027.151-.089S1793.214,1376.982,1793.178,1376.969Z" transform="translate(-1792.579 -1376.542)" fill="#daeafa" fill-rule="evenodd"/>
          </g>
        </g>
        <g id="Group_61886" data-name="Group 61886" transform="translate(9.282 11.081)">
          <g id="Group_61884" data-name="Group 61884" transform="translate(0.448)">
            <path id="Path_134707" data-name="Path 134707" d="M1704.113,1300.957a14.854,14.854,0,0,1-2.145,6.179,5.933,5.933,0,0,0,4.517,1.6c.217-.045.273-.675.434-.743.124-.89.394-2.263.569-3.162Z" transform="translate(-1701.968 -1296.64)" fill="#e7a376" fill-rule="evenodd"/>
            <path id="Path_134708" data-name="Path 134708" d="M1716.695,1291.308a6.272,6.272,0,0,1-.973,4.308,1.845,1.845,0,0,0-.32.986,4.054,4.054,0,0,1-1.277,3.292c-.892,1.009-1.17,1.628-1.764,1.832a2.583,2.583,0,0,1-1.8-.217,10.329,10.329,0,0,1-3.343-3.148c-.574-.815-.4-1.093-.365-2-.634-1.507.43-1.858.836-1.748,1.166.316.735,1.627,1.232,2.208C1712.751,1296.784,1715.766,1292.644,1716.695,1291.308Z" transform="translate(-1704.557 -1291.308)" fill="#f0b186" fill-rule="evenodd"/>
            <path id="Path_134709" data-name="Path 134709" d="M1719.492,1291.308a8.42,8.42,0,0,1-7.776,5.514C1715.548,1296.784,1718.563,1292.644,1719.492,1291.308Z" transform="translate(-1707.354 -1291.308)" fill="#e7a376" fill-rule="evenodd"/>
            <g id="Group_61883" data-name="Group 61883" transform="translate(6.498 4.159)">
              <path id="Path_134710" data-name="Path 134710" d="M1724.264,1301.2a7.034,7.034,0,0,0,1.784-.594C1725.553,1301.007,1724.884,1301.485,1724.264,1301.2Z" transform="translate(-1720.786 -1300.603)" fill="#401c28" fill-rule="evenodd"/>
              <path id="Path_134711" data-name="Path 134711" d="M1718.365,1302.275a7.077,7.077,0,0,1-1.875.14C1717.1,1302.6,1717.9,1302.781,1718.365,1302.275Z" transform="translate(-1716.49 -1301.527)" fill="#401c28" fill-rule="evenodd"/>
              <path id="Path_134712" data-name="Path 134712" d="M1718.936,1309.748a2.3,2.3,0,0,0-.636.017,2.848,2.848,0,0,1-1.394-.2,2.4,2.4,0,0,0,1.875.685C1718.87,1310.234,1719.228,1309.8,1718.936,1309.748Z" transform="translate(-1716.72 -1305.556)" fill="#ec8780" fill-rule="evenodd"/>
              <path id="Path_134713" data-name="Path 134713" d="M1723.177,1302.975c.041,1.333.862,1.765-.415,2.084C1724.321,1305.033,1723.365,1304.26,1723.177,1302.975Z" transform="translate(-1719.955 -1301.914)" fill="#e7a376" fill-rule="evenodd"/>
            </g>
          </g>
          <g id="Group_61885" data-name="Group 61885" transform="translate(0 9.664)">
            <path id="Path_134714" data-name="Path 134714" d="M1709.706,1319.722c1.525,3.97.376,5.709-.9,8.246-1.6,3.189-.967,7.254-.363,10.97a12.965,12.965,0,0,0,3.235,3.334,15.9,15.9,0,0,1,1.253-4.32,13.777,13.777,0,0,1-1.3-7.033c.474-3.186,2.433-6.26-.95-11.567.078-.392.182-.522.2-.7.074-.867-.714-.622-1.146-.528-.5.109-1.8.533-.76,1.287A3.3,3.3,0,0,0,1709.706,1319.722Z" transform="translate(-1704.741 -1315.728)" fill="#1989a5" fill-rule="evenodd"/>
            <path id="Path_134715" data-name="Path 134715" d="M1710.672,1319.722a9.128,9.128,0,0,1,.724,3.648c.122.046.245.1.368.151a17.977,17.977,0,0,1,1.828,1.6,10.84,10.84,0,0,0-1.944-5.765c.078-.392.182-.522.2-.7.074-.867-.714-.622-1.146-.528-.5.109-1.8.533-.76,1.287A3.347,3.347,0,0,0,1710.672,1319.722Z" transform="translate(-1705.707 -1315.729)" fill="#106e84" fill-rule="evenodd"/>
            <path id="Path_134716" data-name="Path 134716" d="M1701.9,1312.905c.008.895,2.595,2.532,4.151,2.361a4.36,4.36,0,0,0-1.179,1.727c-1.355-.246-3.974-1.748-3.906-2.965A1.091,1.091,0,0,1,1701.9,1312.905Z" transform="translate(-1700.967 -1312.905)" fill="#daeafa" fill-rule="evenodd"/>
            <path id="Path_134717" data-name="Path 134717" d="M1712.713,1314.242a6.8,6.8,0,0,1-.575,1.8,2.208,2.208,0,0,1,1.766.636A3.746,3.746,0,0,0,1712.713,1314.242Z" transform="translate(-1707.14 -1313.644)" fill="#daeafa" fill-rule="evenodd"/>
          </g>
        </g>
      </g>
    </g>
    <g id="Group_61889" data-name="Group 61889" transform="translate(1176.531 1219.048)">
      <path id="Path_134718" data-name="Path 134718" d="M1918.48,1247.869c.489-4.578-1.775-7.889-5.972-8.915l-11.5,15.338Z" transform="translate(-1576.834 -1238.954)" fill="#31accb" fill-rule="evenodd"/>
      <path id="Path_134719" data-name="Path 134719" d="M1337.879,1321.968l8.851,12.429-15.268-1.314A42.546,42.546,0,0,1,1337.879,1321.968Z" transform="translate(-1262.137 -1284.823)" fill="#33c1e5" fill-rule="evenodd"/>
      <path id="Path_134720" data-name="Path 134720" d="M1402.687,1859.44l13.707-7.209-6.844,21.683C1406.332,1870.817,1403.788,1865.5,1402.687,1859.44Z" transform="translate(-1301.491 -1577.815)" fill="#11639d" fill-rule="evenodd"/>
      <path id="Path_134721" data-name="Path 134721" d="M1940.715,1716.632l8.851,12.429-15.268-1.314A42.56,42.56,0,0,1,1940.715,1716.632Z" transform="translate(-1595.228 -1502.891)" fill="#8eb961" fill-rule="evenodd"/>
      <path id="Path_134722" data-name="Path 134722" d="M1182.006,1642.844l14.761,4.684-20.235,10.37C1176.474,1653.432,1178.466,1647.889,1182.006,1642.844Z" transform="translate(-1176.531 -1462.12)" fill="#fcd148" fill-rule="evenodd"/>
    </g>
  </g>
</svg>
